SplineFontDB: 3.0
FontName: HM_XBZar-Italic
FullName: HM_XBZar Italic
FamilyName: HM_XBZar
Weight: Book
Copyright: Copyright (c) Hossein, 2013. All rights reserved.
Version: 0.11
ItalicAngle: -12
UnderlinePosition: -540
UnderlineWidth: 60
Ascent: 1638
Descent: 410
sfntRevision: 0x00010000
LayerCount: 2
Layer: 0 1 "Back"  1
Layer: 1 1 "Fore"  0
XUID: [1021 322 1683850888 15201582]
FSType: 0
OS2Version: 2
OS2_WeightWidthSlopeOnly: 0
OS2_UseTypoMetrics: 1
CreationTime: 1240174560
ModificationTime: 1360911972
PfmFamily: 17
TTFWeight: 400
TTFWidth: 5
LineGap: 0
VLineGap: 0
Panose: 2 0 5 6 9 0 0 9 0 3
OS2TypoAscent: 2100
OS2TypoAOffset: 0
OS2TypoDescent: -1000
OS2TypoDOffset: 0
OS2TypoLinegap: 0
OS2WinAscent: 2100
OS2WinAOffset: 0
OS2WinDescent: 1000
OS2WinDOffset: 0
HheadAscent: 2100
HheadAOffset: 0
HheadDescent: -1000
HheadDOffset: 0
OS2SubXSize: 1434
OS2SubYSize: 1331
OS2SubXOff: 0
OS2SubYOff: 293
OS2SupXSize: 1434
OS2SupYSize: 1331
OS2SupXOff: 0
OS2SupYOff: 928
OS2StrikeYSize: 102
OS2StrikeYPos: 512
OS2Vendor: 'pars'
OS2CodePages: 20000051.41000000
OS2UnicodeRanges: 00002003.80000000.00000008.00000000
Lookup: 4 0 0 "'ccmp' Glyph Composition/Decomposition in Latin lookup 0"  {"'ccmp' Glyph Composition/Decomposition in Latin lookup 0 subtable"  } ['ccmp' ('latn' <'dflt' > ) ]
Lookup: 6 1 0 "'ccmp' Glyph Composition/Decomposition in Arabic lookup 1"  {"'ccmp' Glyph Composition/Decomposition in Arabic lookup 1 contextual 0"  "'ccmp' Glyph Composition/Decomposition in Arabic lookup 1 contextual 1"  "'ccmp' Glyph Composition/Decomposition in Arabic lookup 1 contextual 2"  "'ccmp' Glyph Composition/Decomposition in Arabic lookup 1 contextual 3"  "'ccmp' Glyph Composition/Decomposition in Arabic lookup 1 contextual 4"  "'ccmp' Glyph Composition/Decomposition in Arabic lookup 1 contextual 5"  } ['ccmp' ('arab' <'ARA ' 'DRI ' 'FAR ' 'KUR ' 'PAS ' 'TRK ' 'URD ' 'UYG ' 'UZB ' 'dflt' > ) ]

StartChar: .notdef
Encoding: 65536 -1 0
Width: 1288
GlyphClass: 2
Flags: W
LayerCount: 2
Fore
SplineSet
112 0 m 1,0,-1
 112 1325 l 1,1,-1
 1170 1325 l 1,2,-1
 1170 0 l 1,3,-1
 112 0 l 1,0,-1
1134 1288 m 1,4,-1
 146 1288 l 1,5,-1
 146 36 l 1,6,-1
 1134 36 l 1,7,-1
 1134 1288 l 1,4,-1
752 314 m 0,8,9
 752 279 752 279 727 257 c 128,-1,10
 702 235 702 235 667 235 c 0,11,12
 650 235 650 235 636 242 c 128,-1,13
 622 249 622 249 611.5 260 c 128,-1,14
 601 271 601 271 595.5 286 c 128,-1,15
 590 301 590 301 590 317 c 0,16,17
 590 394 590 394 673 394 c 0,18,19
 690 394 690 394 704 387 c 128,-1,20
 718 380 718 380 729 368.5 c 128,-1,21
 740 357 740 357 746 343 c 128,-1,22
 752 329 752 329 752 314 c 0,8,9
813 948 m 0,23,24
 813 860 813 860 752 860 c 0,25,26
 672 860 672 860 672 918 c 0,27,28
 672 925 672 925 675.5 939 c 128,-1,29
 679 953 679 953 681 959 c 1,30,-1
 681 964 l 2,31,32
 681 976 681 976 685.5 988 c 128,-1,33
 690 1000 690 1000 690 1005 c 0,34,35
 690 1050 690 1050 622 1050 c 0,36,37
 598 1050 598 1050 578.5 1037.5 c 128,-1,38
 559 1025 559 1025 545 1003 c 128,-1,39
 531 981 531 981 523.5 952.5 c 128,-1,40
 516 924 516 924 516 891 c 0,41,42
 516 859 516 859 528 831 c 128,-1,43
 540 803 540 803 561 782 c 128,-1,44
 582 761 582 761 610.5 748.5 c 128,-1,45
 639 736 639 736 671 736 c 0,46,47
 679 736 679 736 690.5 736.5 c 128,-1,48
 702 737 702 737 711 738 c 1,49,-1
 711 460 l 1,50,-1
 640 460 l 1,51,-1
 640 603 l 1,52,53
 591 606 591 606 547.5 626.5 c 128,-1,54
 504 647 504 647 472 680.5 c 128,-1,55
 440 714 440 714 421.5 758.5 c 128,-1,56
 403 803 403 803 403 854 c 0,57,58
 403 1110 403 1110 633 1110 c 0,59,60
 670 1110 670 1110 703 1098.5 c 128,-1,61
 736 1087 736 1087 760.5 1065.5 c 128,-1,62
 785 1044 785 1044 799 1014 c 128,-1,63
 813 984 813 984 813 948 c 0,23,24
EndSplineSet
EndChar

StartChar: exclam
Encoding: 33 33 4
Width: 629
GlyphClass: 2
Flags: W
LayerCount: 2
Fore
SplineSet
42 172 m 0,0,1
 47 196 47 196 61 216 c 128,-1,2
 75 236 75 236 93 250.5 c 128,-1,3
 111 265 111 265 132 273 c 128,-1,4
 153 281 153 281 173 281 c 256,5,6
 193 281 193 281 211 273 c 128,-1,7
 229 265 229 265 241.5 250.5 c 128,-1,8
 254 236 254 236 259 216 c 128,-1,9
 264 196 264 196 259 172 c 0,10,11
 254 149 254 149 240.5 129.5 c 128,-1,12
 227 110 227 110 208.5 95.5 c 128,-1,13
 190 81 190 81 168.5 72.5 c 128,-1,14
 147 64 147 64 127 64 c 256,15,16
 107 64 107 64 89.5 72.5 c 128,-1,17
 72 81 72 81 60 95.5 c 128,-1,18
 48 110 48 110 42.5 129.5 c 128,-1,19
 37 149 37 149 42 172 c 0,0,1
277 1305 m 0,20,21
 286 1349 286 1349 301 1385 c 128,-1,22
 316 1421 316 1421 335.5 1446.5 c 128,-1,23
 355 1472 355 1472 379.5 1486.5 c 128,-1,24
 404 1501 404 1501 433 1501 c 256,25,26
 462 1501 462 1501 480.5 1486.5 c 128,-1,27
 499 1472 499 1472 508 1446.5 c 128,-1,28
 517 1421 517 1421 516 1385 c 128,-1,29
 515 1349 515 1349 506 1305 c 0,30,31
 491 1234 491 1234 458 1148.5 c 128,-1,32
 425 1063 425 1063 387 966.5 c 128,-1,33
 349 870 349 870 312 765.5 c 128,-1,34
 275 661 275 661 252 553 c 0,35,36
 250 544 250 544 249 533.5 c 128,-1,37
 248 523 248 523 244 506 c 0,38,39
 242 495 242 495 235.5 488 c 128,-1,40
 229 481 229 481 216 481 c 0,41,42
 204 481 204 481 200.5 488 c 128,-1,43
 197 495 197 495 199 506 c 0,44,45
 203 523 203 523 206 533.5 c 128,-1,46
 209 544 209 544 211 553 c 0,47,48
 234 661 234 661 241.5 765.5 c 128,-1,49
 249 870 249 870 252 966.5 c 128,-1,50
 255 1063 255 1063 258.5 1148.5 c 128,-1,51
 262 1234 262 1234 277 1305 c 0,20,21
EndSplineSet
EndChar

StartChar: quotedbl
Encoding: 34 34 5
Width: 788
GlyphClass: 2
Flags: W
LayerCount: 2
Fore
SplineSet
283 838 m 2,0,1
 281 832 281 832 277.5 821 c 128,-1,2
 274 810 274 810 269 799.5 c 128,-1,3
 264 789 264 789 256 781.5 c 128,-1,4
 248 774 248 774 237 774 c 0,5,6
 225 774 225 774 219.5 781.5 c 128,-1,7
 214 789 214 789 213 799.5 c 128,-1,8
 212 810 212 810 213.5 821 c 128,-1,9
 215 832 215 832 216 838 c 2,10,-1
 269 1255 l 2,11,12
 272 1275 272 1275 277 1303 c 128,-1,13
 282 1331 282 1331 293.5 1357.5 c 128,-1,14
 305 1384 305 1384 324.5 1402.5 c 128,-1,15
 344 1421 344 1421 375 1421 c 0,16,17
 405 1421 405 1421 415.5 1402.5 c 128,-1,18
 426 1384 426 1384 426 1357.5 c 128,-1,19
 426 1331 426 1331 419 1303 c 128,-1,20
 412 1275 412 1275 406 1255 c 2,21,-1
 283 838 l 2,0,1
578 838 m 2,22,23
 576 832 576 832 572.5 821 c 128,-1,24
 569 810 569 810 564 799.5 c 128,-1,25
 559 789 559 789 551 781.5 c 128,-1,26
 543 774 543 774 531 774 c 256,27,28
 519 774 519 774 514 781.5 c 128,-1,29
 509 789 509 789 508 799.5 c 128,-1,30
 507 810 507 810 508.5 821 c 128,-1,31
 510 832 510 832 511 838 c 2,32,-1
 564 1255 l 2,33,34
 567 1275 567 1275 572 1303 c 128,-1,35
 577 1331 577 1331 588.5 1357.5 c 128,-1,36
 600 1384 600 1384 619.5 1402.5 c 128,-1,37
 639 1421 639 1421 669 1421 c 256,38,39
 699 1421 699 1421 710 1402.5 c 128,-1,40
 721 1384 721 1384 721 1357.5 c 128,-1,41
 721 1331 721 1331 714 1303 c 128,-1,42
 707 1275 707 1275 701 1255 c 2,43,-1
 578 838 l 2,22,23
EndSplineSet
EndChar

StartChar: numbersign
Encoding: 35 35 6
Width: 1200
GlyphClass: 2
Flags: W
LayerCount: 2
Fore
SplineSet
490 840 m 1,0,-1
 447 549 l 1,1,-1
 723 549 l 1,2,-1
 766 840 l 1,3,-1
 490 840 l 1,0,-1
1045 442 m 1,4,-1
 822 442 l 1,5,-1
 759 0 l 1,6,-1
 644 0 l 1,7,-1
 709 442 l 1,8,-1
 432 442 l 1,9,-1
 370 0 l 1,10,-1
 255 0 l 1,11,-1
 320 442 l 1,12,-1
 95 442 l 1,13,-1
 95 549 l 1,14,-1
 334 549 l 1,15,-1
 377 840 l 1,16,-1
 152 840 l 1,17,-1
 152 946 l 1,18,-1
 391 946 l 1,19,-1
 455 1389 l 1,20,-1
 570 1389 l 1,21,-1
 504 946 l 1,22,-1
 781 946 l 1,23,-1
 844 1389 l 1,24,-1
 959 1389 l 1,25,-1
 893 946 l 1,26,-1
 1102 946 l 1,27,-1
 1102 840 l 1,28,-1
 879 840 l 1,29,-1
 836 549 l 1,30,-1
 1045 549 l 1,31,-1
 1045 442 l 1,4,-1
EndSplineSet
EndChar

StartChar: dollar
Encoding: 36 36 7
Width: 1139
GlyphClass: 2
Flags: W
LayerCount: 2
Fore
SplineSet
554 854 m 1,0,1
 583 834 583 834 609.5 820.5 c 128,-1,2
 636 807 636 807 667 793 c 1,3,-1
 839 1147 l 1,4,5
 830 1162 830 1162 821.5 1173.5 c 128,-1,6
 813 1185 813 1185 803.5 1197 c 128,-1,7
 794 1209 794 1209 781.5 1223 c 128,-1,8
 769 1237 769 1237 751 1255 c 1,9,-1
 554 854 l 1,0,1
585 621 m 1,10,-1
 470 678 l 1,11,-1
 300 322 l 1,12,13
 308 302 308 302 314 287 c 128,-1,14
 320 272 320 272 328 257.5 c 128,-1,15
 336 243 336 243 346.5 227.5 c 128,-1,16
 357 212 357 212 374 190 c 1,17,-1
 585 621 l 1,10,-1
405 156 m 1,18,19
 419 138 419 138 440 121 c 128,-1,20
 461 104 461 104 486 90.5 c 128,-1,21
 511 77 511 77 538.5 69 c 128,-1,22
 566 61 566 61 591 61 c 0,23,24
 657 61 657 61 704.5 86 c 128,-1,25
 752 111 752 111 783 149 c 128,-1,26
 814 187 814 187 828.5 232.5 c 128,-1,27
 843 278 843 278 843 319 c 0,28,29
 843 417 843 417 785.5 487 c 128,-1,30
 728 557 728 557 622 602 c 1,31,-1
 405 156 l 1,18,19
718 1280 m 1,32,33
 709 1289 709 1289 693.5 1298 c 128,-1,34
 678 1307 678 1307 659 1314.5 c 128,-1,35
 640 1322 640 1322 618.5 1326.5 c 128,-1,36
 597 1331 597 1331 574 1331 c 0,37,38
 527 1331 527 1331 487 1316 c 128,-1,39
 447 1301 447 1301 417.5 1272.5 c 128,-1,40
 388 1244 388 1244 371.5 1204 c 128,-1,41
 355 1164 355 1164 355 1114 c 0,42,43
 355 1093 355 1093 361 1064 c 128,-1,44
 367 1035 367 1035 385 1003 c 128,-1,45
 403 971 403 971 435.5 937.5 c 128,-1,46
 468 904 468 904 521 872 c 1,47,-1
 718 1280 l 1,32,33
437 696 m 1,48,49
 412 712 412 712 374.5 739 c 128,-1,50
 337 766 337 766 301.5 806 c 128,-1,51
 266 846 266 846 241 901 c 128,-1,52
 216 956 216 956 216 1028 c 0,53,54
 216 1107 216 1107 246 1170 c 128,-1,55
 276 1233 276 1233 326.5 1277 c 128,-1,56
 377 1321 377 1321 443 1344.5 c 128,-1,57
 509 1368 509 1368 581 1368 c 0,58,59
 633 1368 633 1368 675.5 1359 c 128,-1,60
 718 1350 718 1350 749 1339 c 1,61,-1
 859 1556 l 1,62,-1
 902 1556 l 1,63,-1
 785 1325 l 1,64,65
 824 1305 824 1305 861 1305 c 0,66,67
 875 1305 875 1305 887 1308 c 128,-1,68
 899 1311 899 1311 910.5 1319 c 128,-1,69
 922 1327 922 1327 933.5 1342.5 c 128,-1,70
 945 1358 945 1358 957 1382 c 2,71,-1
 1046 1556 l 1,72,-1
 1080 1556 l 1,73,74
 1050 1496 1050 1496 1029 1449 c 128,-1,75
 1008 1402 1008 1402 995 1359 c 128,-1,76
 982 1316 982 1316 976 1271 c 128,-1,77
 970 1226 970 1226 970 1169 c 0,78,79
 970 1121 970 1121 971.5 1078 c 128,-1,80
 973 1035 973 1035 974.5 999.5 c 128,-1,81
 976 964 976 964 977 939.5 c 128,-1,82
 978 915 978 915 978 905 c 0,83,84
 978 893 978 893 973.5 885 c 128,-1,85
 969 877 969 877 955 877 c 0,86,87
 943 877 943 877 938 894.5 c 128,-1,88
 933 912 933 912 926.5 943 c 128,-1,89
 920 974 920 974 907 1015 c 128,-1,90
 894 1056 894 1056 865 1104 c 1,91,-1
 706 772 l 1,92,93
 768 744 768 744 822.5 706.5 c 128,-1,94
 877 669 877 669 918 622.5 c 128,-1,95
 959 576 959 576 983 520.5 c 128,-1,96
 1007 465 1007 465 1007 401 c 0,97,98
 1007 311 1007 311 971.5 241 c 128,-1,99
 936 171 936 171 878.5 123 c 128,-1,100
 821 75 821 75 747.5 50 c 128,-1,101
 674 25 674 25 599 25 c 0,102,103
 562 25 562 25 528 31.5 c 128,-1,104
 494 38 494 38 464.5 47.5 c 128,-1,105
 435 57 435 57 411.5 67 c 128,-1,106
 388 77 388 77 370 84 c 1,107,-1
 251 -168 l 1,108,-1
 206 -168 l 1,109,-1
 329 98 l 1,110,111
 306 109 306 109 263 109 c 0,112,113
 231 109 231 109 203 89.5 c 128,-1,114
 175 70 175 70 161 39 c 2,115,-1
 62 -168 l 1,116,-1
 25 -168 l 1,117,-1
 85 -25 l 2,118,119
 110 33 110 33 126.5 99.5 c 128,-1,120
 143 166 143 166 153 233 c 128,-1,121
 163 300 163 300 167.5 362.5 c 128,-1,122
 172 425 172 425 174 475 c 128,-1,123
 176 525 176 525 175.5 558.5 c 128,-1,124
 175 592 175 592 175 600 c 0,125,126
 175 617 175 617 179 628 c 128,-1,127
 183 639 183 639 194 639 c 0,128,129
 209 639 209 639 213.5 620 c 128,-1,130
 218 601 218 601 222.5 565.5 c 128,-1,131
 227 530 227 530 238 480.5 c 128,-1,132
 249 431 249 431 278 371 c 1,133,-1
 437 696 l 1,48,49
EndSplineSet
EndChar

StartChar: percent
Encoding: 37 37 8
Width: 1361
GlyphClass: 2
Flags: W
LayerCount: 2
Fore
SplineSet
1192 1405 m 1,0,-1
 241 -16 l 1,1,-1
 168 -16 l 1,2,-1
 1118 1405 l 1,3,-1
 1192 1405 l 1,0,-1
1011 729 m 0,4,5
 1079 729 1079 729 1134 700.5 c 128,-1,6
 1189 672 1189 672 1228 622 c 128,-1,7
 1267 572 1267 572 1288.5 504 c 128,-1,8
 1310 436 1310 436 1310 356 c 256,9,10
 1310 276 1310 276 1288.5 208 c 128,-1,11
 1267 140 1267 140 1228 90 c 128,-1,12
 1189 40 1189 40 1134 12 c 128,-1,13
 1079 -16 1079 -16 1011 -16 c 0,14,15
 944 -16 944 -16 888.5 12 c 128,-1,16
 833 40 833 40 794 90 c 128,-1,17
 755 140 755 140 733.5 208 c 128,-1,18
 712 276 712 276 712 356 c 256,19,20
 712 436 712 436 733.5 504 c 128,-1,21
 755 572 755 572 794 622 c 128,-1,22
 833 672 833 672 888.5 700.5 c 128,-1,23
 944 729 944 729 1011 729 c 0,4,5
1011 692 m 256,24,25
 980 692 980 692 955 667 c 128,-1,26
 930 642 930 642 912.5 597.5 c 128,-1,27
 895 553 895 553 885.5 491.5 c 128,-1,28
 876 430 876 430 876 356 c 0,29,30
 876 283 876 283 885.5 221 c 128,-1,31
 895 159 895 159 912.5 114.5 c 128,-1,32
 930 70 930 70 955 45 c 128,-1,33
 980 20 980 20 1011 20 c 256,34,35
 1042 20 1042 20 1067 45 c 128,-1,36
 1092 70 1092 70 1109.5 114.5 c 128,-1,37
 1127 159 1127 159 1136.5 221 c 128,-1,38
 1146 283 1146 283 1146 356 c 0,39,40
 1146 430 1146 430 1136.5 491.5 c 128,-1,41
 1127 553 1127 553 1109.5 597.5 c 128,-1,42
 1092 642 1092 642 1067 667 c 128,-1,43
 1042 692 1042 692 1011 692 c 256,24,25
348 1405 m 0,44,45
 416 1405 416 1405 471 1376.5 c 128,-1,46
 526 1348 526 1348 565 1298 c 128,-1,47
 604 1248 604 1248 625.5 1180 c 128,-1,48
 647 1112 647 1112 647 1032 c 256,49,50
 647 952 647 952 625.5 884 c 128,-1,51
 604 816 604 816 565 766 c 128,-1,52
 526 716 526 716 471 687.5 c 128,-1,53
 416 659 416 659 348 659 c 0,54,55
 281 659 281 659 225.5 687.5 c 128,-1,56
 170 716 170 716 131 766 c 128,-1,57
 92 816 92 816 70.5 884 c 128,-1,58
 49 952 49 952 49 1032 c 256,59,60
 49 1112 49 1112 70.5 1180 c 128,-1,61
 92 1248 92 1248 131 1298 c 128,-1,62
 170 1348 170 1348 225.5 1376.5 c 128,-1,63
 281 1405 281 1405 348 1405 c 0,44,45
348 1368 m 256,64,65
 317 1368 317 1368 292 1343 c 128,-1,66
 267 1318 267 1318 249.5 1273.5 c 128,-1,67
 232 1229 232 1229 222.5 1167.5 c 128,-1,68
 213 1106 213 1106 213 1032 c 0,69,70
 213 959 213 959 222.5 897 c 128,-1,71
 232 835 232 835 249.5 790.5 c 128,-1,72
 267 746 267 746 292 721 c 128,-1,73
 317 696 317 696 348 696 c 256,74,75
 379 696 379 696 404 721 c 128,-1,76
 429 746 429 746 446.5 790.5 c 128,-1,77
 464 835 464 835 473.5 897 c 128,-1,78
 483 959 483 959 483 1032 c 0,79,80
 483 1106 483 1106 473.5 1167.5 c 128,-1,81
 464 1229 464 1229 446.5 1273.5 c 128,-1,82
 429 1318 429 1318 404 1343 c 128,-1,83
 379 1368 379 1368 348 1368 c 256,64,65
EndSplineSet
Ligature2: "<17006,16006> Roman in Arabic lookup 97 subtable" zero fraction zero
Ligature2: "<17006,16006> Roman in Arabic lookup 97 subtable" zero slash zero
Ligature2: "Ligature Substitution lookup 63 subtable" zero fraction zero
Ligature2: "Ligature Substitution lookup 63 subtable" zero slash zero
EndChar

StartChar: ampersand
Encoding: 38 38 9
Width: 1518
GlyphClass: 2
Flags: W
LayerCount: 2
Fore
SplineSet
278 471 m 0,0,1
 278 387 278 387 304.5 309 c 128,-1,2
 331 231 331 231 379 171.5 c 128,-1,3
 427 112 427 112 494 76.5 c 128,-1,4
 561 41 561 41 642 41 c 0,5,6
 727 41 727 41 805 76 c 128,-1,7
 883 111 883 111 951 180 c 1,8,9
 904 258 904 258 853.5 328.5 c 128,-1,10
 803 399 803 399 742.5 466 c 128,-1,11
 682 533 682 533 608.5 597.5 c 128,-1,12
 535 662 535 662 441 729 c 1,13,14
 356 715 356 715 317 648.5 c 128,-1,15
 278 582 278 582 278 471 c 0,0,1
1084 293 m 1,16,17
 1106 242 1106 242 1133.5 198 c 128,-1,18
 1161 154 1161 154 1192.5 121.5 c 128,-1,19
 1224 89 1224 89 1260 71 c 128,-1,20
 1296 53 1296 53 1334 53 c 0,21,22
 1390 53 1390 53 1426 82.5 c 128,-1,23
 1462 112 1462 112 1484 166 c 0,24,25
 1490 183 1490 183 1495.5 191 c 128,-1,26
 1501 199 1501 199 1510 199 c 0,27,28
 1517 199 1517 199 1522 194 c 128,-1,29
 1527 189 1527 189 1527 178 c 0,30,31
 1527 169 1527 169 1521 150 c 128,-1,32
 1515 131 1515 131 1502.5 107.5 c 128,-1,33
 1490 84 1490 84 1470 59 c 128,-1,34
 1450 34 1450 34 1423 13.5 c 128,-1,35
 1396 -7 1396 -7 1360.5 -20 c 128,-1,36
 1325 -33 1325 -33 1281 -33 c 0,37,38
 1233 -33 1233 -33 1191.5 -21.5 c 128,-1,39
 1150 -10 1150 -10 1113 12.5 c 128,-1,40
 1076 35 1076 35 1042 69 c 128,-1,41
 1008 103 1008 103 974 147 c 1,42,43
 929 107 929 107 884.5 73.5 c 128,-1,44
 840 40 840 40 790 16.5 c 128,-1,45
 740 -7 740 -7 681.5 -20 c 128,-1,46
 623 -33 623 -33 548 -33 c 0,47,48
 434 -33 434 -33 349 4.5 c 128,-1,49
 264 42 264 42 207 100.5 c 128,-1,50
 150 159 150 159 121.5 230 c 128,-1,51
 93 301 93 301 93 369 c 0,52,53
 93 459 93 459 126 528 c 128,-1,54
 159 597 159 597 207.5 645 c 128,-1,55
 256 693 256 693 311 720.5 c 128,-1,56
 366 748 366 748 409 756 c 1,57,58
 381 777 381 777 354.5 809 c 128,-1,59
 328 841 328 841 307 880.5 c 128,-1,60
 286 920 286 920 273.5 966 c 128,-1,61
 261 1012 261 1012 261 1061 c 0,62,63
 261 1143 261 1143 287.5 1209.5 c 128,-1,64
 314 1276 314 1276 361 1323 c 128,-1,65
 408 1370 408 1370 472.5 1395.5 c 128,-1,66
 537 1421 537 1421 613 1421 c 0,67,68
 669 1421 669 1421 725 1401.5 c 128,-1,69
 781 1382 781 1382 825.5 1343 c 128,-1,70
 870 1304 870 1304 897.5 1246.5 c 128,-1,71
 925 1189 925 1189 925 1114 c 0,72,73
 925 1050 925 1050 902.5 999.5 c 128,-1,74
 880 949 880 949 843.5 910.5 c 128,-1,75
 807 872 807 872 760 845.5 c 128,-1,76
 713 819 713 819 665 801 c 1,77,-1
 736 743 l 2,78,79
 786 703 786 703 834 655 c 128,-1,80
 882 607 882 607 924.5 554.5 c 128,-1,81
 967 502 967 502 1003.5 446.5 c 128,-1,82
 1040 391 1040 391 1066 336 c 1,83,84
 1126 432 1126 432 1150.5 509.5 c 128,-1,85
 1175 587 1175 587 1175 643 c 0,86,87
 1175 687 1175 687 1163.5 711.5 c 128,-1,88
 1152 736 1152 736 1135 749.5 c 128,-1,89
 1118 763 1118 763 1098 768 c 128,-1,90
 1078 773 1078 773 1061 776.5 c 128,-1,91
 1044 780 1044 780 1032.5 785.5 c 128,-1,92
 1021 791 1021 791 1021 805 c 0,93,94
 1021 813 1021 813 1028.5 818 c 128,-1,95
 1036 823 1036 823 1052 823 c 0,96,97
 1080 823 1080 823 1127.5 821 c 128,-1,98
 1175 819 1175 819 1238 819 c 0,99,100
 1279 819 1279 819 1310 819.5 c 128,-1,101
 1341 820 1341 820 1366 821 c 128,-1,102
 1391 822 1391 822 1411 822.5 c 128,-1,103
 1431 823 1431 823 1449 823 c 0,104,105
 1474 823 1474 823 1484 818.5 c 128,-1,106
 1494 814 1494 814 1494 803 c 0,107,108
 1494 790 1494 790 1484.5 785 c 128,-1,109
 1475 780 1475 780 1459 776.5 c 128,-1,110
 1443 773 1443 773 1422 768.5 c 128,-1,111
 1401 764 1401 764 1377.5 751.5 c 128,-1,112
 1354 739 1354 739 1330 716.5 c 128,-1,113
 1306 694 1306 694 1285 655 c 2,114,-1
 1084 293 l 1,16,17
396 1157 m 0,115,116
 396 1104 396 1104 415.5 1059 c 128,-1,117
 435 1014 435 1014 468 974 c 128,-1,118
 501 934 501 934 544.5 898 c 128,-1,119
 588 862 588 862 636 827 c 1,120,121
 727 868 727 868 774.5 935.5 c 128,-1,122
 822 1003 822 1003 822 1106 c 0,123,124
 822 1183 822 1183 804.5 1236 c 128,-1,125
 787 1289 787 1289 757 1322 c 128,-1,126
 727 1355 727 1355 687.5 1369.5 c 128,-1,127
 648 1384 648 1384 605 1384 c 0,128,129
 564 1384 564 1384 526 1367 c 128,-1,130
 488 1350 488 1350 459 1319.5 c 128,-1,131
 430 1289 430 1289 413 1247.5 c 128,-1,132
 396 1206 396 1206 396 1157 c 0,115,116
EndSplineSet
EndChar

StartChar: quotesingle
Encoding: 39 39 10
Width: 493
GlyphClass: 2
Flags: W
LayerCount: 2
Fore
SplineSet
283 838 m 2,0,1
 281 832 281 832 277.5 821 c 128,-1,2
 274 810 274 810 269 799.5 c 128,-1,3
 264 789 264 789 256 781.5 c 128,-1,4
 248 774 248 774 236 774 c 256,5,6
 224 774 224 774 219 781.5 c 128,-1,7
 214 789 214 789 213 799.5 c 128,-1,8
 212 810 212 810 213.5 821 c 128,-1,9
 215 832 215 832 216 838 c 2,10,-1
 269 1255 l 2,11,12
 272 1275 272 1275 277 1303 c 128,-1,13
 282 1331 282 1331 293.5 1357.5 c 128,-1,14
 305 1384 305 1384 324 1402.5 c 128,-1,15
 343 1421 343 1421 374 1421 c 0,16,17
 404 1421 404 1421 415 1402.5 c 128,-1,18
 426 1384 426 1384 426 1357.5 c 128,-1,19
 426 1331 426 1331 419 1303 c 128,-1,20
 412 1275 412 1275 406 1255 c 2,21,-1
 283 838 l 2,0,1
EndSplineSet
EndChar

StartChar: parenleft
Encoding: 40 40 11
Width: 1002
GlyphClass: 2
Flags: W
LayerCount: 2
Fore
SplineSet
149 530 m 256,0,1
 149 662 149 662 170.5 777 c 128,-1,2
 192 892 192 892 232 991 c 128,-1,3
 272 1090 272 1090 329 1173 c 128,-1,4
 386 1256 386 1256 456 1325 c 0,5,6
 495 1363 495 1363 538.5 1394.5 c 128,-1,7
 582 1426 582 1426 621.5 1448.5 c 128,-1,8
 661 1471 661 1471 693 1483 c 128,-1,9
 725 1495 725 1495 743 1495 c 0,10,11
 748 1495 748 1495 749.5 1491.5 c 128,-1,12
 751 1488 751 1488 751 1485 c 0,13,14
 751 1479 751 1479 739 1473.5 c 128,-1,15
 727 1468 727 1468 705.5 1457 c 128,-1,16
 684 1446 684 1446 653 1425.5 c 128,-1,17
 622 1405 622 1405 583 1370 c 0,18,19
 457 1255 457 1255 391 1041 c 128,-1,20
 325 827 325 827 325 530 c 0,21,22
 325 235 325 235 391.5 20.5 c 128,-1,23
 458 -194 458 -194 583 -309 c 0,24,25
 622 -344 622 -344 653 -364.5 c 128,-1,26
 684 -385 684 -385 705.5 -396.5 c 128,-1,27
 727 -408 727 -408 739 -413.5 c 128,-1,28
 751 -419 751 -419 751 -424 c 0,29,30
 751 -427 751 -427 749.5 -430.5 c 128,-1,31
 748 -434 748 -434 743 -434 c 0,32,33
 725 -434 725 -434 693 -422 c 128,-1,34
 661 -410 661 -410 621.5 -387.5 c 128,-1,35
 582 -365 582 -365 538.5 -334 c 128,-1,36
 495 -303 495 -303 456 -264 c 0,37,38
 386 -195 386 -195 329 -112 c 128,-1,39
 272 -29 272 -29 232 70 c 128,-1,40
 192 169 192 169 170.5 283.5 c 128,-1,41
 149 398 149 398 149 530 c 256,0,1
EndSplineSet
Substitution2: "Single Substitution lookup 55 subtable" zerowidthspace
EndChar

StartChar: parenright
Encoding: 41 41 12
Width: 952
GlyphClass: 2
Flags: W
LayerCount: 2
Fore
SplineSet
701 530 m 256,0,1
 701 398 701 398 679.5 283.5 c 128,-1,2
 658 169 658 169 618.5 70 c 128,-1,3
 579 -29 579 -29 522 -112 c 128,-1,4
 465 -195 465 -195 394 -264 c 0,5,6
 355 -303 355 -303 312 -334 c 128,-1,7
 269 -365 269 -365 229.5 -387.5 c 128,-1,8
 190 -410 190 -410 157.5 -422 c 128,-1,9
 125 -434 125 -434 107 -434 c 0,10,11
 102 -434 102 -434 100.5 -430.5 c 128,-1,12
 99 -427 99 -427 99 -424 c 0,13,14
 99 -419 99 -419 111 -413.5 c 128,-1,15
 123 -408 123 -408 145 -396.5 c 128,-1,16
 167 -385 167 -385 198 -364.5 c 128,-1,17
 229 -344 229 -344 267 -309 c 0,18,19
 393 -194 393 -194 459 20.5 c 128,-1,20
 525 235 525 235 525 530 c 0,21,22
 525 826 525 826 459 1040.5 c 128,-1,23
 393 1255 393 1255 267 1370 c 0,24,25
 229 1405 229 1405 198 1425.5 c 128,-1,26
 167 1446 167 1446 145 1457 c 128,-1,27
 123 1468 123 1468 111 1473.5 c 128,-1,28
 99 1479 99 1479 99 1485 c 0,29,30
 99 1488 99 1488 100.5 1491.5 c 128,-1,31
 102 1495 102 1495 107 1495 c 0,32,33
 125 1495 125 1495 157.5 1483 c 128,-1,34
 190 1471 190 1471 229.5 1448.5 c 128,-1,35
 269 1426 269 1426 312 1394.5 c 128,-1,36
 355 1363 355 1363 394 1325 c 0,37,38
 465 1256 465 1256 522 1173 c 128,-1,39
 579 1090 579 1090 618.5 991 c 128,-1,40
 658 892 658 892 679.5 777 c 128,-1,41
 701 662 701 662 701 530 c 256,0,1
EndSplineSet
Substitution2: "Single Substitution lookup 55 subtable" zerowidthspace
EndChar

StartChar: asterisk
Encoding: 42 42 13
Width: 1005
GlyphClass: 2
Flags: W
LayerCount: 2
Fore
SplineSet
911 1206 m 0,0,1
 905 1177 905 1177 874.5 1153 c 128,-1,2
 844 1129 844 1129 796 1118 c 0,3,4
 773 1113 773 1113 749 1112 c 128,-1,5
 725 1111 725 1111 701.5 1110.5 c 128,-1,6
 678 1110 678 1110 655.5 1108 c 128,-1,7
 633 1106 633 1106 612 1098 c 1,8,9
 632 1110 632 1110 647.5 1126.5 c 128,-1,10
 663 1143 663 1143 679 1162.5 c 128,-1,11
 695 1182 695 1182 712 1203 c 128,-1,12
 729 1224 729 1224 751 1245 c 0,13,14
 774 1267 774 1267 799 1279.5 c 128,-1,15
 824 1292 824 1292 847 1292 c 0,16,17
 882 1292 882 1292 900 1266 c 128,-1,18
 918 1240 918 1240 911 1206 c 0,0,1
853 932 m 0,19,20
 849 915 849 915 839.5 899 c 128,-1,21
 830 883 830 883 816.5 871 c 128,-1,22
 803 859 803 859 786.5 851.5 c 128,-1,23
 770 844 770 844 752 844 c 0,24,25
 729 844 729 844 709.5 857.5 c 128,-1,26
 690 871 690 871 676 891 c 256,27,28
 662 911 662 911 653.5 932 c 128,-1,29
 645 953 645 953 638 973 c 128,-1,30
 631 993 631 993 622.5 1010.5 c 128,-1,31
 614 1028 614 1028 600 1040 c 1,32,33
 617 1033 617 1033 639 1031 c 128,-1,34
 661 1029 661 1029 684 1028.5 c 128,-1,35
 707 1028 707 1028 730.5 1027 c 128,-1,36
 754 1026 754 1026 775 1020 c 0,37,38
 819 1008 819 1008 839 984.5 c 128,-1,39
 859 961 859 961 853 932 c 0,19,20
630 1421 m 0,40,41
 665 1421 665 1421 683 1399 c 128,-1,42
 701 1377 701 1377 692 1333 c 0,43,44
 685 1298 685 1298 666 1269 c 128,-1,45
 647 1240 647 1240 626.5 1214.5 c 128,-1,46
 606 1189 606 1189 588 1164.5 c 128,-1,47
 570 1140 570 1140 564 1114 c 1,48,49
 569 1140 569 1140 561 1164.5 c 128,-1,50
 553 1189 553 1189 543.5 1214.5 c 128,-1,51
 534 1240 534 1240 528 1269 c 128,-1,52
 522 1298 522 1298 529 1333 c 0,53,54
 538 1377 538 1377 566 1399 c 128,-1,55
 594 1421 594 1421 630 1421 c 0,40,41
256 1206 m 0,56,57
 259 1223 259 1223 268.5 1238.5 c 128,-1,58
 278 1254 278 1254 291.5 1266 c 128,-1,59
 305 1278 305 1278 321.5 1285 c 128,-1,60
 338 1292 338 1292 356 1292 c 0,61,62
 379 1292 379 1292 398.5 1279.5 c 128,-1,63
 418 1267 418 1267 432 1245 c 0,64,65
 445 1224 445 1224 453.5 1203 c 128,-1,66
 462 1182 462 1182 469.5 1162.5 c 128,-1,67
 477 1143 477 1143 486 1126.5 c 128,-1,68
 495 1110 495 1110 509 1098 c 1,69,70
 491 1106 491 1106 469.5 1108 c 128,-1,71
 448 1110 448 1110 424.5 1110.5 c 128,-1,72
 401 1111 401 1111 377.5 1112 c 128,-1,73
 354 1113 354 1113 333 1118 c 0,74,75
 289 1129 289 1129 269.5 1153 c 128,-1,76
 250 1177 250 1177 256 1206 c 0,56,57
480 717 m 0,77,78
 444 717 444 717 425.5 739.5 c 128,-1,79
 407 762 407 762 417 805 c 0,80,81
 425 840 425 840 443 869 c 128,-1,82
 461 898 461 898 481.5 923.5 c 128,-1,83
 502 949 502 949 520 973.5 c 128,-1,84
 538 998 538 998 545 1024 c 1,85,86
 540 998 540 998 547.5 973.5 c 128,-1,87
 555 949 555 949 565 923.5 c 128,-1,88
 575 898 575 898 581.5 869 c 128,-1,89
 588 840 588 840 580 805 c 0,90,91
 570 762 570 762 542.5 739.5 c 128,-1,92
 515 717 515 717 480 717 c 0,77,78
198 932 m 0,93,94
 204 961 204 961 234 984.5 c 128,-1,95
 264 1008 264 1008 312 1020 c 0,96,97
 336 1026 336 1026 360 1027 c 128,-1,98
 384 1028 384 1028 407.5 1028.5 c 128,-1,99
 431 1029 431 1029 453.5 1031 c 128,-1,100
 476 1033 476 1033 497 1040 c 1,101,102
 478 1028 478 1028 462 1010.5 c 128,-1,103
 446 993 446 993 430 973 c 128,-1,104
 414 953 414 953 397 932 c 128,-1,105
 380 911 380 911 357 891 c 256,106,107
 334 871 334 871 309 857.5 c 128,-1,108
 284 844 284 844 261 844 c 0,109,110
 243 844 243 844 229.5 851.5 c 128,-1,111
 216 859 216 859 208 871 c 128,-1,112
 200 883 200 883 197 899 c 128,-1,113
 194 915 194 915 198 932 c 0,93,94
EndSplineSet
EndChar

StartChar: plus
Encoding: 43 43 14
Width: 1200
GlyphClass: 2
Flags: W
LayerCount: 2
Fore
SplineSet
668 930 m 1,0,-1
 668 535 l 1,1,-1
 1063 535 l 1,2,-1
 1063 395 l 1,3,-1
 668 395 l 1,4,-1
 669 0 l 1,5,-1
 530 0 l 1,6,-1
 529 395 l 1,7,-1
 134 395 l 1,8,-1
 134 535 l 1,9,-1
 529 535 l 1,10,-1
 529 930 l 1,11,-1
 668 930 l 1,0,-1
EndSplineSet
EndChar

StartChar: comma
Encoding: 44 44 15
Width: 569
GlyphClass: 2
Flags: W
LayerCount: 2
Fore
SplineSet
54 172 m 0,0,1
 59 193 59 193 70.5 212.5 c 128,-1,2
 82 232 82 232 100 247 c 128,-1,3
 118 262 118 262 142.5 271.5 c 128,-1,4
 167 281 167 281 196 281 c 0,5,6
 232 281 232 281 257 266 c 128,-1,7
 282 251 282 251 295.5 225 c 128,-1,8
 309 199 309 199 312 164 c 128,-1,9
 315 129 315 129 306 88 c 0,10,11
 297 44 297 44 273 -2.5 c 128,-1,12
 249 -49 249 -49 218.5 -93 c 128,-1,13
 188 -137 188 -137 153 -175.5 c 128,-1,14
 118 -214 118 -214 86 -243 c 128,-1,15
 54 -272 54 -272 28.5 -288.5 c 128,-1,16
 3 -305 3 -305 -10 -305 c 0,17,18
 -18 -305 -18 -305 -24 -302.5 c 128,-1,19
 -30 -300 -30 -300 -28 -289 c 0,20,21
 -26 -280 -26 -280 -11.5 -265.5 c 128,-1,22
 3 -251 3 -251 24.5 -232 c 128,-1,23
 46 -213 46 -213 71.5 -188.5 c 128,-1,24
 97 -164 97 -164 120.5 -135.5 c 128,-1,25
 144 -107 144 -107 162.5 -74 c 128,-1,26
 181 -41 181 -41 189 -4 c 0,27,28
 194 21 194 21 192.5 41.5 c 128,-1,29
 191 62 191 62 169 68 c 0,30,31
 153 73 153 73 130.5 76.5 c 128,-1,32
 108 80 108 80 88.5 89.5 c 128,-1,33
 69 99 69 99 58 118 c 128,-1,34
 47 137 47 137 54 172 c 0,0,1
EndSplineSet
EndChar

StartChar: hyphen
Encoding: 45 45 16
AltUni2: 0000ad.ffffffff.0 002212.ffffffff.0
Width: 1200
GlyphClass: 2
Flags: W
LayerCount: 2
Fore
SplineSet
899 385 m 1,0,-1
 299 385 l 1,1,-1
 299 541 l 1,2,-1
 899 541 l 1,3,-1
 899 385 l 1,0,-1
EndSplineSet
Substitution2: "<17026,18026>  lookup 92 nested-substitutions 0 subtable" hyphenlow
Substitution2: "<17026,16026>  lookup 90 nested-substitutions 0 subtable" hyphenlow
Substitution2: "Single Substitution lookup 55 subtable" hyphenlow
EndChar

StartChar: period
Encoding: 46 46 17
Width: 617
GlyphClass: 2
Flags: W
LayerCount: 2
Fore
SplineSet
36 172 m 0,0,1
 41 196 41 196 55 216 c 128,-1,2
 69 236 69 236 87 250.5 c 128,-1,3
 105 265 105 265 126.5 273 c 128,-1,4
 148 281 148 281 168 281 c 256,5,6
 188 281 188 281 205.5 273 c 128,-1,7
 223 265 223 265 235.5 250.5 c 128,-1,8
 248 236 248 236 253 216 c 128,-1,9
 258 196 258 196 253 172 c 0,10,11
 248 149 248 149 234.5 129.5 c 128,-1,12
 221 110 221 110 202.5 95.5 c 128,-1,13
 184 81 184 81 163 72.5 c 128,-1,14
 142 64 142 64 122 64 c 256,15,16
 102 64 102 64 84 72.5 c 128,-1,17
 66 81 66 81 54 95.5 c 128,-1,18
 42 110 42 110 36.5 129.5 c 128,-1,19
 31 149 31 149 36 172 c 0,0,1
EndSplineSet
Substitution2: "<17001,16003> Urdu lookup 100 subtable" uni06D4
Substitution2: "<17008,18008> Textual Comma in Arabic lookup 95 nested-substitutions 0 subtable" uni066C
Substitution2: "Single Substitution lookup 55 subtable" uni066C
EndChar

StartChar: slash
Encoding: 47 47 18
AltUni2: 000338.ffffffff.0
Width: 569
GlyphClass: 2
Flags: W
LayerCount: 2
Fore
SplineSet
67 -33 m 1,0,-1
 -71 -33 l 1,1,-1
 501 1421 l 1,2,-1
 640 1421 l 1,3,-1
 67 -33 l 1,0,-1
EndSplineSet
Substitution2: "<17001,16003> Urdu lookup 100 subtable" slash
EndChar

StartChar: zero
Encoding: 48 48 19
Width: 1200
GlyphClass: 2
Flags: W
LayerCount: 2
Fore
SplineSet
314 694 m 0,0,1
 277 521 277 521 266.5 394 c 128,-1,2
 256 267 256 267 273 184 c 128,-1,3
 290 101 290 101 335 60.5 c 128,-1,4
 380 20 380 20 453 20 c 0,5,6
 527 20 527 20 590.5 67.5 c 128,-1,7
 654 115 654 115 707.5 203 c 128,-1,8
 761 291 761 291 803.5 415.5 c 128,-1,9
 846 540 846 540 879 694 c 0,10,11
 953 1040 953 1040 920 1204 c 128,-1,12
 887 1368 887 1368 739 1368 c 0,13,14
 666 1368 666 1368 602.5 1320.5 c 128,-1,15
 539 1273 539 1273 486 1185.5 c 128,-1,16
 433 1098 433 1098 390 973.5 c 128,-1,17
 347 849 347 849 314 694 c 0,0,1
747 1405 m 256,18,19
 812 1405 812 1405 868 1379 c 128,-1,20
 924 1353 924 1353 968 1306 c 128,-1,21
 1012 1259 1012 1259 1043.5 1193.5 c 128,-1,22
 1075 1128 1075 1128 1090.5 1049 c 128,-1,23
 1106 970 1106 970 1105 880 c 128,-1,24
 1104 790 1104 790 1084 694 c 256,25,26
 1064 598 1064 598 1026.5 508.5 c 128,-1,27
 989 419 989 419 940 340 c 128,-1,28
 891 261 891 261 831.5 195.5 c 128,-1,29
 772 130 772 130 708 83 c 128,-1,30
 644 36 644 36 577 10 c 128,-1,31
 510 -16 510 -16 445 -16 c 0,32,33
 348 -16 348 -16 271.5 41 c 128,-1,34
 195 98 195 98 149 195.5 c 128,-1,35
 103 293 103 293 91 421.5 c 128,-1,36
 79 550 79 550 109 694 c 0,37,38
 129 790 129 790 166 880 c 128,-1,39
 203 970 203 970 252.5 1049 c 128,-1,40
 302 1128 302 1128 361 1193.5 c 128,-1,41
 420 1259 420 1259 484 1306 c 128,-1,42
 548 1353 548 1353 615 1379 c 128,-1,43
 682 1405 682 1405 747 1405 c 256,18,19
EndSplineSet
Substitution2: "<17001,16003> Urdu lookup 100 subtable" zero
EndChar

StartChar: one
Encoding: 49 49 20
Width: 1200
GlyphClass: 2
Flags: W
LayerCount: 2
Fore
SplineSet
625 217 m 2,0,1
 613 163 613 163 615 129 c 128,-1,2
 617 95 617 95 637.5 76.5 c 128,-1,3
 658 58 658 58 698.5 51.5 c 128,-1,4
 739 45 739 45 805 45 c 0,5,6
 828 45 828 45 841 43.5 c 128,-1,7
 854 42 854 42 860.5 38.5 c 128,-1,8
 867 35 867 35 868.5 30 c 128,-1,9
 870 25 870 25 868 18 c 0,10,11
 866 4 866 4 859 0 c 128,-1,12
 852 -4 852 -4 838 -4 c 0,13,14
 773 -4 773 -4 684 -2 c 128,-1,15
 595 0 595 0 480 0 c 0,16,17
 366 0 366 0 271.5 -2 c 128,-1,18
 177 -4 177 -4 84 -4 c 0,19,20
 70 -4 70 -4 64.5 0 c 128,-1,21
 59 4 59 4 61 18 c 0,22,23
 63 25 63 25 66 30 c 128,-1,24
 69 35 69 35 77.5 38.5 c 128,-1,25
 86 42 86 42 100 43.5 c 128,-1,26
 114 45 114 45 137 45 c 0,27,28
 217 45 217 45 268 51.5 c 128,-1,29
 319 58 319 58 350.5 76.5 c 128,-1,30
 382 95 382 95 399 129 c 128,-1,31
 416 163 416 163 428 217 c 2,32,-1
 626 1151 l 2,33,34
 632 1177 632 1177 625.5 1188.5 c 128,-1,35
 619 1200 619 1200 594 1200 c 2,36,-1
 322 1200 l 2,37,38
 293 1200 293 1200 297 1223 c 0,39,40
 300 1237 300 1237 319.5 1242.5 c 128,-1,41
 339 1248 339 1248 373.5 1252.5 c 128,-1,42
 408 1257 408 1257 458 1264 c 128,-1,43
 508 1271 508 1271 571.5 1288 c 128,-1,44
 635 1305 635 1305 712.5 1335.5 c 128,-1,45
 790 1366 790 1366 880 1417 c 1,46,-1
 625 217 l 2,0,1
EndSplineSet
Substitution2: "<17001,16003> Urdu lookup 100 subtable" one
EndChar

StartChar: two
Encoding: 50 50 21
Width: 1200
GlyphClass: 2
Flags: W
LayerCount: 2
Fore
SplineSet
-40 0 m 1,0,1
 -12 96 -12 96 39 172 c 128,-1,2
 90 248 90 248 154.5 309.5 c 128,-1,3
 219 371 219 371 293 421.5 c 128,-1,4
 367 472 367 472 442 518.5 c 128,-1,5
 517 565 517 565 588 611 c 128,-1,6
 659 657 659 657 717.5 709 c 128,-1,7
 776 761 776 761 818.5 822.5 c 128,-1,8
 861 884 861 884 877 961 c 0,9,10
 891 1026 891 1026 881.5 1082.5 c 128,-1,11
 872 1139 872 1139 840.5 1180.5 c 128,-1,12
 809 1222 809 1222 754.5 1246 c 128,-1,13
 700 1270 700 1270 624 1270 c 0,14,15
 577 1270 577 1270 532.5 1257 c 128,-1,16
 488 1244 488 1244 447.5 1221.5 c 128,-1,17
 407 1199 407 1199 371 1169.5 c 128,-1,18
 335 1140 335 1140 306 1106 c 0,19,20
 284 1081 284 1081 269.5 1060 c 128,-1,21
 255 1039 255 1039 244.5 1024 c 128,-1,22
 234 1009 234 1009 226.5 1001 c 128,-1,23
 219 993 219 993 212 993 c 0,24,25
 201 993 201 993 199.5 1000.5 c 128,-1,26
 198 1008 198 1008 200 1016 c 0,27,28
 204 1035 204 1035 224 1071 c 128,-1,29
 244 1107 244 1107 279 1150 c 128,-1,30
 314 1193 314 1193 362 1238.5 c 128,-1,31
 410 1284 410 1284 471 1321 c 128,-1,32
 532 1358 532 1358 604 1381.5 c 128,-1,33
 676 1405 676 1405 758 1405 c 0,34,35
 835 1405 835 1405 904 1377.5 c 128,-1,36
 973 1350 973 1350 1021.5 1299 c 128,-1,37
 1070 1248 1070 1248 1091 1175 c 128,-1,38
 1112 1102 1112 1102 1093 1012 c 0,39,40
 1076 933 1076 933 1038 873 c 128,-1,41
 1000 813 1000 813 947 765 c 128,-1,42
 894 717 894 717 828 677.5 c 128,-1,43
 762 638 762 638 690 600 c 128,-1,44
 618 562 618 562 542 522.5 c 128,-1,45
 466 483 466 483 391.5 434 c 128,-1,46
 317 385 317 385 248 324.5 c 128,-1,47
 179 264 179 264 120 184 c 1,48,-1
 677 184 l 2,49,50
 723 184 723 184 757 193 c 128,-1,51
 791 202 791 202 816 216 c 128,-1,52
 841 230 841 230 858.5 246 c 128,-1,53
 876 262 876 262 888 276 c 128,-1,54
 900 290 900 290 907.5 300 c 128,-1,55
 915 310 915 310 921 311 c 0,56,57
 933 313 933 313 936 307 c 128,-1,58
 939 301 939 301 937 289 c 0,59,60
 936 285 936 285 927.5 268 c 128,-1,61
 919 251 919 251 905.5 227 c 128,-1,62
 892 203 892 203 875 173 c 128,-1,63
 858 143 858 143 840.5 112 c 128,-1,64
 823 81 823 81 806.5 52 c 128,-1,65
 790 23 790 23 777 0 c 1,66,-1
 -40 0 l 1,0,1
EndSplineSet
Substitution2: "<17001,16003> Urdu lookup 100 subtable" two
EndChar

StartChar: three
Encoding: 51 51 22
Width: 1200
GlyphClass: 2
Flags: W
LayerCount: 2
Fore
SplineSet
966 457 m 0,0,1
 958 419 958 419 935 369 c 128,-1,2
 912 319 912 319 874 266.5 c 128,-1,3
 836 214 836 214 782.5 163.5 c 128,-1,4
 729 113 729 113 658.5 73 c 128,-1,5
 588 33 588 33 500 8.5 c 128,-1,6
 412 -16 412 -16 306 -16 c 0,7,8
 216 -16 216 -16 149.5 9.5 c 128,-1,9
 83 35 83 35 40 74 c 128,-1,10
 -3 113 -3 113 -20 160.5 c 128,-1,11
 -37 208 -37 208 -28 252 c 0,12,13
 -18 297 -18 297 15.5 321.5 c 128,-1,14
 49 346 49 346 93 346 c 0,15,16
 120 346 120 346 140 333.5 c 128,-1,17
 160 321 160 321 174.5 299 c 128,-1,18
 189 277 189 277 197 248 c 128,-1,19
 205 219 205 219 206 186 c 0,20,21
 208 151 208 151 218.5 122.5 c 128,-1,22
 229 94 229 94 250.5 74 c 128,-1,23
 272 54 272 54 305 43.5 c 128,-1,24
 338 33 338 33 385 33 c 0,25,26
 448 33 448 33 512 56.5 c 128,-1,27
 576 80 576 80 631 123.5 c 128,-1,28
 686 167 686 167 727 230 c 128,-1,29
 768 293 768 293 784 371 c 0,30,31
 794 416 794 416 790.5 466 c 128,-1,32
 787 516 787 516 772 561 c 128,-1,33
 757 606 757 606 731.5 642 c 128,-1,34
 706 678 706 678 670 696 c 0,35,36
 632 716 632 716 599.5 719.5 c 128,-1,37
 567 723 567 723 544 723 c 128,-1,38
 521 723 521 723 509 724.5 c 128,-1,39
 497 726 497 726 500 741 c 0,40,41
 503 754 503 754 521.5 759 c 128,-1,42
 540 764 540 764 567.5 771 c 128,-1,43
 595 778 595 778 628.5 791 c 128,-1,44
 662 804 662 804 694.5 833 c 128,-1,45
 727 862 727 862 754.5 911 c 128,-1,46
 782 960 782 960 799 1038 c 0,47,48
 813 1102 813 1102 805.5 1150.5 c 128,-1,49
 798 1199 798 1199 772.5 1232 c 128,-1,50
 747 1265 747 1265 705.5 1281.5 c 128,-1,51
 664 1298 664 1298 610 1298 c 256,52,53
 556 1298 556 1298 512.5 1283.5 c 128,-1,54
 469 1269 469 1269 434.5 1247 c 128,-1,55
 400 1225 400 1225 374 1199 c 128,-1,56
 348 1173 348 1173 329 1151 c 128,-1,57
 310 1129 310 1129 297.5 1114.5 c 128,-1,58
 285 1100 285 1100 277 1100 c 0,59,60
 264 1100 264 1100 267 1118 c 0,61,62
 268 1122 268 1122 281.5 1144.5 c 128,-1,63
 295 1167 295 1167 320.5 1199 c 128,-1,64
 346 1231 346 1231 383.5 1267 c 128,-1,65
 421 1303 421 1303 470 1334 c 128,-1,66
 519 1365 519 1365 579.5 1385 c 128,-1,67
 640 1405 640 1405 711 1405 c 0,68,69
 784 1405 784 1405 842.5 1379.5 c 128,-1,70
 901 1354 901 1354 939 1310.5 c 128,-1,71
 977 1267 977 1267 992.5 1210 c 128,-1,72
 1008 1153 1008 1153 994 1090 c 0,73,74
 980 1023 980 1023 941.5 964.5 c 128,-1,75
 903 906 903 906 829 844 c 1,76,77
 923 768 923 768 957.5 673 c 128,-1,78
 992 578 992 578 966 457 c 0,0,1
EndSplineSet
Substitution2: "<17001,16003> Urdu lookup 100 subtable" three
EndChar

StartChar: four
Encoding: 52 52 23
Width: 1200
GlyphClass: 2
Flags: W
LayerCount: 2
Fore
SplineSet
115 500 m 1,0,-1
 607 500 l 1,1,-1
 750 1174 l 1,2,-1
 746 1174 l 1,3,-1
 115 500 l 1,0,-1
803 500 m 1,4,-1
 1025 500 l 1,5,-1
 965 393 l 1,6,-1
 780 393 l 1,7,-1
 734 176 l 2,8,9
 725 132 725 132 733 107.5 c 128,-1,10
 741 83 741 83 758.5 71 c 128,-1,11
 776 59 776 59 798.5 55.5 c 128,-1,12
 821 52 821 52 841 49.5 c 128,-1,13
 861 47 861 47 873 41.5 c 128,-1,14
 885 36 885 36 882 20 c 0,15,16
 880 11 880 11 872 3.5 c 128,-1,17
 864 -4 864 -4 850 -4 c 0,18,19
 832 -4 832 -4 812 -3.5 c 128,-1,20
 792 -3 792 -3 764 -2 c 128,-1,21
 736 -1 736 -1 696.5 -0.5 c 128,-1,22
 657 0 657 0 599 0 c 256,23,24
 541 0 541 0 501.5 -0.5 c 128,-1,25
 462 -1 462 -1 433.5 -2 c 128,-1,26
 405 -3 405 -3 384.5 -3.5 c 128,-1,27
 364 -4 364 -4 346 -4 c 0,28,29
 332 -4 332 -4 327.5 3.5 c 128,-1,30
 323 11 323 11 325 20 c 0,31,32
 328 36 328 36 342.5 41.5 c 128,-1,33
 357 47 357 47 377.5 49.5 c 128,-1,34
 398 52 398 52 422 55.5 c 128,-1,35
 446 59 446 59 468.5 71 c 128,-1,36
 491 83 491 83 510 107.5 c 128,-1,37
 529 132 529 132 538 176 c 2,38,-1
 584 393 l 1,39,-1
 43 393 l 1,40,-1
 26 467 l 1,41,-1
 886 1389 l 1,42,-1
 992 1389 l 1,43,-1
 803 500 l 1,4,-1
EndSplineSet
Substitution2: "<17001,16003> Urdu lookup 100 subtable" four
EndChar

StartChar: five
Encoding: 53 53 24
Width: 1200
GlyphClass: 2
Flags: W
LayerCount: 2
Fore
SplineSet
449 1204 m 1,0,-1
 358 946 l 1,1,2
 378 949 378 949 406.5 949.5 c 128,-1,3
 435 950 435 950 472 950 c 0,4,5
 607 950 607 950 711 906 c 128,-1,6
 815 862 815 862 881.5 791.5 c 128,-1,7
 948 721 948 721 974.5 632.5 c 128,-1,8
 1001 544 1001 544 982 455 c 0,9,10
 962 359 962 359 904 273.5 c 128,-1,11
 846 188 846 188 764 123.5 c 128,-1,12
 682 59 682 59 581.5 21.5 c 128,-1,13
 481 -16 481 -16 376 -16 c 0,14,15
 287 -16 287 -16 220 6.5 c 128,-1,16
 153 29 153 29 110 63.5 c 128,-1,17
 67 98 67 98 49 139.5 c 128,-1,18
 31 181 31 181 39 219 c 256,19,20
 47 257 47 257 76.5 282 c 128,-1,21
 106 307 106 307 144 307 c 0,22,23
 177 307 177 307 198 295 c 128,-1,24
 219 283 219 283 232.5 264 c 128,-1,25
 246 245 246 245 255 220.5 c 128,-1,26
 264 196 264 196 273.5 170 c 128,-1,27
 283 144 283 144 296 119.5 c 128,-1,28
 309 95 309 95 330 76 c 128,-1,29
 351 57 351 57 383.5 45 c 128,-1,30
 416 33 416 33 465 33 c 0,31,32
 520 33 520 33 575.5 57 c 128,-1,33
 631 81 631 81 678.5 122 c 128,-1,34
 726 163 726 163 761 219.5 c 128,-1,35
 796 276 796 276 810 340 c 0,36,37
 827 421 827 421 816 484 c 128,-1,38
 805 547 805 547 772.5 595.5 c 128,-1,39
 740 644 740 644 691 678 c 128,-1,40
 642 712 642 712 582.5 733 c 128,-1,41
 523 754 523 754 458 764 c 128,-1,42
 393 774 393 774 329 774 c 0,43,44
 306 774 306 774 283 773.5 c 128,-1,45
 260 773 260 773 238 770 c 1,46,-1
 274 854 l 2,47,48
 304 924 304 924 329 986.5 c 128,-1,49
 354 1049 354 1049 376.5 1112 c 128,-1,50
 399 1175 399 1175 421.5 1242.5 c 128,-1,51
 444 1310 444 1310 470 1389 c 1,52,-1
 1019 1389 l 2,53,54
 1062 1389 1062 1389 1085 1401 c 128,-1,55
 1108 1413 1108 1413 1120.5 1427.5 c 128,-1,56
 1133 1442 1133 1442 1140.5 1454 c 128,-1,57
 1148 1466 1148 1466 1160 1466 c 0,58,59
 1176 1466 1176 1466 1173 1450 c 0,60,61
 1172 1446 1172 1446 1167 1436 c 128,-1,62
 1162 1426 1162 1426 1148 1400.5 c 128,-1,63
 1134 1375 1134 1375 1109.5 1328.5 c 128,-1,64
 1085 1282 1085 1282 1045 1204 c 1,65,-1
 449 1204 l 1,0,-1
EndSplineSet
Substitution2: "<17001,16003> Urdu lookup 100 subtable" five
EndChar

StartChar: six
Encoding: 54 54 25
Width: 1200
GlyphClass: 2
Flags: W
LayerCount: 2
Fore
SplineSet
273 475 m 0,0,1
 254 383 254 383 251 302.5 c 128,-1,2
 248 222 248 222 269 162 c 128,-1,3
 290 102 290 102 338.5 67.5 c 128,-1,4
 387 33 387 33 471 33 c 0,5,6
 601 33 601 33 687 127 c 128,-1,7
 773 221 773 221 813 410 c 0,8,9
 830 491 830 491 829 562 c 128,-1,10
 828 633 828 633 805.5 685.5 c 128,-1,11
 783 738 783 738 737 768.5 c 128,-1,12
 691 799 691 799 617 799 c 0,13,14
 578 799 578 799 537.5 788.5 c 128,-1,15
 497 778 497 778 459 759 c 128,-1,16
 421 740 421 740 387.5 713.5 c 128,-1,17
 354 687 354 687 328 655 c 1,18,19
 323 645 323 645 317 631 c 128,-1,20
 311 617 311 617 304.5 596 c 128,-1,21
 298 575 298 575 290 545.5 c 128,-1,22
 282 516 282 516 273 475 c 0,0,1
344 717 m 1,23,24
 374 746 374 746 412 770.5 c 128,-1,25
 450 795 450 795 491 812 c 128,-1,26
 532 829 532 829 575 838.5 c 128,-1,27
 618 848 618 848 658 848 c 0,28,29
 740 848 740 848 801 828.5 c 128,-1,30
 862 809 862 809 905 776.5 c 128,-1,31
 948 744 948 744 975.5 701 c 128,-1,32
 1003 658 1003 658 1016 612 c 128,-1,33
 1029 566 1029 566 1030 520 c 128,-1,34
 1031 474 1031 474 1023 434 c 0,35,36
 1002 335 1002 335 948.5 252.5 c 128,-1,37
 895 170 895 170 818.5 110 c 128,-1,38
 742 50 742 50 647.5 17 c 128,-1,39
 553 -16 553 -16 450 -16 c 0,40,41
 359 -16 359 -16 280.5 26.5 c 128,-1,42
 202 69 202 69 150.5 148 c 128,-1,43
 99 227 99 227 81 338 c 128,-1,44
 63 449 63 449 92 586 c 0,45,46
 116 699 116 699 169.5 795 c 128,-1,47
 223 891 223 891 294 971 c 128,-1,48
 365 1051 365 1051 447.5 1115.5 c 128,-1,49
 530 1180 530 1180 613.5 1230 c 128,-1,50
 697 1280 697 1280 775 1316 c 128,-1,51
 853 1352 853 1352 914.5 1375.5 c 128,-1,52
 976 1399 976 1399 1014.5 1410 c 128,-1,53
 1053 1421 1053 1421 1057 1421 c 0,54,55
 1072 1421 1072 1421 1069 1405 c 0,56,57
 1067 1396 1067 1396 1036.5 1383.5 c 128,-1,58
 1006 1371 1006 1371 953.5 1347 c 128,-1,59
 901 1323 901 1323 831 1282.5 c 128,-1,60
 761 1242 761 1242 680 1176 c 0,61,62
 625 1131 625 1131 577.5 1083.5 c 128,-1,63
 530 1036 530 1036 488.5 981.5 c 128,-1,64
 447 927 447 927 410 863 c 128,-1,65
 373 799 373 799 340 721 c 1,66,-1
 344 717 l 1,23,24
EndSplineSet
Substitution2: "<17001,16003> Urdu lookup 100 subtable" six
EndChar

StartChar: seven
Encoding: 55 55 26
Width: 1200
GlyphClass: 2
Flags: W
LayerCount: 2
Fore
SplineSet
1146 1389 m 1,0,-1
 1172 1303 l 1,1,2
 1019 1137 1019 1137 903.5 968.5 c 128,-1,3
 788 800 788 800 704 633 c 128,-1,4
 620 466 620 466 564.5 303 c 128,-1,5
 509 140 509 140 476 -16 c 1,6,7
 463 -10 463 -10 440.5 -5 c 128,-1,8
 418 0 418 0 368 0 c 0,9,10
 317 0 317 0 292.5 -5 c 128,-1,11
 268 -10 268 -10 251 -16 c 1,12,13
 292 168 292 168 376 335.5 c 128,-1,14
 460 503 460 503 569 655.5 c 128,-1,15
 678 808 678 808 801.5 944.5 c 128,-1,16
 925 1081 925 1081 1045 1204 c 1,17,-1
 428 1204 l 2,18,19
 383 1204 383 1204 352 1187 c 128,-1,20
 321 1170 321 1170 300.5 1150 c 128,-1,21
 280 1130 280 1130 267 1113 c 128,-1,22
 254 1096 254 1096 245 1096 c 0,23,24
 234 1096 234 1096 232 1099 c 128,-1,25
 230 1102 230 1102 232 1110 c 0,26,27
 234 1116 234 1116 242 1129 c 128,-1,28
 250 1142 250 1142 262 1165 c 1,29,-1
 394 1389 l 1,30,-1
 1146 1389 l 1,0,-1
EndSplineSet
Substitution2: "<17001,16003> Urdu lookup 100 subtable" seven
EndChar

StartChar: eight
Encoding: 56 56 27
Width: 1200
GlyphClass: 2
Flags: W
LayerCount: 2
Fore
SplineSet
455 1118 m 1,0,1
 442 1054 442 1054 462.5 1002 c 128,-1,2
 483 950 483 950 528 907 c 128,-1,3
 573 864 573 864 637.5 828 c 128,-1,4
 702 792 702 792 776 758 c 1,5,6
 850 803 850 803 904 881 c 128,-1,7
 958 959 958 959 983 1077 c 0,8,9
 998 1146 998 1146 988 1200 c 128,-1,10
 978 1254 978 1254 949 1291.5 c 128,-1,11
 920 1329 920 1329 874.5 1348.5 c 128,-1,12
 829 1368 829 1368 772 1368 c 0,13,14
 708 1368 708 1368 654.5 1347 c 128,-1,15
 601 1326 601 1326 560 1291.5 c 128,-1,16
 519 1257 519 1257 492.5 1211.5 c 128,-1,17
 466 1166 466 1166 455 1118 c 1,0,1
165 389 m 0,18,19
 152 326 152 326 159 260.5 c 128,-1,20
 166 195 166 195 197.5 141.5 c 128,-1,21
 229 88 229 88 286.5 54 c 128,-1,22
 344 20 344 20 431 20 c 0,23,24
 501 20 501 20 562.5 40.5 c 128,-1,25
 624 61 624 61 672.5 97.5 c 128,-1,26
 721 134 721 134 754.5 185.5 c 128,-1,27
 788 237 788 237 801 299 c 0,28,29
 815 362 815 362 802.5 409.5 c 128,-1,30
 790 457 790 457 760.5 493.5 c 128,-1,31
 731 530 731 530 688 558.5 c 128,-1,32
 645 587 645 587 597.5 612 c 128,-1,33
 550 637 550 637 502 661 c 128,-1,34
 454 685 454 685 414 713 c 1,35,36
 372 695 372 695 332.5 663 c 128,-1,37
 293 631 293 631 259.5 588.5 c 128,-1,38
 226 546 226 546 201.5 495.5 c 128,-1,39
 177 445 177 445 165 389 c 0,18,19
32 362 m 0,40,41
 46 426 46 426 80.5 482 c 128,-1,42
 115 538 115 538 163 585.5 c 128,-1,43
 211 633 211 633 269 670 c 128,-1,44
 327 707 327 707 387 733 c 1,45,46
 357 756 357 756 328.5 788 c 128,-1,47
 300 820 300 820 280 859 c 128,-1,48
 260 898 260 898 252 943.5 c 128,-1,49
 244 989 244 989 255 1040 c 0,50,51
 272 1118 272 1118 320 1185 c 128,-1,52
 368 1252 368 1252 437.5 1301 c 128,-1,53
 507 1350 507 1350 593.5 1377.5 c 128,-1,54
 680 1405 680 1405 774 1405 c 0,55,56
 847 1405 847 1405 911 1380.5 c 128,-1,57
 975 1356 975 1356 1020 1312.5 c 128,-1,58
 1065 1269 1065 1269 1084.5 1208 c 128,-1,59
 1104 1147 1104 1147 1089 1075 c 0,60,61
 1077 1018 1077 1018 1048 967.5 c 128,-1,62
 1019 917 1019 917 980 875 c 128,-1,63
 941 833 941 833 895 799.5 c 128,-1,64
 849 766 849 766 801 741 c 1,65,66
 867 707 867 707 910.5 664.5 c 128,-1,67
 954 622 954 622 978.5 577 c 128,-1,68
 1003 532 1003 532 1009.5 485.5 c 128,-1,69
 1016 439 1016 439 1007 397 c 0,70,71
 985 294 985 294 925 216.5 c 128,-1,72
 865 139 865 139 783.5 87 c 128,-1,73
 702 35 702 35 607 9.5 c 128,-1,74
 512 -16 512 -16 419 -16 c 0,75,76
 324 -16 324 -16 245.5 14 c 128,-1,77
 167 44 167 44 114 95 c 128,-1,78
 61 146 61 146 38.5 215 c 128,-1,79
 16 284 16 284 32 362 c 0,40,41
EndSplineSet
Substitution2: "<17001,16003> Urdu lookup 100 subtable" eight
EndChar

StartChar: nine
Encoding: 57 57 28
Width: 1200
GlyphClass: 2
Flags: W
LayerCount: 2
Fore
SplineSet
900 913 m 0,0,1
 920 1005 920 1005 923 1086 c 128,-1,2
 926 1167 926 1167 905 1227 c 128,-1,3
 884 1287 884 1287 835.5 1321.5 c 128,-1,4
 787 1356 787 1356 703 1356 c 0,5,6
 573 1356 573 1356 487 1262 c 128,-1,7
 401 1168 401 1168 361 979 c 0,8,9
 343 898 343 898 344 827 c 128,-1,10
 345 756 345 756 367.5 703.5 c 128,-1,11
 390 651 390 651 436.5 620.5 c 128,-1,12
 483 590 483 590 556 590 c 0,13,14
 595 590 595 590 635.5 600.5 c 128,-1,15
 676 611 676 611 714 629.5 c 128,-1,16
 752 648 752 648 785.5 674.5 c 128,-1,17
 819 701 819 701 844 733 c 1,18,19
 849 743 849 743 855.5 757.5 c 128,-1,20
 862 772 862 772 869 793 c 128,-1,21
 876 814 876 814 883.5 843.5 c 128,-1,22
 891 873 891 873 900 913 c 0,0,1
829 672 m 1,23,24
 799 643 799 643 761 619 c 128,-1,25
 723 595 723 595 682 577.5 c 128,-1,26
 641 560 641 560 598 550.5 c 128,-1,27
 555 541 555 541 514 541 c 0,28,29
 433 541 433 541 372 560.5 c 128,-1,30
 311 580 311 580 267.5 612.5 c 128,-1,31
 224 645 224 645 197 687.5 c 128,-1,32
 170 730 170 730 157 776 c 128,-1,33
 144 822 144 822 142.5 868 c 128,-1,34
 141 914 141 914 150 954 c 0,35,36
 171 1053 171 1053 225 1136 c 128,-1,37
 279 1219 279 1219 355.5 1279 c 128,-1,38
 432 1339 432 1339 526 1372 c 128,-1,39
 620 1405 620 1405 723 1405 c 0,40,41
 815 1405 815 1405 893 1362 c 128,-1,42
 971 1319 971 1319 1022.5 1240.5 c 128,-1,43
 1074 1162 1074 1162 1091.5 1051 c 128,-1,44
 1109 940 1109 940 1080 803 c 0,45,46
 1056 690 1056 690 1002.5 594 c 128,-1,47
 949 498 949 498 878 418 c 128,-1,48
 807 338 807 338 724.5 273.5 c 128,-1,49
 642 209 642 209 558.5 158.5 c 128,-1,50
 475 108 475 108 397 72 c 128,-1,51
 319 36 319 36 258 12.5 c 128,-1,52
 197 -11 197 -11 158.5 -22 c 128,-1,53
 120 -33 120 -33 116 -33 c 0,54,55
 101 -33 101 -33 104 -16 c 0,56,57
 106 -7 106 -7 136.5 5 c 128,-1,58
 167 17 167 17 219 41.5 c 128,-1,59
 271 66 271 66 341.5 106.5 c 128,-1,60
 412 147 412 147 493 213 c 0,61,62
 547 258 547 258 594.5 305.5 c 128,-1,63
 642 353 642 353 683.5 407.5 c 128,-1,64
 725 462 725 462 762 526 c 128,-1,65
 799 590 799 590 832 668 c 1,66,-1
 829 672 l 1,23,24
EndSplineSet
Substitution2: "<17001,16003> Urdu lookup 100 subtable" nine
EndChar

StartChar: colon
Encoding: 58 58 29
Width: 617
GlyphClass: 2
Flags: W
LayerCount: 2
Fore
SplineSet
171 807 m 0,0,1
 176 831 176 831 190 851 c 128,-1,2
 204 871 204 871 222 885.5 c 128,-1,3
 240 900 240 900 261.5 908 c 128,-1,4
 283 916 283 916 303 916 c 256,5,6
 323 916 323 916 340.5 908 c 128,-1,7
 358 900 358 900 370.5 885.5 c 128,-1,8
 383 871 383 871 388 851 c 128,-1,9
 393 831 393 831 388 807 c 0,10,11
 383 784 383 784 369.5 764 c 128,-1,12
 356 744 356 744 337.5 729.5 c 128,-1,13
 319 715 319 715 298 706.5 c 128,-1,14
 277 698 277 698 257 698 c 256,15,16
 237 698 237 698 219 706.5 c 128,-1,17
 201 715 201 715 189 729.5 c 128,-1,18
 177 744 177 744 171.5 764 c 128,-1,19
 166 784 166 784 171 807 c 0,0,1
36 172 m 0,20,21
 41 196 41 196 55 216 c 128,-1,22
 69 236 69 236 87 250.5 c 128,-1,23
 105 265 105 265 126.5 273 c 128,-1,24
 148 281 148 281 168 281 c 256,25,26
 188 281 188 281 205.5 273 c 128,-1,27
 223 265 223 265 235.5 250.5 c 128,-1,28
 248 236 248 236 253 216 c 128,-1,29
 258 196 258 196 253 172 c 0,30,31
 248 149 248 149 234.5 129.5 c 128,-1,32
 221 110 221 110 202.5 95.5 c 128,-1,33
 184 81 184 81 163 72.5 c 128,-1,34
 142 64 142 64 122 64 c 256,35,36
 102 64 102 64 84 72.5 c 128,-1,37
 66 81 66 81 54 95.5 c 128,-1,38
 42 110 42 110 36.5 129.5 c 128,-1,39
 31 149 31 149 36 172 c 0,20,21
EndSplineSet
Substitution2: "<17001,16003> Urdu lookup 100 subtable" colon
EndChar

StartChar: semicolon
Encoding: 59 59 30
Width: 569
GlyphClass: 2
Flags: W
LayerCount: 2
Fore
SplineSet
197 807 m 0,0,1
 202 831 202 831 216 851 c 128,-1,2
 230 871 230 871 248 885.5 c 128,-1,3
 266 900 266 900 287.5 908 c 128,-1,4
 309 916 309 916 329 916 c 256,5,6
 349 916 349 916 366.5 908 c 128,-1,7
 384 900 384 900 396.5 885.5 c 128,-1,8
 409 871 409 871 414 851 c 128,-1,9
 419 831 419 831 414 807 c 0,10,11
 409 784 409 784 395.5 764 c 128,-1,12
 382 744 382 744 363.5 729.5 c 128,-1,13
 345 715 345 715 324 706.5 c 128,-1,14
 303 698 303 698 283 698 c 256,15,16
 263 698 263 698 245 706.5 c 128,-1,17
 227 715 227 715 215 729.5 c 128,-1,18
 203 744 203 744 197.5 764 c 128,-1,19
 192 784 192 784 197 807 c 0,0,1
54 172 m 0,20,21
 59 193 59 193 70.5 212.5 c 128,-1,22
 82 232 82 232 100 247 c 128,-1,23
 118 262 118 262 142.5 271.5 c 128,-1,24
 167 281 167 281 196 281 c 0,25,26
 232 281 232 281 257 266 c 128,-1,27
 282 251 282 251 295.5 225 c 128,-1,28
 309 199 309 199 312 164 c 128,-1,29
 315 129 315 129 306 88 c 0,30,31
 297 44 297 44 273 -2.5 c 128,-1,32
 249 -49 249 -49 218.5 -93 c 128,-1,33
 188 -137 188 -137 153 -175.5 c 128,-1,34
 118 -214 118 -214 86 -243 c 128,-1,35
 54 -272 54 -272 28.5 -288.5 c 128,-1,36
 3 -305 3 -305 -10 -305 c 0,37,38
 -18 -305 -18 -305 -24 -302.5 c 128,-1,39
 -30 -300 -30 -300 -28 -289 c 0,40,41
 -26 -280 -26 -280 -11.5 -265.5 c 128,-1,42
 3 -251 3 -251 24.5 -232 c 128,-1,43
 46 -213 46 -213 71.5 -188.5 c 128,-1,44
 97 -164 97 -164 120.5 -135.5 c 128,-1,45
 144 -107 144 -107 162.5 -74 c 128,-1,46
 181 -41 181 -41 189 -4 c 0,47,48
 194 21 194 21 192.5 41.5 c 128,-1,49
 191 62 191 62 169 68 c 0,50,51
 153 73 153 73 130.5 76.5 c 128,-1,52
 108 80 108 80 88.5 89.5 c 128,-1,53
 69 99 69 99 58 118 c 128,-1,54
 47 137 47 137 54 172 c 0,20,21
EndSplineSet
Substitution2: "<17001,16003> Urdu lookup 100 subtable" semicolon
EndChar

StartChar: less
Encoding: 60 60 31
Width: 1200
GlyphClass: 2
Flags: W
LayerCount: 2
Fore
SplineSet
1063 807 m 1,0,-1
 301 465 l 1,1,-1
 1063 123 l 1,2,-1
 1063 -16 l 1,3,-1
 134 397 l 1,4,-1
 134 532 l 1,5,-1
 1063 946 l 1,6,-1
 1063 807 l 1,0,-1
EndSplineSet
Substitution2: "<17001,16003> Urdu lookup 100 subtable" less
EndChar

StartChar: equal
Encoding: 61 61 32
Width: 1200
GlyphClass: 2
Flags: W
LayerCount: 2
Fore
SplineSet
1063 207 m 1,0,-1
 134 207 l 1,1,-1
 134 346 l 1,2,-1
 1063 346 l 1,3,-1
 1063 207 l 1,0,-1
1063 584 m 1,4,-1
 134 584 l 1,5,-1
 134 723 l 1,6,-1
 1063 723 l 1,7,-1
 1063 584 l 1,4,-1
EndSplineSet
Substitution2: "<17001,16003> Urdu lookup 100 subtable" equal
EndChar

StartChar: greater
Encoding: 62 62 33
Width: 1200
GlyphClass: 2
Flags: W
LayerCount: 2
Fore
SplineSet
134 946 m 1,0,-1
 1063 532 l 1,1,-1
 1063 397 l 1,2,-1
 134 -16 l 1,3,-1
 134 123 l 1,4,-1
 895 465 l 1,5,-1
 134 807 l 1,6,-1
 134 946 l 1,0,-1
EndSplineSet
Substitution2: "<17001,16003> Urdu lookup 100 subtable" greater
EndChar

StartChar: question
Encoding: 63 63 34
Width: 1022
GlyphClass: 2
Flags: W
LayerCount: 2
Fore
SplineSet
826 1171 m 1,0,1
 813 1118 813 1118 778.5 1065 c 128,-1,2
 744 1012 744 1012 699 957.5 c 128,-1,3
 654 903 654 903 602 846 c 128,-1,4
 550 789 550 789 502 728 c 0,5,6
 475 694 475 694 450 655.5 c 128,-1,7
 425 617 425 617 404 579 c 128,-1,8
 383 541 383 541 368 504.5 c 128,-1,9
 353 468 353 468 345 438 c 1,10,-1
 301 438 l 1,11,12
 307 458 307 458 316 487 c 128,-1,13
 325 516 325 516 336 549.5 c 128,-1,14
 347 583 347 583 360 618.5 c 128,-1,15
 373 654 373 654 385.5 686.5 c 128,-1,16
 398 719 398 719 410 746 c 128,-1,17
 422 773 422 773 431 790 c 0,18,19
 451 825 451 825 481.5 868 c 128,-1,20
 512 911 512 911 543.5 959 c 128,-1,21
 575 1007 575 1007 601.5 1057.5 c 128,-1,22
 628 1108 628 1108 639 1158 c 0,23,24
 649 1207 649 1207 647 1256 c 128,-1,25
 645 1305 645 1305 627.5 1344 c 128,-1,26
 610 1383 610 1383 576.5 1407.5 c 128,-1,27
 543 1432 543 1432 490 1432 c 0,28,29
 460 1432 460 1432 426 1420 c 128,-1,30
 392 1408 392 1408 363 1390 c 128,-1,31
 334 1372 334 1372 313.5 1350.5 c 128,-1,32
 293 1329 293 1329 289 1310 c 0,33,34
 287 1300 287 1300 295 1281.5 c 128,-1,35
 303 1263 303 1263 313 1240.5 c 128,-1,36
 323 1218 323 1218 330.5 1195 c 128,-1,37
 338 1172 338 1172 334 1154 c 256,38,39
 330 1136 330 1136 320 1120 c 128,-1,40
 310 1104 310 1104 295.5 1091.5 c 128,-1,41
 281 1079 281 1079 264 1072 c 128,-1,42
 247 1065 247 1065 229 1065 c 0,43,44
 209 1065 209 1065 192.5 1074 c 128,-1,45
 176 1083 176 1083 165.5 1101 c 128,-1,46
 155 1119 155 1119 152 1145.5 c 128,-1,47
 149 1172 149 1172 156 1207 c 0,48,49
 167 1257 167 1257 199.5 1309.5 c 128,-1,50
 232 1362 232 1362 284 1405 c 128,-1,51
 336 1448 336 1448 405.5 1476 c 128,-1,52
 475 1504 475 1504 558 1504 c 0,53,54
 633 1504 633 1504 690.5 1481.5 c 128,-1,55
 748 1459 748 1459 783.5 1416.5 c 128,-1,56
 819 1374 819 1374 831 1312 c 128,-1,57
 843 1250 843 1250 826 1171 c 1,0,1
375 172 m 0,58,59
 370 149 370 149 356.5 129.5 c 128,-1,60
 343 110 343 110 324.5 95.5 c 128,-1,61
 306 81 306 81 285 72.5 c 128,-1,62
 264 64 264 64 244 64 c 256,63,64
 224 64 224 64 206 72.5 c 128,-1,65
 188 81 188 81 176 95.5 c 128,-1,66
 164 110 164 110 158.5 129.5 c 128,-1,67
 153 149 153 149 158 172 c 0,68,69
 163 196 163 196 177 216 c 128,-1,70
 191 236 191 236 209 250.5 c 128,-1,71
 227 265 227 265 248.5 273 c 128,-1,72
 270 281 270 281 290 281 c 256,73,74
 310 281 310 281 327.5 273 c 128,-1,75
 345 265 345 265 357.5 250.5 c 128,-1,76
 370 236 370 236 375 216 c 128,-1,77
 380 196 380 196 375 172 c 0,58,59
EndSplineSet
Substitution2: "<17001,16003> Urdu lookup 100 subtable" question
EndChar

StartChar: at
Encoding: 64 64 35
Width: 1638
GlyphClass: 2
Flags: W
LayerCount: 2
Fore
SplineSet
1107 1040 m 1,0,-1
 1248 1040 l 1,1,-1
 1127 578 l 2,2,3
 1119 546 1119 546 1113 513.5 c 128,-1,4
 1107 481 1107 481 1107 446 c 0,5,6
 1107 431 1107 431 1111 416.5 c 128,-1,7
 1115 402 1115 402 1124.5 390.5 c 128,-1,8
 1134 379 1134 379 1150 372 c 128,-1,9
 1166 365 1166 365 1189 365 c 0,10,11
 1235 365 1235 365 1274 384.5 c 128,-1,12
 1313 404 1313 404 1345 436.5 c 128,-1,13
 1377 469 1377 469 1401.5 512.5 c 128,-1,14
 1426 556 1426 556 1442.5 604 c 128,-1,15
 1459 652 1459 652 1467.5 702.5 c 128,-1,16
 1476 753 1476 753 1476 799 c 0,17,18
 1476 917 1476 917 1431.5 1021.5 c 128,-1,19
 1387 1126 1387 1126 1306 1204 c 128,-1,20
 1225 1282 1225 1282 1110.5 1327 c 128,-1,21
 996 1372 996 1372 855 1372 c 0,22,23
 728 1372 728 1372 618 1319.5 c 128,-1,24
 508 1267 508 1267 426.5 1174.5 c 128,-1,25
 345 1082 345 1082 298 955.5 c 128,-1,26
 251 829 251 829 251 680 c 0,27,28
 251 543 251 543 295 426 c 128,-1,29
 339 309 339 309 420 223.5 c 128,-1,30
 501 138 501 138 616.5 89.5 c 128,-1,31
 732 41 732 41 876 41 c 0,32,33
 941 41 941 41 998.5 49 c 128,-1,34
 1056 57 1056 57 1107.5 70.5 c 128,-1,35
 1159 84 1159 84 1205 102 c 128,-1,36
 1251 120 1251 120 1293 141 c 1,37,-1
 1320 82 l 1,38,39
 1279 60 1279 60 1226.5 39 c 128,-1,40
 1174 18 1174 18 1114 2 c 128,-1,41
 1054 -14 1054 -14 990 -23.5 c 128,-1,42
 926 -33 926 -33 861 -33 c 0,43,44
 755 -33 755 -33 656 -8.5 c 128,-1,45
 557 16 557 16 471 61.5 c 128,-1,46
 385 107 385 107 314.5 171 c 128,-1,47
 244 235 244 235 193.5 314.5 c 128,-1,48
 143 394 143 394 115 486.5 c 128,-1,49
 87 579 87 579 87 680 c 0,50,51
 87 783 87 783 112.5 877.5 c 128,-1,52
 138 972 138 972 185.5 1054.5 c 128,-1,53
 233 1137 233 1137 301 1204.5 c 128,-1,54
 369 1272 369 1272 454.5 1320 c 128,-1,55
 540 1368 540 1368 641 1394.5 c 128,-1,56
 742 1421 742 1421 855 1421 c 0,57,58
 954 1421 954 1421 1043.5 1400 c 128,-1,59
 1133 1379 1133 1379 1210.5 1339.5 c 128,-1,60
 1288 1300 1288 1300 1350.5 1244.5 c 128,-1,61
 1413 1189 1413 1189 1457 1120 c 128,-1,62
 1501 1051 1501 1051 1525 970.5 c 128,-1,63
 1549 890 1549 890 1549 801 c 0,64,65
 1549 747 1549 747 1537.5 689 c 128,-1,66
 1526 631 1526 631 1503 575.5 c 128,-1,67
 1480 520 1480 520 1447 469.5 c 128,-1,68
 1414 419 1414 419 1370 381.5 c 128,-1,69
 1326 344 1326 344 1272.5 321.5 c 128,-1,70
 1219 299 1219 299 1156 299 c 0,71,72
 1103 299 1103 299 1067 318.5 c 128,-1,73
 1031 338 1031 338 1009 363.5 c 128,-1,74
 987 389 987 389 977.5 414 c 128,-1,75
 968 439 968 439 968 449 c 1,76,-1
 964 449 l 1,77,78
 949 422 949 422 926 395 c 128,-1,79
 903 368 903 368 872.5 347 c 128,-1,80
 842 326 842 326 804.5 312.5 c 128,-1,81
 767 299 767 299 722 299 c 0,82,83
 626 299 626 299 571.5 365.5 c 128,-1,84
 517 432 517 432 517 553 c 0,85,86
 517 605 517 605 530.5 663.5 c 128,-1,87
 544 722 544 722 569 779 c 128,-1,88
 594 836 594 836 630.5 887.5 c 128,-1,89
 667 939 667 939 713 978.5 c 128,-1,90
 759 1018 759 1018 814.5 1041.5 c 128,-1,91
 870 1065 870 1065 933 1065 c 0,92,93
 963 1065 963 1065 988 1056 c 128,-1,94
 1013 1047 1013 1047 1031.5 1031.5 c 128,-1,95
 1050 1016 1050 1016 1063 996.5 c 128,-1,96
 1076 977 1076 977 1082 956 c 1,97,-1
 1086 956 l 1,98,-1
 1107 1040 l 1,0,-1
779 385 m 0,99,100
 818 385 818 385 853 408 c 128,-1,101
 888 431 888 431 918.5 469 c 128,-1,102
 949 507 949 507 973.5 556 c 128,-1,103
 998 605 998 605 1015.5 658 c 128,-1,104
 1033 711 1033 711 1042.5 763 c 128,-1,105
 1052 815 1052 815 1052 858 c 0,106,107
 1052 911 1052 911 1024 945 c 128,-1,108
 996 979 996 979 939 979 c 0,109,110
 890 979 890 979 840.5 941.5 c 128,-1,111
 791 904 791 904 751 843.5 c 128,-1,112
 711 783 711 783 686 707 c 128,-1,113
 661 631 661 631 661 555 c 0,114,115
 661 508 661 508 669.5 475.5 c 128,-1,116
 678 443 678 443 694 423 c 128,-1,117
 710 403 710 403 731.5 394 c 128,-1,118
 753 385 753 385 779 385 c 0,99,100
EndSplineSet
Substitution2: "<17001,16003> Urdu lookup 100 subtable" at
EndChar

StartChar: A
Encoding: 65 65 36
Width: 1366
GlyphClass: 2
Flags: W
LayerCount: 2
Fore
SplineSet
699 1135 m 1,0,-1
 379 561 l 1,1,-1
 811 561 l 1,2,-1
 699 1135 l 1,0,-1
354 524 m 1,3,-1
 294 406 l 2,4,5
 268 356 268 356 251 309 c 128,-1,6
 234 262 234 262 226 227 c 0,7,8
 219 196 219 196 219.5 172 c 128,-1,9
 220 148 220 148 226.5 129 c 128,-1,10
 233 110 233 110 245.5 95.5 c 128,-1,11
 258 81 258 81 276 68 c 0,12,13
 291 57 291 57 306 52.5 c 128,-1,14
 321 48 321 48 333 44.5 c 128,-1,15
 345 41 345 41 351.5 37 c 128,-1,16
 358 33 358 33 356 23 c 0,17,18
 353 9 353 9 344 2.5 c 128,-1,19
 335 -4 335 -4 310 -4 c 0,20,21
 300 -4 300 -4 283.5 -3.5 c 128,-1,22
 267 -3 267 -3 241 -2 c 128,-1,23
 215 -1 215 -1 177.5 -0.5 c 128,-1,24
 140 0 140 0 88 0 c 0,25,26
 40 0 40 0 5.5 -0.5 c 128,-1,27
 -29 -1 -29 -1 -55 -2 c 128,-1,28
 -81 -3 -81 -3 -103 -3.5 c 128,-1,29
 -125 -4 -125 -4 -149 -4 c 0,30,31
 -165 -4 -165 -4 -171 3 c 128,-1,32
 -177 10 -177 10 -175 18 c 0,33,34
 -172 33 -172 33 -158 37.5 c 128,-1,35
 -144 42 -144 42 -120 48 c 128,-1,36
 -96 54 -96 54 -63 68.5 c 128,-1,37
 -30 83 -30 83 12 119 c 0,38,39
 71 170 71 170 134 256 c 128,-1,40
 197 342 197 342 263 455 c 2,41,-1
 681 1174 l 1,42,43
 665 1197 665 1197 648.5 1210.5 c 128,-1,44
 632 1224 632 1224 633 1231 c 0,45,46
 633 1233 633 1233 644 1241 c 128,-1,47
 655 1249 655 1249 671.5 1263 c 128,-1,48
 688 1277 688 1277 708.5 1297 c 128,-1,49
 729 1317 729 1317 749 1343 c 0,50,51
 775 1376 775 1376 788 1398.5 c 128,-1,52
 801 1421 801 1421 808 1434 c 128,-1,53
 815 1447 815 1447 818.5 1452.5 c 128,-1,54
 822 1458 822 1458 829 1458 c 0,55,56
 840 1458 840 1458 841 1444 c 128,-1,57
 842 1430 842 1430 847 1399 c 1,58,-1
 1091 156 l 2,59,60
 1098 120 1098 120 1112 99.5 c 128,-1,61
 1126 79 1126 79 1142 68 c 128,-1,62
 1158 57 1158 57 1174.5 53 c 128,-1,63
 1191 49 1191 49 1203.5 45.5 c 128,-1,64
 1216 42 1216 42 1223.5 37.5 c 128,-1,65
 1231 33 1231 33 1228 20 c 0,66,67
 1225 8 1225 8 1217 2 c 128,-1,68
 1209 -4 1209 -4 1190 -4 c 0,69,70
 1182 -4 1182 -4 1166 -3.5 c 128,-1,71
 1150 -3 1150 -3 1120.5 -2 c 128,-1,72
 1091 -1 1091 -1 1045 -0.5 c 128,-1,73
 999 0 999 0 931 0 c 0,74,75
 883 0 883 0 850 -0.5 c 128,-1,76
 817 -1 817 -1 794 -2 c 128,-1,77
 771 -3 771 -3 757 -3.5 c 128,-1,78
 743 -4 743 -4 734 -4 c 0,79,80
 715 -4 715 -4 710.5 3.5 c 128,-1,81
 706 11 706 11 708 20 c 0,82,83
 711 33 711 33 722.5 38.5 c 128,-1,84
 734 44 734 44 750.5 47 c 128,-1,85
 767 50 767 50 786 52.5 c 128,-1,86
 805 55 805 55 822.5 63 c 128,-1,87
 840 71 840 71 854 86 c 128,-1,88
 868 101 868 101 874 129 c 0,89,90
 881 160 881 160 879.5 187.5 c 128,-1,91
 878 215 878 215 870 252 c 2,92,-1
 817 524 l 1,93,-1
 354 524 l 1,3,-1
EndSplineSet
Substitution2: "<17001,16003> Urdu lookup 100 subtable" A
EndChar

StartChar: B
Encoding: 66 66 37
Width: 1290
GlyphClass: 2
Flags: W
LayerCount: 2
Fore
SplineSet
453 717 m 1,0,-1
 346 215 l 2,1,2
 335 164 335 164 338 131 c 128,-1,3
 341 98 341 98 361 79 c 128,-1,4
 381 60 381 60 421 52.5 c 128,-1,5
 461 45 461 45 525 45 c 0,6,7
 604 45 604 45 671.5 61.5 c 128,-1,8
 739 78 739 78 792.5 117 c 128,-1,9
 846 156 846 156 883.5 219 c 128,-1,10
 921 282 921 282 941 375 c 0,11,12
 1013 717 1013 717 582 717 c 2,13,-1
 453 717 l 1,0,-1
361 1212 m 2,14,15
 371 1257 371 1257 362.5 1281.5 c 128,-1,16
 354 1306 354 1306 336.5 1318 c 128,-1,17
 319 1330 319 1330 296.5 1333.5 c 128,-1,18
 274 1337 274 1337 254.5 1339.5 c 128,-1,19
 235 1342 235 1342 223 1347 c 128,-1,20
 211 1352 211 1352 214 1368 c 0,21,22
 216 1377 216 1377 224 1385 c 128,-1,23
 232 1393 232 1393 246 1393 c 0,24,25
 265 1393 265 1393 285 1392.5 c 128,-1,26
 305 1392 305 1392 333 1391 c 128,-1,27
 361 1390 361 1390 400.5 1389.5 c 128,-1,28
 440 1389 440 1389 497 1389 c 0,29,30
 539 1389 539 1389 576 1389.5 c 128,-1,31
 613 1390 613 1390 650 1391 c 128,-1,32
 687 1392 687 1392 724.5 1392.5 c 128,-1,33
 762 1393 762 1393 805 1393 c 0,34,35
 935 1393 935 1393 1022 1365 c 128,-1,36
 1109 1337 1109 1337 1158.5 1289.5 c 128,-1,37
 1208 1242 1208 1242 1223 1180.5 c 128,-1,38
 1238 1119 1238 1119 1224 1051 c 0,39,40
 1209 979 1209 979 1165.5 923 c 128,-1,41
 1122 867 1122 867 1057 827.5 c 128,-1,42
 992 788 992 788 907 765 c 128,-1,43
 822 742 822 742 723 735 c 1,44,-1
 722 731 l 1,45,46
 832 727 832 727 918.5 701.5 c 128,-1,47
 1005 676 1005 676 1061.5 631 c 128,-1,48
 1118 586 1118 586 1141 522 c 128,-1,49
 1164 458 1164 458 1147 377 c 0,50,51
 1124 269 1124 269 1068.5 195.5 c 128,-1,52
 1013 122 1013 122 934.5 78 c 128,-1,53
 856 34 856 34 759.5 15 c 128,-1,54
 663 -4 663 -4 556 -4 c 0,55,56
 465 -4 465 -4 378.5 -2 c 128,-1,57
 292 0 292 0 202 0 c 0,58,59
 145 0 145 0 105 -0.5 c 128,-1,60
 65 -1 65 -1 36.5 -2 c 128,-1,61
 8 -3 8 -3 -12 -3.5 c 128,-1,62
 -32 -4 -32 -4 -51 -4 c 0,63,64
 -65 -4 -65 -4 -69.5 3.5 c 128,-1,65
 -74 11 -74 11 -72 20 c 0,66,67
 -69 36 -69 36 -54.5 41.5 c 128,-1,68
 -40 47 -40 47 -19.5 49.5 c 128,-1,69
 1 52 1 52 25 55.5 c 128,-1,70
 49 59 49 59 71.5 71 c 128,-1,71
 94 83 94 83 113 107.5 c 128,-1,72
 132 132 132 132 141 176 c 2,73,-1
 361 1212 l 2,14,15
461 754 m 1,74,-1
 602 754 l 2,75,76
 777 754 777 754 886 826 c 128,-1,77
 995 898 995 898 1029 1059 c 0,78,79
 1044 1133 1044 1133 1032 1186.5 c 128,-1,80
 1020 1240 1020 1240 985.5 1274.5 c 128,-1,81
 951 1309 951 1309 896 1326 c 128,-1,82
 841 1343 841 1343 770 1343 c 2,83,-1
 586 1343 l 1,84,-1
 461 754 l 1,74,-1
EndSplineSet
Substitution2: "<17001,16003> Urdu lookup 100 subtable" B
EndChar

StartChar: C
Encoding: 67 67 38
AltUni2: 00216d.ffffffff.0
Width: 1442
GlyphClass: 2
Flags: W
LayerCount: 2
Fore
SplineSet
1330 868 m 2,0,1
 1326 851 1326 851 1318 843.5 c 128,-1,2
 1310 836 1310 836 1299 836 c 0,3,4
 1282 836 1282 836 1280.5 856.5 c 128,-1,5
 1279 877 1279 877 1281 924 c 0,6,7
 1285 1011 1285 1011 1263 1091.5 c 128,-1,8
 1241 1172 1241 1172 1194 1234.5 c 128,-1,9
 1147 1297 1147 1297 1075.5 1334.5 c 128,-1,10
 1004 1372 1004 1372 909 1372 c 0,11,12
 812 1372 812 1372 720 1328 c 128,-1,13
 628 1284 628 1284 550 1198 c 128,-1,14
 472 1112 472 1112 411.5 985.5 c 128,-1,15
 351 859 351 859 316 694 c 0,16,17
 289 565 289 565 286.5 464 c 128,-1,18
 284 363 284 363 300.5 288 c 128,-1,19
 317 213 317 213 349.5 161 c 128,-1,20
 382 109 382 109 423.5 77 c 128,-1,21
 465 45 465 45 513 30.5 c 128,-1,22
 561 16 561 16 609 16 c 0,23,24
 715 16 715 16 807.5 51.5 c 128,-1,25
 900 87 900 87 976 148.5 c 128,-1,26
 1052 210 1052 210 1109.5 293 c 128,-1,27
 1167 376 1167 376 1203 471 c 1,28,29
 1219 518 1219 518 1238 518 c 0,30,31
 1249 518 1249 518 1254 510 c 128,-1,32
 1259 502 1259 502 1256 485 c 2,33,-1
 1153 0 l 2,34,35
 1149 -17 1149 -17 1139.5 -25 c 128,-1,36
 1130 -33 1130 -33 1116 -33 c 0,37,38
 1100 -33 1100 -33 1096 -18 c 128,-1,39
 1092 -3 1092 -3 1087.5 15 c 128,-1,40
 1083 33 1083 33 1072 48 c 128,-1,41
 1061 63 1061 63 1030 63 c 0,42,43
 1003 63 1003 63 965.5 48 c 128,-1,44
 928 33 928 33 875 15 c 128,-1,45
 822 -3 822 -3 750 -18 c 128,-1,46
 678 -33 678 -33 581 -33 c 0,47,48
 485 -33 485 -33 406 -6.5 c 128,-1,49
 327 20 327 20 265.5 68 c 128,-1,50
 204 116 204 116 161 183 c 128,-1,51
 118 250 118 250 95.5 331 c 128,-1,52
 73 412 73 412 71.5 504 c 128,-1,53
 70 596 70 596 91 694 c 0,54,55
 113 797 113 797 161 891 c 128,-1,56
 209 985 209 985 275 1065.5 c 128,-1,57
 341 1146 341 1146 420.5 1212 c 128,-1,58
 500 1278 500 1278 584.5 1324.5 c 128,-1,59
 669 1371 669 1371 754 1396 c 128,-1,60
 839 1421 839 1421 916 1421 c 0,61,62
 1002 1421 1002 1421 1064 1403.5 c 128,-1,63
 1126 1386 1126 1386 1172 1365 c 128,-1,64
 1218 1344 1218 1344 1251 1326.5 c 128,-1,65
 1284 1309 1284 1309 1312 1309 c 0,66,67
 1332 1309 1332 1309 1343.5 1316.5 c 128,-1,68
 1355 1324 1355 1324 1363 1336 c 128,-1,69
 1371 1348 1371 1348 1376 1361 c 128,-1,70
 1381 1374 1381 1374 1386.5 1386 c 128,-1,71
 1392 1398 1392 1398 1400 1405.5 c 128,-1,72
 1408 1413 1408 1413 1422 1413 c 0,73,74
 1433 1413 1433 1413 1438 1405 c 128,-1,75
 1443 1397 1443 1397 1439 1380 c 2,76,-1
 1330 868 l 2,0,1
EndSplineSet
Substitution2: "<17001,16003> Urdu lookup 100 subtable" C
EndChar

StartChar: D
Encoding: 68 68 39
AltUni2: 00216e.ffffffff.0
Width: 1442
GlyphClass: 2
Flags: W
LayerCount: 2
Fore
SplineSet
362 287 m 2,0,1
 348 221 348 221 348 175 c 128,-1,2
 348 129 348 129 369.5 100 c 128,-1,3
 391 71 391 71 437 58 c 128,-1,4
 483 45 483 45 559 45 c 0,5,6
 644 45 644 45 715 69.5 c 128,-1,7
 786 94 786 94 844.5 137 c 128,-1,8
 903 180 903 180 949 237.5 c 128,-1,9
 995 295 995 295 1030 361 c 128,-1,10
 1065 427 1065 427 1089 498 c 128,-1,11
 1113 569 1113 569 1128 639 c 0,12,13
 1163 805 1163 805 1158.5 935.5 c 128,-1,14
 1154 1066 1154 1066 1105 1156.5 c 128,-1,15
 1056 1247 1056 1247 960.5 1295 c 128,-1,16
 865 1343 865 1343 719 1343 c 2,17,-1
 586 1343 l 1,18,-1
 362 287 l 2,0,1
361 1212 m 2,19,20
 371 1257 371 1257 362.5 1281.5 c 128,-1,21
 354 1306 354 1306 336.5 1318 c 128,-1,22
 319 1330 319 1330 296.5 1333.5 c 128,-1,23
 274 1337 274 1337 254.5 1339.5 c 128,-1,24
 235 1342 235 1342 223 1347 c 128,-1,25
 211 1352 211 1352 214 1368 c 0,26,27
 216 1377 216 1377 224 1385 c 128,-1,28
 232 1393 232 1393 246 1393 c 0,29,30
 265 1393 265 1393 285 1392.5 c 128,-1,31
 305 1392 305 1392 333 1391 c 128,-1,32
 361 1390 361 1390 400.5 1389.5 c 128,-1,33
 440 1389 440 1389 497 1389 c 0,34,35
 520 1389 520 1389 548.5 1389.5 c 128,-1,36
 577 1390 577 1390 607 1391 c 128,-1,37
 637 1392 637 1392 665.5 1392.5 c 128,-1,38
 694 1393 694 1393 717 1393 c 0,39,40
 852 1393 852 1393 956 1366.5 c 128,-1,41
 1060 1340 1060 1340 1136.5 1292.5 c 128,-1,42
 1213 1245 1213 1245 1262 1179 c 128,-1,43
 1311 1113 1311 1113 1335.5 1033 c 128,-1,44
 1360 953 1360 953 1361 862.5 c 128,-1,45
 1362 772 1362 772 1341 676 c 0,46,47
 1310 531 1310 531 1239.5 406.5 c 128,-1,48
 1169 282 1169 282 1063.5 191 c 128,-1,49
 958 100 958 100 820 48 c 128,-1,50
 682 -4 682 -4 517 -4 c 0,51,52
 473 -4 473 -4 436.5 -3.5 c 128,-1,53
 400 -3 400 -3 364 -2 c 128,-1,54
 328 -1 328 -1 289 -0.5 c 128,-1,55
 250 0 250 0 202 0 c 0,56,57
 145 0 145 0 105 -0.5 c 128,-1,58
 65 -1 65 -1 36.5 -2 c 128,-1,59
 8 -3 8 -3 -12 -3.5 c 128,-1,60
 -32 -4 -32 -4 -51 -4 c 0,61,62
 -65 -4 -65 -4 -69.5 3.5 c 128,-1,63
 -74 11 -74 11 -72 20 c 0,64,65
 -69 36 -69 36 -54.5 41.5 c 128,-1,66
 -40 47 -40 47 -19.5 49.5 c 128,-1,67
 1 52 1 52 25 55.5 c 128,-1,68
 49 59 49 59 71.5 71 c 128,-1,69
 94 83 94 83 113 107.5 c 128,-1,70
 132 132 132 132 141 176 c 2,71,-1
 361 1212 l 2,19,20
EndSplineSet
Substitution2: "<17001,16003> Urdu lookup 100 subtable" D
EndChar

StartChar: E
Encoding: 69 69 40
Width: 1290
GlyphClass: 2
Flags: W
LayerCount: 2
Fore
SplineSet
361 1212 m 2,0,1
 371 1257 371 1257 362.5 1281.5 c 128,-1,2
 354 1306 354 1306 336.5 1318 c 128,-1,3
 319 1330 319 1330 296.5 1333.5 c 128,-1,4
 274 1337 274 1337 254.5 1339.5 c 128,-1,5
 235 1342 235 1342 223 1347 c 128,-1,6
 211 1352 211 1352 214 1368 c 0,7,8
 216 1377 216 1377 224 1385 c 128,-1,9
 232 1393 232 1393 246 1393 c 0,10,11
 265 1393 265 1393 285 1392.5 c 128,-1,12
 305 1392 305 1392 333 1391 c 128,-1,13
 361 1390 361 1390 400.5 1389.5 c 128,-1,14
 440 1389 440 1389 497 1389 c 0,15,16
 592 1389 592 1389 664 1389 c 128,-1,17
 736 1389 736 1389 793.5 1389.5 c 128,-1,18
 851 1390 851 1390 898.5 1390.5 c 128,-1,19
 946 1391 946 1391 990.5 1391.5 c 128,-1,20
 1035 1392 1035 1392 1081.5 1392.5 c 128,-1,21
 1128 1393 1128 1393 1184 1393 c 1,22,-1
 1228 1006 l 2,23,24
 1231 980 1231 980 1232 969 c 128,-1,25
 1233 958 1233 958 1231 950 c 256,26,27
 1229 942 1229 942 1223.5 937 c 128,-1,28
 1218 932 1218 932 1207 932 c 256,29,30
 1196 932 1196 932 1192 943.5 c 128,-1,31
 1188 955 1188 955 1182 983 c 1,32,33
 1160 1108 1160 1108 1112.5 1180 c 128,-1,34
 1065 1252 1065 1252 991 1288 c 128,-1,35
 917 1324 917 1324 816 1333.5 c 128,-1,36
 715 1343 715 1343 586 1343 c 1,37,-1
 461 754 l 1,38,39
 534 754 534 754 598 766.5 c 128,-1,40
 662 779 662 779 714 809.5 c 128,-1,41
 766 840 766 840 802.5 892.5 c 128,-1,42
 839 945 839 945 856 1026 c 0,43,44
 861 1048 861 1048 867 1057.5 c 128,-1,45
 873 1067 873 1067 885 1067 c 0,46,47
 899 1067 899 1067 900.5 1057.5 c 128,-1,48
 902 1048 902 1048 897 1026 c 2,49,-1
 769 424 l 2,50,51
 764 402 764 402 759 392.5 c 128,-1,52
 754 383 754 383 740 383 c 0,53,54
 718 383 718 383 728 424 c 1,55,56
 746 508 746 508 732.5 564 c 128,-1,57
 719 620 719 620 681 654 c 128,-1,58
 643 688 643 688 584.5 702.5 c 128,-1,59
 526 717 526 717 453 717 c 1,60,-1
 338 176 l 2,61,62
 331 142 331 142 332.5 117 c 128,-1,63
 334 92 334 92 348 76 c 128,-1,64
 362 60 362 60 391 52.5 c 128,-1,65
 420 45 420 45 467 45 c 0,66,67
 567 45 567 45 658.5 73.5 c 128,-1,68
 750 102 750 102 830 151.5 c 128,-1,69
 910 201 910 201 977 268.5 c 128,-1,70
 1044 336 1044 336 1094 414 c 0,71,72
 1118 452 1118 452 1131.5 476.5 c 128,-1,73
 1145 501 1145 501 1153 515 c 128,-1,74
 1161 529 1161 529 1166.5 535 c 128,-1,75
 1172 541 1172 541 1181 541 c 0,76,77
 1197 541 1197 541 1193 522 c 0,78,79
 1191 514 1191 514 1180.5 487.5 c 128,-1,80
 1170 461 1170 461 1155 432 c 1,81,-1
 957 -4 l 1,82,83
 863 -3 863 -3 771.5 -2.5 c 128,-1,84
 680 -2 680 -2 587 -1.5 c 128,-1,85
 494 -1 494 -1 398.5 -0.5 c 128,-1,86
 303 0 303 0 202 0 c 0,87,88
 145 0 145 0 105 -0.5 c 128,-1,89
 65 -1 65 -1 36.5 -2 c 128,-1,90
 8 -3 8 -3 -12 -3.5 c 128,-1,91
 -32 -4 -32 -4 -51 -4 c 0,92,93
 -65 -4 -65 -4 -69.5 3.5 c 128,-1,94
 -74 11 -74 11 -72 20 c 0,95,96
 -69 36 -69 36 -54.5 41.5 c 128,-1,97
 -40 47 -40 47 -19.5 49.5 c 128,-1,98
 1 52 1 52 25 55.5 c 128,-1,99
 49 59 49 59 71.5 71 c 128,-1,100
 94 83 94 83 113 107.5 c 128,-1,101
 132 132 132 132 141 176 c 2,102,-1
 361 1212 l 2,0,1
EndSplineSet
Substitution2: "<17001,16003> Urdu lookup 100 subtable" E
EndChar

StartChar: F
Encoding: 70 70 41
Width: 1176
GlyphClass: 2
Flags: W
LayerCount: 2
Fore
SplineSet
461 754 m 1,0,1
 534 754 534 754 598 766.5 c 128,-1,2
 662 779 662 779 714 809.5 c 128,-1,3
 766 840 766 840 802.5 892.5 c 128,-1,4
 839 945 839 945 856 1026 c 0,5,6
 861 1048 861 1048 867 1057.5 c 128,-1,7
 873 1067 873 1067 885 1067 c 0,8,9
 899 1067 899 1067 900.5 1057.5 c 128,-1,10
 902 1048 902 1048 897 1026 c 2,11,-1
 769 424 l 2,12,13
 764 402 764 402 759 392.5 c 128,-1,14
 754 383 754 383 740 383 c 0,15,16
 718 383 718 383 728 424 c 1,17,18
 746 508 746 508 732.5 564 c 128,-1,19
 719 620 719 620 681 654 c 128,-1,20
 643 688 643 688 584.5 702.5 c 128,-1,21
 526 717 526 717 453 717 c 1,22,-1
 338 176 l 2,23,24
 329 132 329 132 337 107.5 c 128,-1,25
 345 83 345 83 362.5 71 c 128,-1,26
 380 59 380 59 402.5 55.5 c 128,-1,27
 425 52 425 52 444.5 49.5 c 128,-1,28
 464 47 464 47 476 41.5 c 128,-1,29
 488 36 488 36 485 20 c 0,30,31
 483 11 483 11 475 3.5 c 128,-1,32
 467 -4 467 -4 453 -4 c 0,33,34
 435 -4 435 -4 415 -3.5 c 128,-1,35
 395 -3 395 -3 367 -2 c 128,-1,36
 339 -1 339 -1 299.5 -0.5 c 128,-1,37
 260 0 260 0 202 0 c 0,38,39
 145 0 145 0 105 -0.5 c 128,-1,40
 65 -1 65 -1 36.5 -2 c 128,-1,41
 8 -3 8 -3 -12 -3.5 c 128,-1,42
 -32 -4 -32 -4 -51 -4 c 0,43,44
 -65 -4 -65 -4 -69.5 3.5 c 128,-1,45
 -74 11 -74 11 -72 20 c 0,46,47
 -69 36 -69 36 -54.5 41.5 c 128,-1,48
 -40 47 -40 47 -19.5 49.5 c 128,-1,49
 1 52 1 52 25 55.5 c 128,-1,50
 49 59 49 59 71.5 71 c 128,-1,51
 94 83 94 83 113 107.5 c 128,-1,52
 132 132 132 132 141 176 c 2,53,-1
 361 1212 l 2,54,55
 371 1257 371 1257 362.5 1281.5 c 128,-1,56
 354 1306 354 1306 336.5 1318 c 128,-1,57
 319 1330 319 1330 296.5 1333.5 c 128,-1,58
 274 1337 274 1337 254.5 1339.5 c 128,-1,59
 235 1342 235 1342 223 1347 c 128,-1,60
 211 1352 211 1352 214 1368 c 0,61,62
 216 1377 216 1377 224 1385 c 128,-1,63
 232 1393 232 1393 246 1393 c 0,64,65
 265 1393 265 1393 285 1392.5 c 128,-1,66
 305 1392 305 1392 333 1391 c 128,-1,67
 361 1390 361 1390 400.5 1389.5 c 128,-1,68
 440 1389 440 1389 497 1389 c 0,69,70
 592 1389 592 1389 664 1389 c 128,-1,71
 736 1389 736 1389 793 1389.5 c 128,-1,72
 850 1390 850 1390 895.5 1390.5 c 128,-1,73
 941 1391 941 1391 983.5 1391.5 c 128,-1,74
 1026 1392 1026 1392 1068 1392.5 c 128,-1,75
 1110 1393 1110 1393 1160 1393 c 1,76,-1
 1204 1006 l 2,77,78
 1206 980 1206 980 1207 969 c 128,-1,79
 1208 958 1208 958 1206 950 c 256,80,81
 1204 942 1204 942 1199 937 c 128,-1,82
 1194 932 1194 932 1183 932 c 256,83,84
 1172 932 1172 932 1167.5 943.5 c 128,-1,85
 1163 955 1163 955 1158 983 c 0,86,87
 1136 1108 1136 1108 1089 1180 c 128,-1,88
 1042 1252 1042 1252 970 1288 c 128,-1,89
 898 1324 898 1324 802 1333.5 c 128,-1,90
 706 1343 706 1343 586 1343 c 1,91,-1
 461 754 l 1,0,1
EndSplineSet
Substitution2: "<17001,16003> Urdu lookup 100 subtable" F
EndChar

StartChar: G
Encoding: 71 71 42
Width: 1554
GlyphClass: 2
Flags: W
LayerCount: 2
Fore
SplineSet
1336 862 m 2,0,1
 1332 845 1332 845 1325 839.5 c 128,-1,2
 1318 834 1318 834 1307 834 c 0,3,4
 1293 834 1293 834 1291.5 848 c 128,-1,5
 1290 862 1290 862 1292 890 c 128,-1,6
 1294 918 1294 918 1295.5 959 c 128,-1,7
 1297 1000 1297 1000 1288 1055 c 0,8,9
 1275 1139 1275 1139 1238.5 1199 c 128,-1,10
 1202 1259 1202 1259 1150.5 1297.5 c 128,-1,11
 1099 1336 1099 1336 1037 1354 c 128,-1,12
 975 1372 975 1372 911 1372 c 0,13,14
 806 1372 806 1372 712.5 1327 c 128,-1,15
 619 1282 619 1282 542.5 1195 c 128,-1,16
 466 1108 466 1108 408.5 982 c 128,-1,17
 351 856 351 856 316 694 c 0,18,19
 284 544 284 544 291 419.5 c 128,-1,20
 298 295 298 295 341 205.5 c 128,-1,21
 384 116 384 116 462 66 c 128,-1,22
 540 16 540 16 650 16 c 0,23,24
 1016 16 1016 16 1095 389 c 0,25,26
 1108 449 1108 449 1101 484.5 c 128,-1,27
 1094 520 1094 520 1076.5 540 c 128,-1,28
 1059 560 1059 560 1035 568 c 128,-1,29
 1011 576 1011 576 990.5 580.5 c 128,-1,30
 970 585 970 585 956.5 590.5 c 128,-1,31
 943 596 943 596 946 610 c 0,32,33
 949 623 949 623 957 631 c 128,-1,34
 965 639 965 639 980 639 c 0,35,36
 1004 639 1004 639 1027 638.5 c 128,-1,37
 1050 638 1050 638 1079.5 637 c 128,-1,38
 1109 636 1109 636 1148.5 635.5 c 128,-1,39
 1188 635 1188 635 1246 635 c 0,40,41
 1306 635 1306 635 1347.5 635.5 c 128,-1,42
 1389 636 1389 636 1418.5 637 c 128,-1,43
 1448 638 1448 638 1468.5 638.5 c 128,-1,44
 1489 639 1489 639 1507 639 c 0,45,46
 1534 639 1534 639 1528 614 c 0,47,48
 1525 598 1525 598 1510.5 593 c 128,-1,49
 1496 588 1496 588 1475.5 585.5 c 128,-1,50
 1455 583 1455 583 1431 579.5 c 128,-1,51
 1407 576 1407 576 1384.5 564 c 128,-1,52
 1362 552 1362 552 1343 527.5 c 128,-1,53
 1324 503 1324 503 1315 459 c 2,54,-1
 1213 -20 l 1,55,-1
 1145 -20 l 1,56,-1
 1109 104 l 1,57,58
 1073 82 1073 82 1023 58 c 128,-1,59
 973 34 973 34 912.5 13.5 c 128,-1,60
 852 -7 852 -7 782.5 -20 c 128,-1,61
 713 -33 713 -33 639 -33 c 0,62,63
 547 -33 547 -33 463.5 -10.5 c 128,-1,64
 380 12 380 12 311.5 54.5 c 128,-1,65
 243 97 243 97 190.5 159 c 128,-1,66
 138 221 138 221 107.5 300.5 c 128,-1,67
 77 380 77 380 71 475.5 c 128,-1,68
 65 571 65 571 88 680 c 0,69,70
 111 787 111 787 157.5 883 c 128,-1,71
 204 979 204 979 268 1061.5 c 128,-1,72
 332 1144 332 1144 409.5 1210.5 c 128,-1,73
 487 1277 487 1277 571.5 1323.5 c 128,-1,74
 656 1370 656 1370 744 1395.5 c 128,-1,75
 832 1421 832 1421 916 1421 c 0,76,77
 1001 1421 1001 1421 1061 1405 c 128,-1,78
 1121 1389 1121 1389 1166.5 1370 c 128,-1,79
 1212 1351 1212 1351 1249 1335 c 128,-1,80
 1286 1319 1286 1319 1326 1319 c 0,81,82
 1351 1319 1351 1319 1363.5 1333 c 128,-1,83
 1376 1347 1376 1347 1385 1364 c 128,-1,84
 1394 1381 1394 1381 1402.5 1395 c 128,-1,85
 1411 1409 1411 1409 1427 1409 c 0,86,87
 1438 1409 1438 1409 1443.5 1401 c 128,-1,88
 1449 1393 1449 1393 1445 1376 c 2,89,-1
 1336 862 l 2,0,1
EndSplineSet
Substitution2: "<17001,16003> Urdu lookup 100 subtable" G
EndChar

StartChar: H
Encoding: 72 72 43
Width: 1479
GlyphClass: 2
Flags: W
LayerCount: 2
Fore
SplineSet
444 717 m 1,0,-1
 329 176 l 2,1,2
 320 132 320 132 328 107.5 c 128,-1,3
 336 83 336 83 353.5 71 c 128,-1,4
 371 59 371 59 393.5 55.5 c 128,-1,5
 416 52 416 52 436 49.5 c 128,-1,6
 456 47 456 47 468 41.5 c 128,-1,7
 480 36 480 36 477 20 c 0,8,9
 475 11 475 11 467 3.5 c 128,-1,10
 459 -4 459 -4 445 -4 c 0,11,12
 427 -4 427 -4 407 -3.5 c 128,-1,13
 387 -3 387 -3 359 -2 c 128,-1,14
 331 -1 331 -1 291.5 -0.5 c 128,-1,15
 252 0 252 0 194 0 c 256,16,17
 136 0 136 0 96.5 -0.5 c 128,-1,18
 57 -1 57 -1 28.5 -2 c 128,-1,19
 0 -3 0 -3 -20.5 -3.5 c 128,-1,20
 -41 -4 -41 -4 -59 -4 c 0,21,22
 -73 -4 -73 -4 -77.5 3.5 c 128,-1,23
 -82 11 -82 11 -80 20 c 0,24,25
 -77 36 -77 36 -62.5 41.5 c 128,-1,26
 -48 47 -48 47 -27.5 49.5 c 128,-1,27
 -7 52 -7 52 17 55.5 c 128,-1,28
 41 59 41 59 63.5 71 c 128,-1,29
 86 83 86 83 105 107.5 c 128,-1,30
 124 132 124 132 133 176 c 2,31,-1
 353 1212 l 2,32,33
 363 1257 363 1257 354.5 1281.5 c 128,-1,34
 346 1306 346 1306 328.5 1318 c 128,-1,35
 311 1330 311 1330 288.5 1333.5 c 128,-1,36
 266 1337 266 1337 246.5 1339.5 c 128,-1,37
 227 1342 227 1342 215 1347 c 128,-1,38
 203 1352 203 1352 206 1368 c 0,39,40
 208 1377 208 1377 216 1385 c 128,-1,41
 224 1393 224 1393 238 1393 c 0,42,43
 256 1393 256 1393 276 1392.5 c 128,-1,44
 296 1392 296 1392 324 1391 c 128,-1,45
 352 1390 352 1390 391.5 1389.5 c 128,-1,46
 431 1389 431 1389 489 1389 c 256,47,48
 547 1389 547 1389 586.5 1389.5 c 128,-1,49
 626 1390 626 1390 654.5 1391 c 128,-1,50
 683 1392 683 1392 703.5 1392.5 c 128,-1,51
 724 1393 724 1393 742 1393 c 0,52,53
 756 1393 756 1393 760.5 1385 c 128,-1,54
 765 1377 765 1377 763 1368 c 0,55,56
 760 1352 760 1352 745.5 1347 c 128,-1,57
 731 1342 731 1342 710.5 1339.5 c 128,-1,58
 690 1337 690 1337 665.5 1333.5 c 128,-1,59
 641 1330 641 1330 618.5 1318 c 128,-1,60
 596 1306 596 1306 577 1281.5 c 128,-1,61
 558 1257 558 1257 549 1212 c 2,62,-1
 452 754 l 1,63,-1
 1046 754 l 1,64,-1
 1143 1212 l 2,65,66
 1153 1257 1153 1257 1144.5 1281.5 c 128,-1,67
 1136 1306 1136 1306 1118.5 1318 c 128,-1,68
 1101 1330 1101 1330 1078.5 1333.5 c 128,-1,69
 1056 1337 1056 1337 1036.5 1339.5 c 128,-1,70
 1017 1342 1017 1342 1005 1347 c 128,-1,71
 993 1352 993 1352 996 1368 c 0,72,73
 998 1377 998 1377 1006.5 1385 c 128,-1,74
 1015 1393 1015 1393 1029 1393 c 0,75,76
 1047 1393 1047 1393 1067 1392.5 c 128,-1,77
 1087 1392 1087 1392 1115 1391 c 128,-1,78
 1143 1390 1143 1390 1182.5 1389.5 c 128,-1,79
 1222 1389 1222 1389 1280 1389 c 0,80,81
 1337 1389 1337 1389 1377 1389.5 c 128,-1,82
 1417 1390 1417 1390 1445 1391 c 128,-1,83
 1473 1392 1473 1392 1493.5 1392.5 c 128,-1,84
 1514 1393 1514 1393 1532 1393 c 0,85,86
 1546 1393 1546 1393 1550.5 1385 c 128,-1,87
 1555 1377 1555 1377 1553 1368 c 0,88,89
 1550 1352 1550 1352 1535.5 1347 c 128,-1,90
 1521 1342 1521 1342 1500.5 1339.5 c 128,-1,91
 1480 1337 1480 1337 1456 1333.5 c 128,-1,92
 1432 1330 1432 1330 1409.5 1318 c 128,-1,93
 1387 1306 1387 1306 1368.5 1281.5 c 128,-1,94
 1350 1257 1350 1257 1340 1212 c 2,95,-1
 1120 176 l 2,96,97
 1111 132 1111 132 1119 107.5 c 128,-1,98
 1127 83 1127 83 1144.5 71 c 128,-1,99
 1162 59 1162 59 1184.5 55.5 c 128,-1,100
 1207 52 1207 52 1226.5 49.5 c 128,-1,101
 1246 47 1246 47 1258 41.5 c 128,-1,102
 1270 36 1270 36 1267 20 c 0,103,104
 1265 11 1265 11 1257 3.5 c 128,-1,105
 1249 -4 1249 -4 1235 -4 c 0,106,107
 1217 -4 1217 -4 1197 -3.5 c 128,-1,108
 1177 -3 1177 -3 1149 -2 c 128,-1,109
 1121 -1 1121 -1 1081.5 -0.5 c 128,-1,110
 1042 0 1042 0 985 0 c 0,111,112
 927 0 927 0 887.5 -0.5 c 128,-1,113
 848 -1 848 -1 819.5 -2 c 128,-1,114
 791 -3 791 -3 770.5 -3.5 c 128,-1,115
 750 -4 750 -4 732 -4 c 0,116,117
 718 -4 718 -4 713 3.5 c 128,-1,118
 708 11 708 11 710 20 c 0,119,120
 713 36 713 36 727.5 41.5 c 128,-1,121
 742 47 742 47 762.5 49.5 c 128,-1,122
 783 52 783 52 807 55.5 c 128,-1,123
 831 59 831 59 853.5 71 c 128,-1,124
 876 83 876 83 895 107.5 c 128,-1,125
 914 132 914 132 923 176 c 2,126,-1
 1038 717 l 1,127,-1
 444 717 l 1,0,-1
EndSplineSet
Substitution2: "<17001,16003> Urdu lookup 100 subtable" H
EndChar

StartChar: I
Encoding: 73 73 44
Width: 721
GlyphClass: 2
Flags: W
LayerCount: 2
Fore
SplineSet
346 176 m 2,0,1
 337 132 337 132 345 107.5 c 128,-1,2
 353 83 353 83 370.5 71 c 128,-1,3
 388 59 388 59 410.5 55.5 c 128,-1,4
 433 52 433 52 452.5 49.5 c 128,-1,5
 472 47 472 47 484 41.5 c 128,-1,6
 496 36 496 36 493 20 c 0,7,8
 491 11 491 11 483 3.5 c 128,-1,9
 475 -4 475 -4 461 -4 c 0,10,11
 443 -4 443 -4 423 -3.5 c 128,-1,12
 403 -3 403 -3 375 -2 c 128,-1,13
 347 -1 347 -1 307.5 -0.5 c 128,-1,14
 268 0 268 0 210 0 c 0,15,16
 153 0 153 0 113 -0.5 c 128,-1,17
 73 -1 73 -1 45 -2 c 128,-1,18
 17 -3 17 -3 -3.5 -3.5 c 128,-1,19
 -24 -4 -24 -4 -42 -4 c 0,20,21
 -56 -4 -56 -4 -61 3.5 c 128,-1,22
 -66 11 -66 11 -64 20 c 0,23,24
 -61 36 -61 36 -46.5 41.5 c 128,-1,25
 -32 47 -32 47 -11.5 49.5 c 128,-1,26
 9 52 9 52 33 55.5 c 128,-1,27
 57 59 57 59 79.5 71 c 128,-1,28
 102 83 102 83 121 107.5 c 128,-1,29
 140 132 140 132 149 176 c 2,30,-1
 369 1212 l 2,31,32
 379 1257 379 1257 370.5 1281.5 c 128,-1,33
 362 1306 362 1306 344.5 1318 c 128,-1,34
 327 1330 327 1330 304.5 1333.5 c 128,-1,35
 282 1337 282 1337 262.5 1339.5 c 128,-1,36
 243 1342 243 1342 231 1347 c 128,-1,37
 219 1352 219 1352 222 1368 c 0,38,39
 224 1377 224 1377 232.5 1385 c 128,-1,40
 241 1393 241 1393 255 1393 c 0,41,42
 273 1393 273 1393 293 1392.5 c 128,-1,43
 313 1392 313 1392 341 1391 c 128,-1,44
 369 1390 369 1390 408.5 1389.5 c 128,-1,45
 448 1389 448 1389 505 1389 c 0,46,47
 563 1389 563 1389 602.5 1389.5 c 128,-1,48
 642 1390 642 1390 670.5 1391 c 128,-1,49
 699 1392 699 1392 719.5 1392.5 c 128,-1,50
 740 1393 740 1393 758 1393 c 0,51,52
 772 1393 772 1393 776.5 1385 c 128,-1,53
 781 1377 781 1377 779 1368 c 0,54,55
 776 1352 776 1352 761.5 1347 c 128,-1,56
 747 1342 747 1342 726.5 1339.5 c 128,-1,57
 706 1337 706 1337 682 1333.5 c 128,-1,58
 658 1330 658 1330 635.5 1318 c 128,-1,59
 613 1306 613 1306 594.5 1281.5 c 128,-1,60
 576 1257 576 1257 566 1212 c 2,61,-1
 346 176 l 2,0,1
EndSplineSet
Substitution2: "<17001,16003> Urdu lookup 100 subtable" I
EndChar

StartChar: J
Encoding: 74 74 45
Width: 909
GlyphClass: 2
Flags: W
LayerCount: 2
Fore
SplineSet
634 397 m 2,0,1
 611 289 611 289 564.5 208.5 c 128,-1,2
 518 128 518 128 455 74 c 128,-1,3
 392 20 392 20 317.5 -6.5 c 128,-1,4
 243 -33 243 -33 164 -33 c 0,5,6
 80 -33 80 -33 24 -10 c 128,-1,7
 -32 13 -32 13 -63.5 48.5 c 128,-1,8
 -95 84 -95 84 -104.5 127.5 c 128,-1,9
 -114 171 -114 171 -105 213 c 0,10,11
 -100 236 -100 236 -89 258 c 128,-1,12
 -78 280 -78 280 -60 297.5 c 128,-1,13
 -42 315 -42 315 -17.5 325.5 c 128,-1,14
 7 336 7 336 38 336 c 0,15,16
 90 336 90 336 111 303 c 128,-1,17
 132 270 132 270 122 223 c 0,18,19
 119 208 119 208 112 193.5 c 128,-1,20
 105 179 105 179 97.5 164 c 128,-1,21
 90 149 90 149 82.5 132.5 c 128,-1,22
 75 116 75 116 71 96 c 0,23,24
 64 61 64 61 94 38.5 c 128,-1,25
 124 16 124 16 175 16 c 0,26,27
 225 16 225 16 262.5 29.5 c 128,-1,28
 300 43 300 43 327 67 c 128,-1,29
 354 91 354 91 370.5 125 c 128,-1,30
 387 159 387 159 396 201 c 2,31,-1
 611 1212 l 2,32,33
 621 1257 621 1257 612.5 1281.5 c 128,-1,34
 604 1306 604 1306 586.5 1318 c 128,-1,35
 569 1330 569 1330 546.5 1333.5 c 128,-1,36
 524 1337 524 1337 504.5 1339.5 c 128,-1,37
 485 1342 485 1342 473 1347 c 128,-1,38
 461 1352 461 1352 464 1368 c 0,39,40
 466 1377 466 1377 474 1385 c 128,-1,41
 482 1393 482 1393 496 1393 c 0,42,43
 514 1393 514 1393 534 1392.5 c 128,-1,44
 554 1392 554 1392 582.5 1391 c 128,-1,45
 611 1390 611 1390 650.5 1389.5 c 128,-1,46
 690 1389 690 1389 747 1389 c 0,47,48
 805 1389 805 1389 844.5 1389.5 c 128,-1,49
 884 1390 884 1390 912.5 1391 c 128,-1,50
 941 1392 941 1392 961.5 1392.5 c 128,-1,51
 982 1393 982 1393 1000 1393 c 0,52,53
 1014 1393 1014 1393 1018.5 1385 c 128,-1,54
 1023 1377 1023 1377 1021 1368 c 0,55,56
 1018 1352 1018 1352 1003.5 1347 c 128,-1,57
 989 1342 989 1342 968.5 1339.5 c 128,-1,58
 948 1337 948 1337 923.5 1333.5 c 128,-1,59
 899 1330 899 1330 876.5 1318 c 128,-1,60
 854 1306 854 1306 835 1281.5 c 128,-1,61
 816 1257 816 1257 807 1212 c 2,62,-1
 634 397 l 2,0,1
EndSplineSet
Substitution2: "<17001,16003> Urdu lookup 100 subtable" J
EndChar

StartChar: K
Encoding: 75 75 46
AltUni2: 00212a.ffffffff.0
Width: 1327
GlyphClass: 2
Flags: W
LayerCount: 2
Fore
SplineSet
361 1212 m 2,0,1
 371 1257 371 1257 362.5 1281.5 c 128,-1,2
 354 1306 354 1306 336.5 1318 c 128,-1,3
 319 1330 319 1330 296.5 1333.5 c 128,-1,4
 274 1337 274 1337 254.5 1339.5 c 128,-1,5
 235 1342 235 1342 223 1347 c 128,-1,6
 211 1352 211 1352 214 1368 c 0,7,8
 216 1377 216 1377 224 1385 c 128,-1,9
 232 1393 232 1393 246 1393 c 0,10,11
 265 1393 265 1393 285 1392.5 c 128,-1,12
 305 1392 305 1392 333 1391 c 128,-1,13
 361 1390 361 1390 400.5 1389.5 c 128,-1,14
 440 1389 440 1389 497 1389 c 0,15,16
 555 1389 555 1389 594.5 1389.5 c 128,-1,17
 634 1390 634 1390 662.5 1391 c 128,-1,18
 691 1392 691 1392 711.5 1392.5 c 128,-1,19
 732 1393 732 1393 750 1393 c 0,20,21
 764 1393 764 1393 768.5 1385 c 128,-1,22
 773 1377 773 1377 771 1368 c 0,23,24
 768 1352 768 1352 753.5 1347 c 128,-1,25
 739 1342 739 1342 718.5 1339.5 c 128,-1,26
 698 1337 698 1337 674 1333.5 c 128,-1,27
 650 1330 650 1330 627.5 1318 c 128,-1,28
 605 1306 605 1306 586.5 1281.5 c 128,-1,29
 568 1257 568 1257 558 1212 c 2,30,-1
 434 627 l 1,31,-1
 438 627 l 1,32,-1
 911 1104 l 2,33,34
 924 1116 924 1116 939.5 1133 c 128,-1,35
 955 1150 955 1150 969.5 1168.5 c 128,-1,36
 984 1187 984 1187 995.5 1206 c 128,-1,37
 1007 1225 1007 1225 1010 1241 c 0,38,39
 1017 1272 1017 1272 1012 1289.5 c 128,-1,40
 1007 1307 1007 1307 996.5 1316.5 c 128,-1,41
 986 1326 986 1326 972.5 1330 c 128,-1,42
 959 1334 959 1334 947 1337.5 c 128,-1,43
 935 1341 935 1341 927.5 1346.5 c 128,-1,44
 920 1352 920 1352 923 1364 c 0,45,46
 925 1375 925 1375 934 1384 c 128,-1,47
 943 1393 943 1393 963 1393 c 0,48,49
 982 1393 982 1393 1002.5 1392.5 c 128,-1,50
 1023 1392 1023 1392 1047 1391 c 128,-1,51
 1071 1390 1071 1390 1101 1389.5 c 128,-1,52
 1131 1389 1131 1389 1169 1389 c 0,53,54
 1243 1389 1243 1389 1294.5 1391 c 128,-1,55
 1346 1393 1346 1393 1369 1393 c 0,56,57
 1386 1393 1386 1393 1391 1386.5 c 128,-1,58
 1396 1380 1396 1380 1393 1366 c 0,59,60
 1391 1355 1391 1355 1380 1351 c 128,-1,61
 1369 1347 1369 1347 1349 1342 c 128,-1,62
 1329 1337 1329 1337 1300 1328 c 128,-1,63
 1271 1319 1271 1319 1232.5 1299.5 c 128,-1,64
 1194 1280 1194 1280 1145.5 1246 c 128,-1,65
 1097 1212 1097 1212 1039 1157 c 2,66,-1
 806 934 l 1,67,-1
 1060 164 l 2,68,69
 1073 126 1073 126 1092 104 c 128,-1,70
 1111 82 1111 82 1131.5 70.5 c 128,-1,71
 1152 59 1152 59 1172 54.5 c 128,-1,72
 1192 50 1192 50 1207 47 c 128,-1,73
 1222 44 1222 44 1230.5 39 c 128,-1,74
 1239 34 1239 34 1236 20 c 0,75,76
 1232 3 1232 3 1221 -0.5 c 128,-1,77
 1210 -4 1210 -4 1188 -4 c 0,78,79
 1146 -4 1146 -4 1105 -2 c 128,-1,80
 1064 0 1064 0 1024 0 c 2,81,-1
 899 0 l 1,82,-1
 644 778 l 1,83,-1
 418 555 l 1,84,-1
 338 176 l 2,85,86
 329 132 329 132 337 107.5 c 128,-1,87
 345 83 345 83 362.5 71 c 128,-1,88
 380 59 380 59 402.5 55.5 c 128,-1,89
 425 52 425 52 444.5 49.5 c 128,-1,90
 464 47 464 47 476 41.5 c 128,-1,91
 488 36 488 36 485 20 c 0,92,93
 483 11 483 11 475 3.5 c 128,-1,94
 467 -4 467 -4 453 -4 c 0,95,96
 435 -4 435 -4 415 -3.5 c 128,-1,97
 395 -3 395 -3 367 -2 c 128,-1,98
 339 -1 339 -1 299.5 -0.5 c 128,-1,99
 260 0 260 0 202 0 c 0,100,101
 145 0 145 0 105 -0.5 c 128,-1,102
 65 -1 65 -1 36.5 -2 c 128,-1,103
 8 -3 8 -3 -12 -3.5 c 128,-1,104
 -32 -4 -32 -4 -51 -4 c 0,105,106
 -65 -4 -65 -4 -69.5 3.5 c 128,-1,107
 -74 11 -74 11 -72 20 c 0,108,109
 -69 36 -69 36 -54.5 41.5 c 128,-1,110
 -40 47 -40 47 -19.5 49.5 c 128,-1,111
 1 52 1 52 25 55.5 c 128,-1,112
 49 59 49 59 71.5 71 c 128,-1,113
 94 83 94 83 113 107.5 c 128,-1,114
 132 132 132 132 141 176 c 2,115,-1
 361 1212 l 2,0,1
EndSplineSet
Substitution2: "<17001,16003> Urdu lookup 100 subtable" K
EndChar

StartChar: L
Encoding: 76 76 47
AltUni2: 00216c.ffffffff.0
Width: 1251
GlyphClass: 2
Flags: W
LayerCount: 2
Fore
SplineSet
338 176 m 2,0,1
 331 142 331 142 332.5 117 c 128,-1,2
 334 92 334 92 348 76 c 128,-1,3
 362 60 362 60 391 52.5 c 128,-1,4
 420 45 420 45 467 45 c 0,5,6
 556 45 556 45 643.5 74.5 c 128,-1,7
 731 104 731 104 810 154 c 128,-1,8
 889 204 889 204 955.5 271.5 c 128,-1,9
 1022 339 1022 339 1070 414 c 0,10,11
 1094 452 1094 452 1107.5 476.5 c 128,-1,12
 1121 501 1121 501 1129 515 c 128,-1,13
 1137 529 1137 529 1142 535 c 128,-1,14
 1147 541 1147 541 1156 541 c 0,15,16
 1172 541 1172 541 1168 522 c 0,17,18
 1167 518 1167 518 1164 509 c 128,-1,19
 1161 500 1161 500 1156 488 c 128,-1,20
 1151 476 1151 476 1144.5 461.5 c 128,-1,21
 1138 447 1138 447 1131 432 c 2,22,-1
 932 -4 l 1,23,24
 762 -2 762 -2 583.5 -1 c 128,-1,25
 405 0 405 0 202 0 c 0,26,27
 145 0 145 0 105 -0.5 c 128,-1,28
 65 -1 65 -1 36.5 -2 c 128,-1,29
 8 -3 8 -3 -12 -3.5 c 128,-1,30
 -32 -4 -32 -4 -51 -4 c 0,31,32
 -65 -4 -65 -4 -69.5 3.5 c 128,-1,33
 -74 11 -74 11 -72 20 c 0,34,35
 -69 36 -69 36 -54.5 41.5 c 128,-1,36
 -40 47 -40 47 -19.5 49.5 c 128,-1,37
 1 52 1 52 25 55.5 c 128,-1,38
 49 59 49 59 71.5 71 c 128,-1,39
 94 83 94 83 113 107.5 c 128,-1,40
 132 132 132 132 141 176 c 2,41,-1
 361 1212 l 2,42,43
 371 1257 371 1257 362.5 1281.5 c 128,-1,44
 354 1306 354 1306 336.5 1318 c 128,-1,45
 319 1330 319 1330 296.5 1333.5 c 128,-1,46
 274 1337 274 1337 254.5 1339.5 c 128,-1,47
 235 1342 235 1342 223 1347 c 128,-1,48
 211 1352 211 1352 214 1368 c 0,49,50
 216 1377 216 1377 224 1385 c 128,-1,51
 232 1393 232 1393 246 1393 c 0,52,53
 265 1393 265 1393 285 1392.5 c 128,-1,54
 305 1392 305 1392 333 1391 c 128,-1,55
 361 1390 361 1390 400.5 1389.5 c 128,-1,56
 440 1389 440 1389 497 1389 c 0,57,58
 555 1389 555 1389 594.5 1389.5 c 128,-1,59
 634 1390 634 1390 662.5 1391 c 128,-1,60
 691 1392 691 1392 711.5 1392.5 c 128,-1,61
 732 1393 732 1393 750 1393 c 0,62,63
 764 1393 764 1393 768.5 1385 c 128,-1,64
 773 1377 773 1377 771 1368 c 0,65,66
 768 1352 768 1352 753.5 1347 c 128,-1,67
 739 1342 739 1342 718.5 1339.5 c 128,-1,68
 698 1337 698 1337 674 1333.5 c 128,-1,69
 650 1330 650 1330 627.5 1318 c 128,-1,70
 605 1306 605 1306 586.5 1281.5 c 128,-1,71
 568 1257 568 1257 558 1212 c 2,72,-1
 338 176 l 2,0,1
EndSplineSet
Substitution2: "<17001,16003> Urdu lookup 100 subtable" L
EndChar

StartChar: M
Encoding: 77 77 48
AltUni2: 00216f.ffffffff.0
Width: 1630
GlyphClass: 2
Flags: W
LayerCount: 2
Fore
SplineSet
716 281 m 1,0,-1
 1372 1389 l 1,1,-1
 1452 1389 l 2,2,3
 1509 1389 1509 1389 1549 1389.5 c 128,-1,4
 1589 1390 1589 1390 1617.5 1391 c 128,-1,5
 1646 1392 1646 1392 1666 1392.5 c 128,-1,6
 1686 1393 1686 1393 1705 1393 c 0,7,8
 1719 1393 1719 1393 1723 1385 c 128,-1,9
 1727 1377 1727 1377 1725 1368 c 0,10,11
 1722 1352 1722 1352 1707.5 1347 c 128,-1,12
 1693 1342 1693 1342 1672.5 1339.5 c 128,-1,13
 1652 1337 1652 1337 1628 1333.5 c 128,-1,14
 1604 1330 1604 1330 1581.5 1318 c 128,-1,15
 1559 1306 1559 1306 1540.5 1281.5 c 128,-1,16
 1522 1257 1522 1257 1512 1212 c 2,17,-1
 1292 176 l 2,18,19
 1283 132 1283 132 1291 107.5 c 128,-1,20
 1299 83 1299 83 1316.5 71 c 128,-1,21
 1334 59 1334 59 1356.5 55.5 c 128,-1,22
 1379 52 1379 52 1398.5 49.5 c 128,-1,23
 1418 47 1418 47 1430 41.5 c 128,-1,24
 1442 36 1442 36 1439 20 c 0,25,26
 1437 11 1437 11 1429.5 3.5 c 128,-1,27
 1422 -4 1422 -4 1408 -4 c 0,28,29
 1389 -4 1389 -4 1369 -3.5 c 128,-1,30
 1349 -3 1349 -3 1321 -2 c 128,-1,31
 1293 -1 1293 -1 1253.5 -0.5 c 128,-1,32
 1214 0 1214 0 1157 0 c 0,33,34
 1099 0 1099 0 1059.5 -0.5 c 128,-1,35
 1020 -1 1020 -1 991.5 -2 c 128,-1,36
 963 -3 963 -3 942.5 -3.5 c 128,-1,37
 922 -4 922 -4 904 -4 c 0,38,39
 890 -4 890 -4 885 3.5 c 128,-1,40
 880 11 880 11 882 20 c 0,41,42
 885 36 885 36 899.5 41.5 c 128,-1,43
 914 47 914 47 934.5 49.5 c 128,-1,44
 955 52 955 52 979 55.5 c 128,-1,45
 1003 59 1003 59 1025.5 71 c 128,-1,46
 1048 83 1048 83 1067 107.5 c 128,-1,47
 1086 132 1086 132 1095 176 c 2,48,-1
 1312 1196 l 1,49,-1
 1304 1196 l 1,50,-1
 623 37 l 2,51,52
 612 17 612 17 604 4.5 c 128,-1,53
 596 -8 596 -8 583 -8 c 0,54,55
 571 -8 571 -8 568.5 4.5 c 128,-1,56
 566 17 566 17 562 37 c 2,57,-1
 387 1180 l 1,58,-1
 383 1180 l 1,59,-1
 200 319 l 2,60,61
 188 260 188 260 191 213.5 c 128,-1,62
 194 167 194 167 211 133 c 128,-1,63
 228 99 228 99 257.5 77 c 128,-1,64
 287 55 287 55 326 45 c 0,65,66
 346 40 346 40 357.5 36.5 c 128,-1,67
 369 33 369 33 365 16 c 0,68,69
 363 7 363 7 357.5 1.5 c 128,-1,70
 352 -4 352 -4 338 -4 c 0,71,72
 328 -4 328 -4 303.5 -3.5 c 128,-1,73
 279 -3 279 -3 246 -2 c 128,-1,74
 213 -1 213 -1 176 -0.5 c 128,-1,75
 139 0 139 0 104 0 c 0,76,77
 70 0 70 0 32 -0.5 c 128,-1,78
 -6 -1 -6 -1 -39 -2 c 128,-1,79
 -72 -3 -72 -3 -97.5 -3.5 c 128,-1,80
 -123 -4 -123 -4 -133 -4 c 0,81,82
 -146 -4 -146 -4 -149 1.5 c 128,-1,83
 -152 7 -152 7 -150 16 c 0,84,85
 -147 33 -147 33 -134 36.5 c 128,-1,86
 -121 40 -121 40 -100 45 c 0,87,88
 -12 65 -12 65 52.5 133 c 128,-1,89
 117 201 117 201 142 319 c 2,90,-1
 332 1212 l 2,91,92
 342 1257 342 1257 333.5 1281.5 c 128,-1,93
 325 1306 325 1306 307.5 1318 c 128,-1,94
 290 1330 290 1330 267.5 1333.5 c 128,-1,95
 245 1337 245 1337 225.5 1339.5 c 128,-1,96
 206 1342 206 1342 194 1347 c 128,-1,97
 182 1352 182 1352 185 1368 c 0,98,99
 187 1377 187 1377 195.5 1385 c 128,-1,100
 204 1393 204 1393 218 1393 c 0,101,102
 236 1393 236 1393 256 1392.5 c 128,-1,103
 276 1392 276 1392 304 1391 c 128,-1,104
 332 1390 332 1390 371.5 1389.5 c 128,-1,105
 411 1389 411 1389 469 1389 c 2,106,-1
 542 1389 l 1,107,-1
 716 281 l 1,0,-1
EndSplineSet
Substitution2: "<17001,16003> Urdu lookup 100 subtable" M
EndChar

StartChar: N
Encoding: 78 78 49
Width: 1403
GlyphClass: 2
Flags: W
LayerCount: 2
Fore
SplineSet
1015 326 m 1,0,-1
 1019 326 l 1,1,-1
 1167 1024 l 2,2,3
 1199 1177 1199 1177 1168.5 1253 c 128,-1,4
 1138 1329 1138 1329 1042 1343 c 0,5,6
 1020 1347 1020 1347 1010 1351.5 c 128,-1,7
 1000 1356 1000 1356 1003 1370 c 0,8,9
 1008 1393 1008 1393 1033 1393 c 0,10,11
 1040 1393 1040 1393 1050.5 1392.5 c 128,-1,12
 1061 1392 1061 1392 1086 1391 c 128,-1,13
 1111 1390 1111 1390 1155.5 1389.5 c 128,-1,14
 1200 1389 1200 1389 1273 1389 c 0,15,16
 1347 1389 1347 1389 1391.5 1389.5 c 128,-1,17
 1436 1390 1436 1390 1461.5 1391 c 128,-1,18
 1487 1392 1487 1392 1498 1392.5 c 128,-1,19
 1509 1393 1509 1393 1516 1393 c 0,20,21
 1541 1393 1541 1393 1536 1370 c 0,22,23
 1533 1356 1533 1356 1520.5 1351.5 c 128,-1,24
 1508 1347 1508 1347 1485 1343 c 0,25,26
 1383 1329 1383 1329 1319.5 1253 c 128,-1,27
 1256 1177 1256 1177 1224 1024 c 2,28,-1
 1005 -6 l 2,29,30
 1001 -23 1001 -23 997 -30 c 128,-1,31
 993 -37 993 -37 981 -37 c 0,32,33
 973 -37 973 -37 966 -21.5 c 128,-1,34
 959 -6 959 -6 945 25 c 1,35,-1
 394 1116 l 1,36,-1
 388 1116 l 1,37,-1
 228 365 l 2,38,39
 196 212 196 212 226 135.5 c 128,-1,40
 256 59 256 59 353 45 c 0,41,42
 375 42 375 42 385 37 c 128,-1,43
 395 32 395 32 392 18 c 0,44,45
 387 -4 387 -4 363 -4 c 0,46,47
 356 -4 356 -4 345.5 -3.5 c 128,-1,48
 335 -3 335 -3 310 -2 c 128,-1,49
 285 -1 285 -1 240.5 -0.5 c 128,-1,50
 196 0 196 0 122 0 c 0,51,52
 49 0 49 0 4.5 -0.5 c 128,-1,53
 -40 -1 -40 -1 -65.5 -2 c 128,-1,54
 -91 -3 -91 -3 -102 -3.5 c 128,-1,55
 -113 -4 -113 -4 -120 -4 c 0,56,57
 -146 -4 -146 -4 -141 18 c 0,58,59
 -138 32 -138 32 -126 37 c 128,-1,60
 -114 42 -114 42 -90 45 c 0,61,62
 12 59 12 59 75.5 135.5 c 128,-1,63
 139 212 139 212 171 365 c 2,64,-1
 346 1186 l 1,65,-1
 293 1276 l 2,66,67
 274 1308 274 1308 249 1320.5 c 128,-1,68
 224 1333 224 1333 201.5 1338 c 128,-1,69
 179 1343 179 1343 164.5 1346.5 c 128,-1,70
 150 1350 150 1350 153 1364 c 256,71,72
 156 1378 156 1378 166.5 1385.5 c 128,-1,73
 177 1393 177 1393 212 1393 c 0,74,75
 228 1393 228 1393 250.5 1392.5 c 128,-1,76
 273 1392 273 1392 299 1391 c 128,-1,77
 325 1390 325 1390 353 1389.5 c 128,-1,78
 381 1389 381 1389 409 1389 c 2,79,-1
 487 1389 l 1,80,-1
 1015 326 l 1,0,-1
EndSplineSet
Substitution2: "<17001,16003> Urdu lookup 100 subtable" N
EndChar

StartChar: O
Encoding: 79 79 50
Width: 1593
GlyphClass: 2
Flags: W
LayerCount: 2
Fore
SplineSet
316 694 m 0,0,1
 289 565 289 565 286.5 464 c 128,-1,2
 284 363 284 363 302 288 c 128,-1,3
 320 213 320 213 355 161 c 128,-1,4
 390 109 390 109 436 77 c 128,-1,5
 482 45 482 45 537 30.5 c 128,-1,6
 592 16 592 16 650 16 c 0,7,8
 737 16 737 16 829 49 c 128,-1,9
 921 82 921 82 1005.5 160.5 c 128,-1,10
 1090 239 1090 239 1160 369.5 c 128,-1,11
 1230 500 1230 500 1271 694 c 0,12,13
 1299 824 1299 824 1301 924.5 c 128,-1,14
 1303 1025 1303 1025 1285 1100 c 128,-1,15
 1267 1175 1267 1175 1232.5 1227 c 128,-1,16
 1198 1279 1198 1279 1151.5 1311.5 c 128,-1,17
 1105 1344 1105 1344 1050.5 1358 c 128,-1,18
 996 1372 996 1372 938 1372 c 0,19,20
 851 1372 851 1372 758.5 1339 c 128,-1,21
 666 1306 666 1306 581.5 1227.5 c 128,-1,22
 497 1149 497 1149 427 1018.5 c 128,-1,23
 357 888 357 888 316 694 c 0,0,1
639 -33 m 256,24,25
 557 -33 557 -33 477.5 -10.5 c 128,-1,26
 398 12 398 12 329 55 c 128,-1,27
 260 98 260 98 205 161 c 128,-1,28
 150 224 150 224 117 304.5 c 128,-1,29
 84 385 84 385 75.5 483 c 128,-1,30
 67 581 67 581 91 694 c 256,31,32
 115 807 115 807 165 905 c 128,-1,33
 215 1003 215 1003 283 1084 c 128,-1,34
 351 1165 351 1165 432.5 1227.5 c 128,-1,35
 514 1290 514 1290 601.5 1333 c 128,-1,36
 689 1376 689 1376 778 1398.5 c 128,-1,37
 867 1421 867 1421 949 1421 c 256,38,39
 1031 1421 1031 1421 1110.5 1398.5 c 128,-1,40
 1190 1376 1190 1376 1258.5 1333 c 128,-1,41
 1327 1290 1327 1290 1382 1227.5 c 128,-1,42
 1437 1165 1437 1165 1470 1084 c 128,-1,43
 1503 1003 1503 1003 1511.5 905 c 128,-1,44
 1520 807 1520 807 1496 694 c 256,45,46
 1472 581 1472 581 1422 483 c 128,-1,47
 1372 385 1372 385 1304 304.5 c 128,-1,48
 1236 224 1236 224 1154.5 161 c 128,-1,49
 1073 98 1073 98 986 55 c 128,-1,50
 899 12 899 12 810 -10.5 c 128,-1,51
 721 -33 721 -33 639 -33 c 256,24,25
EndSplineSet
Substitution2: "<17001,16003> Urdu lookup 100 subtable" O
EndChar

StartChar: P
Encoding: 80 80 51
Width: 1176
GlyphClass: 2
Flags: W
LayerCount: 2
Fore
SplineSet
441 662 m 1,0,-1
 545 662 l 2,1,2
 638 662 638 662 711.5 681 c 128,-1,3
 785 700 785 700 840.5 741 c 128,-1,4
 896 782 896 782 933 847.5 c 128,-1,5
 970 913 970 913 989 1006 c 0,6,7
 1009 1100 1009 1100 1001.5 1164.5 c 128,-1,8
 994 1229 994 1229 959.5 1268.5 c 128,-1,9
 925 1308 925 1308 864.5 1325.5 c 128,-1,10
 804 1343 804 1343 719 1343 c 2,11,-1
 586 1343 l 1,12,-1
 441 662 l 1,0,-1
338 176 m 2,13,14
 329 132 329 132 337 107.5 c 128,-1,15
 345 83 345 83 362.5 71 c 128,-1,16
 380 59 380 59 402.5 55.5 c 128,-1,17
 425 52 425 52 444.5 49.5 c 128,-1,18
 464 47 464 47 476 41.5 c 128,-1,19
 488 36 488 36 485 20 c 0,20,21
 483 11 483 11 475 3.5 c 128,-1,22
 467 -4 467 -4 453 -4 c 0,23,24
 435 -4 435 -4 415 -3.5 c 128,-1,25
 395 -3 395 -3 367 -2 c 128,-1,26
 339 -1 339 -1 299.5 -0.5 c 128,-1,27
 260 0 260 0 202 0 c 0,28,29
 145 0 145 0 105 -0.5 c 128,-1,30
 65 -1 65 -1 36.5 -2 c 128,-1,31
 8 -3 8 -3 -12 -3.5 c 128,-1,32
 -32 -4 -32 -4 -51 -4 c 0,33,34
 -65 -4 -65 -4 -69.5 3.5 c 128,-1,35
 -74 11 -74 11 -72 20 c 0,36,37
 -69 36 -69 36 -54.5 41.5 c 128,-1,38
 -40 47 -40 47 -19.5 49.5 c 128,-1,39
 1 52 1 52 25 55.5 c 128,-1,40
 49 59 49 59 71.5 71 c 128,-1,41
 94 83 94 83 113 107.5 c 128,-1,42
 132 132 132 132 141 176 c 2,43,-1
 361 1212 l 2,44,45
 371 1257 371 1257 362.5 1281.5 c 128,-1,46
 354 1306 354 1306 336.5 1318 c 128,-1,47
 319 1330 319 1330 296.5 1333.5 c 128,-1,48
 274 1337 274 1337 254.5 1339.5 c 128,-1,49
 235 1342 235 1342 223 1347 c 128,-1,50
 211 1352 211 1352 214 1368 c 0,51,52
 216 1377 216 1377 224 1385 c 128,-1,53
 232 1393 232 1393 246 1393 c 0,54,55
 265 1393 265 1393 285 1392.5 c 128,-1,56
 305 1392 305 1392 333 1391 c 128,-1,57
 361 1390 361 1390 400.5 1389.5 c 128,-1,58
 440 1389 440 1389 497 1389 c 0,59,60
 563 1389 563 1389 628.5 1391 c 128,-1,61
 694 1393 694 1393 760 1393 c 0,62,63
 872 1393 872 1393 960.5 1365.5 c 128,-1,64
 1049 1338 1049 1338 1107 1286 c 128,-1,65
 1165 1234 1165 1234 1188 1160 c 128,-1,66
 1211 1086 1211 1086 1191 993 c 0,67,68
 1169 890 1169 890 1105.5 817.5 c 128,-1,69
 1042 745 1042 745 952 699 c 128,-1,70
 862 653 862 653 753 632.5 c 128,-1,71
 644 612 644 612 531 612 c 2,72,-1
 431 612 l 1,73,-1
 338 176 l 2,13,14
EndSplineSet
Substitution2: "<17001,16003> Urdu lookup 100 subtable" P
EndChar

StartChar: Q
Encoding: 81 81 52
Width: 1593
GlyphClass: 2
Flags: W
LayerCount: 2
Fore
SplineSet
316 694 m 0,0,1
 289 565 289 565 286.5 464 c 128,-1,2
 284 363 284 363 302 288 c 128,-1,3
 320 213 320 213 355 161 c 128,-1,4
 390 109 390 109 436 77 c 128,-1,5
 482 45 482 45 537 30.5 c 128,-1,6
 592 16 592 16 650 16 c 0,7,8
 737 16 737 16 829 49 c 128,-1,9
 921 82 921 82 1005.5 160.5 c 128,-1,10
 1090 239 1090 239 1160 369.5 c 128,-1,11
 1230 500 1230 500 1271 694 c 0,12,13
 1299 824 1299 824 1301 924.5 c 128,-1,14
 1303 1025 1303 1025 1285 1100 c 128,-1,15
 1267 1175 1267 1175 1232.5 1227 c 128,-1,16
 1198 1279 1198 1279 1151.5 1311.5 c 128,-1,17
 1105 1344 1105 1344 1050.5 1358 c 128,-1,18
 996 1372 996 1372 938 1372 c 0,19,20
 851 1372 851 1372 758.5 1339 c 128,-1,21
 666 1306 666 1306 581.5 1227.5 c 128,-1,22
 497 1149 497 1149 427 1018.5 c 128,-1,23
 357 888 357 888 316 694 c 0,0,1
1496 694 m 0,24,25
 1473 586 1473 586 1426 491 c 128,-1,26
 1379 396 1379 396 1315.5 317 c 128,-1,27
 1252 238 1252 238 1175 175 c 128,-1,28
 1098 112 1098 112 1015 67.5 c 128,-1,29
 932 23 932 23 846.5 -2.5 c 128,-1,30
 761 -28 761 -28 680 -33 c 1,31,-1
 680 -37 l 1,32,33
 771 -69 771 -69 844 -100 c 128,-1,34
 917 -131 917 -131 979.5 -155 c 128,-1,35
 1042 -179 1042 -179 1097.5 -194 c 128,-1,36
 1153 -209 1153 -209 1208 -209 c 0,37,38
 1286 -209 1286 -209 1355.5 -175.5 c 128,-1,39
 1425 -142 1425 -142 1469 -86 c 0,40,41
 1486 -64 1486 -64 1496.5 -50.5 c 128,-1,42
 1507 -37 1507 -37 1519 -37 c 0,43,44
 1538 -37 1538 -37 1533 -59 c 0,45,46
 1530 -74 1530 -74 1516 -99.5 c 128,-1,47
 1502 -125 1502 -125 1475 -154.5 c 128,-1,48
 1448 -184 1448 -184 1408.5 -215 c 128,-1,49
 1369 -246 1369 -246 1315 -271 c 128,-1,50
 1261 -296 1261 -296 1191.5 -312 c 128,-1,51
 1122 -328 1122 -328 1037 -328 c 0,52,53
 962 -328 962 -328 898.5 -312 c 128,-1,54
 835 -296 835 -296 778.5 -272 c 128,-1,55
 722 -248 722 -248 670 -219.5 c 128,-1,56
 618 -191 618 -191 567.5 -167 c 128,-1,57
 517 -143 517 -143 465 -127 c 128,-1,58
 413 -111 413 -111 356 -111 c 0,59,60
 310 -111 310 -111 275 -121 c 128,-1,61
 240 -131 240 -131 212.5 -147.5 c 128,-1,62
 185 -164 185 -164 164 -184 c 128,-1,63
 143 -204 143 -204 126 -225 c 0,64,65
 109 -245 109 -245 100 -255.5 c 128,-1,66
 91 -266 91 -266 76 -266 c 0,67,68
 66 -266 66 -266 62 -258 c 128,-1,69
 58 -250 58 -250 60 -242 c 0,70,71
 65 -221 65 -221 91 -184 c 128,-1,72
 117 -147 117 -147 166 -109.5 c 128,-1,73
 215 -72 215 -72 287 -41.5 c 128,-1,74
 359 -11 359 -11 455 -4 c 1,75,-1
 456 0 l 1,76,77
 362 30 362 30 282 90.5 c 128,-1,78
 202 151 202 151 150 239.5 c 128,-1,79
 98 328 98 328 80 442.5 c 128,-1,80
 62 557 62 557 91 694 c 0,81,82
 115 807 115 807 165 905 c 128,-1,83
 215 1003 215 1003 283 1084 c 128,-1,84
 351 1165 351 1165 432.5 1227.5 c 128,-1,85
 514 1290 514 1290 601.5 1333 c 128,-1,86
 689 1376 689 1376 778 1398.5 c 128,-1,87
 867 1421 867 1421 949 1421 c 256,88,89
 1031 1421 1031 1421 1110.5 1398.5 c 128,-1,90
 1190 1376 1190 1376 1258.5 1333 c 128,-1,91
 1327 1290 1327 1290 1382 1227.5 c 128,-1,92
 1437 1165 1437 1165 1470 1084 c 128,-1,93
 1503 1003 1503 1003 1511.5 905 c 128,-1,94
 1520 807 1520 807 1496 694 c 0,24,25
EndSplineSet
Substitution2: "<17001,16003> Urdu lookup 100 subtable" Q
EndChar

StartChar: R
Encoding: 82 82 53
Width: 1366
GlyphClass: 2
Flags: W
LayerCount: 2
Fore
SplineSet
472 713 m 1,0,-1
 617 713 l 2,1,2
 784 713 784 713 891 791.5 c 128,-1,3
 998 870 998 870 1033 1036 c 0,4,5
 1049 1111 1049 1111 1037 1168 c 128,-1,6
 1025 1225 1025 1225 988.5 1264 c 128,-1,7
 952 1303 952 1303 892.5 1323 c 128,-1,8
 833 1343 833 1343 753 1343 c 2,9,-1
 606 1343 l 1,10,-1
 472 713 l 1,0,-1
358 176 m 2,11,12
 349 132 349 132 357 107.5 c 128,-1,13
 365 83 365 83 382.5 71 c 128,-1,14
 400 59 400 59 422.5 55.5 c 128,-1,15
 445 52 445 52 464.5 49.5 c 128,-1,16
 484 47 484 47 496 41.5 c 128,-1,17
 508 36 508 36 505 20 c 0,18,19
 503 11 503 11 495.5 3.5 c 128,-1,20
 488 -4 488 -4 474 -4 c 0,21,22
 455 -4 455 -4 435 -3.5 c 128,-1,23
 415 -3 415 -3 387 -2 c 128,-1,24
 359 -1 359 -1 319.5 -0.5 c 128,-1,25
 280 0 280 0 223 0 c 0,26,27
 165 0 165 0 125.5 -0.5 c 128,-1,28
 86 -1 86 -1 57.5 -2 c 128,-1,29
 29 -3 29 -3 8.5 -3.5 c 128,-1,30
 -12 -4 -12 -4 -30 -4 c 0,31,32
 -44 -4 -44 -4 -49 3.5 c 128,-1,33
 -54 11 -54 11 -52 20 c 0,34,35
 -49 36 -49 36 -34.5 41.5 c 128,-1,36
 -20 47 -20 47 0.5 49.5 c 128,-1,37
 21 52 21 52 45 55.5 c 128,-1,38
 69 59 69 59 91.5 71 c 128,-1,39
 114 83 114 83 133 107.5 c 128,-1,40
 152 132 152 132 161 176 c 2,41,-1
 381 1212 l 2,42,43
 391 1257 391 1257 382.5 1281.5 c 128,-1,44
 374 1306 374 1306 356.5 1318 c 128,-1,45
 339 1330 339 1330 316.5 1333.5 c 128,-1,46
 294 1337 294 1337 274.5 1339.5 c 128,-1,47
 255 1342 255 1342 243 1347 c 128,-1,48
 231 1352 231 1352 234 1368 c 0,49,50
 236 1377 236 1377 244.5 1385 c 128,-1,51
 253 1393 253 1393 267 1393 c 0,52,53
 285 1393 285 1393 305 1392.5 c 128,-1,54
 325 1392 325 1392 353 1391 c 128,-1,55
 381 1390 381 1390 420.5 1389.5 c 128,-1,56
 460 1389 460 1389 518 1389 c 0,57,58
 592 1389 592 1389 654 1391 c 128,-1,59
 716 1393 716 1393 781 1393 c 0,60,61
 917 1393 917 1393 1010.5 1363.5 c 128,-1,62
 1104 1334 1104 1334 1159.5 1284 c 128,-1,63
 1215 1234 1215 1234 1233 1168 c 128,-1,64
 1251 1102 1251 1102 1235 1028 c 0,65,66
 1224 974 1224 974 1192.5 924 c 128,-1,67
 1161 874 1161 874 1116 833 c 128,-1,68
 1071 792 1071 792 1015 762 c 128,-1,69
 959 732 959 732 897 719 c 0,70,71
 839 706 839 706 777.5 700.5 c 128,-1,72
 716 695 716 695 661 692 c 1,73,-1
 660 688 l 1,74,75
 739 681 739 681 794.5 668 c 128,-1,76
 850 655 850 655 888.5 631 c 128,-1,77
 927 607 927 607 951 569 c 128,-1,78
 975 531 975 531 992 475 c 2,79,-1
 1081 186 l 2,80,81
 1095 139 1095 139 1116 112 c 128,-1,82
 1137 85 1137 85 1160 70.5 c 128,-1,83
 1183 56 1183 56 1205.5 51 c 128,-1,84
 1228 46 1228 46 1246 43.5 c 128,-1,85
 1264 41 1264 41 1274 37 c 128,-1,86
 1284 33 1284 33 1281 20 c 0,87,88
 1278 8 1278 8 1272.5 2 c 128,-1,89
 1267 -4 1267 -4 1252 -4 c 0,90,91
 1210 -4 1210 -4 1154.5 -2 c 128,-1,92
 1099 0 1099 0 1042 0 c 2,93,-1
 923 0 l 1,94,-1
 767 518 l 1,95,96
 752 563 752 563 730.5 593.5 c 128,-1,97
 709 624 709 624 678 642.5 c 128,-1,98
 647 661 647 661 607.5 668.5 c 128,-1,99
 568 676 568 676 517 676 c 2,100,-1
 464 676 l 1,101,-1
 358 176 l 2,11,12
EndSplineSet
Substitution2: "<17001,16003> Urdu lookup 100 subtable" R
EndChar

StartChar: S
Encoding: 83 83 54
Width: 1176
GlyphClass: 2
Flags: W
LayerCount: 2
Fore
SplineSet
101 549 m 2,0,1
 106 574 106 574 112.5 588 c 128,-1,2
 119 602 119 602 139 602 c 0,3,4
 152 602 152 602 157.5 594 c 128,-1,5
 163 586 163 586 163.5 568 c 128,-1,6
 164 550 164 550 162.5 520 c 128,-1,7
 161 490 161 490 161 446 c 0,8,9
 161 319 161 319 186.5 235.5 c 128,-1,10
 212 152 212 152 253.5 103.5 c 128,-1,11
 295 55 295 55 348.5 35.5 c 128,-1,12
 402 16 402 16 459 16 c 0,13,14
 528 16 528 16 591.5 35.5 c 128,-1,15
 655 55 655 55 706.5 92 c 128,-1,16
 758 129 758 129 794 182.5 c 128,-1,17
 830 236 830 236 844 303 c 0,18,19
 859 375 859 375 848 426.5 c 128,-1,20
 837 478 837 478 807.5 516 c 128,-1,21
 778 554 778 554 733.5 581 c 128,-1,22
 689 608 689 608 637.5 629.5 c 128,-1,23
 586 651 586 651 530.5 670.5 c 128,-1,24
 475 690 475 690 423.5 713 c 128,-1,25
 372 736 372 736 328.5 765.5 c 128,-1,26
 285 795 285 795 256 836.5 c 128,-1,27
 227 878 227 878 217 934.5 c 128,-1,28
 207 991 207 991 224 1069 c 256,29,30
 241 1147 241 1147 289 1211.5 c 128,-1,31
 337 1276 337 1276 404 1322.5 c 128,-1,32
 471 1369 471 1369 549.5 1395 c 128,-1,33
 628 1421 628 1421 705 1421 c 0,34,35
 776 1421 776 1421 830 1409 c 128,-1,36
 884 1397 884 1397 923.5 1382 c 128,-1,37
 963 1367 963 1367 989 1355 c 128,-1,38
 1015 1343 1015 1343 1030 1343 c 0,39,40
 1053 1343 1053 1343 1064 1354 c 128,-1,41
 1075 1365 1075 1365 1082.5 1378 c 128,-1,42
 1090 1391 1090 1391 1098 1402 c 128,-1,43
 1106 1413 1106 1413 1123 1413 c 0,44,45
 1148 1413 1148 1413 1143 1376 c 0,46,47
 1131 1273 1131 1273 1122 1201 c 128,-1,48
 1113 1129 1113 1129 1106.5 1080 c 128,-1,49
 1100 1031 1100 1031 1096 1002.5 c 128,-1,50
 1092 974 1092 974 1090 958 c 128,-1,51
 1088 942 1088 942 1086.5 935.5 c 128,-1,52
 1085 929 1085 929 1084 924 c 0,53,54
 1081 911 1081 911 1075 900 c 128,-1,55
 1069 889 1069 889 1052 889 c 0,56,57
 1043 889 1043 889 1038.5 892.5 c 128,-1,58
 1034 896 1034 896 1031.5 906.5 c 128,-1,59
 1029 917 1029 917 1027.5 937 c 128,-1,60
 1026 957 1026 957 1023 989 c 0,61,62
 1003 1192 1003 1192 926 1288 c 128,-1,63
 849 1384 849 1384 701 1384 c 0,64,65
 650 1384 650 1384 602 1365.5 c 128,-1,66
 554 1347 554 1347 515.5 1315 c 128,-1,67
 477 1283 477 1283 450 1240 c 128,-1,68
 423 1197 423 1197 413 1149 c 0,69,70
 401 1091 401 1091 413.5 1048 c 128,-1,71
 426 1005 426 1005 456.5 971.5 c 128,-1,72
 487 938 487 938 531.5 912.5 c 128,-1,73
 576 887 576 887 628 864.5 c 128,-1,74
 680 842 680 842 734.5 820 c 128,-1,75
 789 798 789 798 840 772 c 128,-1,76
 891 746 891 746 934 713.5 c 128,-1,77
 977 681 977 681 1005.5 637 c 128,-1,78
 1034 593 1034 593 1043.5 535 c 128,-1,79
 1053 477 1053 477 1037 401 c 0,80,81
 1021 323 1021 323 984.5 260.5 c 128,-1,82
 948 198 948 198 899.5 150 c 128,-1,83
 851 102 851 102 794 67.5 c 128,-1,84
 737 33 737 33 678 10.5 c 128,-1,85
 619 -12 619 -12 563 -22.5 c 128,-1,86
 507 -33 507 -33 460 -33 c 0,87,88
 389 -33 389 -33 332.5 -19.5 c 128,-1,89
 276 -6 276 -6 233.5 10 c 128,-1,90
 191 26 191 26 162 39.5 c 128,-1,91
 133 53 133 53 117 53 c 0,92,93
 96 53 96 53 83 41.5 c 128,-1,94
 70 30 70 30 60 16.5 c 128,-1,95
 50 3 50 3 38.5 -8.5 c 128,-1,96
 27 -20 27 -20 9 -20 c 0,97,98
 -2 -20 -2 -20 -8.5 -8.5 c 128,-1,99
 -15 3 -15 3 -10 25 c 2,100,-1
 101 549 l 2,0,1
EndSplineSet
Substitution2: "<17001,16003> Urdu lookup 100 subtable" S
EndChar

StartChar: T
Encoding: 84 84 55
Width: 1327
GlyphClass: 2
Flags: W
LayerCount: 2
Fore
SplineSet
649 176 m 2,0,1
 640 132 640 132 650.5 107.5 c 128,-1,2
 661 83 661 83 682 71 c 128,-1,3
 703 59 703 59 730 55.5 c 128,-1,4
 757 52 757 52 780 49.5 c 128,-1,5
 803 47 803 47 817.5 41.5 c 128,-1,6
 832 36 832 36 829 20 c 0,7,8
 827 11 827 11 820.5 3.5 c 128,-1,9
 814 -4 814 -4 797 -4 c 0,10,11
 766 -4 766 -4 739.5 -3.5 c 128,-1,12
 713 -3 713 -3 682 -2 c 128,-1,13
 651 -1 651 -1 611 -0.5 c 128,-1,14
 571 0 571 0 514 0 c 0,15,16
 456 0 456 0 416 -0.5 c 128,-1,17
 376 -1 376 -1 344.5 -2 c 128,-1,18
 313 -3 313 -3 286 -3.5 c 128,-1,19
 259 -4 259 -4 228 -4 c 0,20,21
 212 -4 212 -4 208 3.5 c 128,-1,22
 204 11 204 11 206 20 c 0,23,24
 209 36 209 36 226 41.5 c 128,-1,25
 243 47 243 47 267 49.5 c 128,-1,26
 291 52 291 52 319.5 55.5 c 128,-1,27
 348 59 348 59 374 71 c 128,-1,28
 400 83 400 83 421.5 107.5 c 128,-1,29
 443 132 443 132 452 176 c 2,30,-1
 702 1352 l 1,31,32
 633 1344 633 1344 563.5 1315.5 c 128,-1,33
 494 1287 494 1287 428.5 1243.5 c 128,-1,34
 363 1200 363 1200 305.5 1145 c 128,-1,35
 248 1090 248 1090 203 1028 c 0,36,37
 181 998 181 998 168.5 979 c 128,-1,38
 156 960 156 960 148 949 c 128,-1,39
 140 938 140 938 135 934 c 128,-1,40
 130 930 130 930 123 930 c 0,41,42
 117 930 117 930 113.5 934 c 128,-1,43
 110 938 110 938 112 946 c 0,44,45
 114 955 114 955 123 976.5 c 128,-1,46
 132 998 132 998 148 1030 c 2,47,-1
 326 1395 l 1,48,49
 334 1409 334 1409 340 1415 c 128,-1,50
 346 1421 346 1421 357 1421 c 0,51,52
 366 1421 366 1421 369 1416 c 128,-1,53
 372 1411 372 1411 377 1405 c 256,54,55
 382 1399 382 1399 392.5 1394 c 128,-1,56
 403 1389 403 1389 426 1389 c 2,57,-1
 1192 1389 l 2,58,59
 1215 1389 1215 1389 1226.5 1394 c 128,-1,60
 1238 1399 1238 1399 1246 1405 c 256,61,62
 1254 1411 1254 1411 1259.5 1416 c 128,-1,63
 1265 1421 1265 1421 1274 1421 c 0,64,65
 1285 1421 1285 1421 1288 1415 c 128,-1,66
 1291 1409 1291 1409 1293 1395 c 1,67,-1
 1315 1030 l 1,68,69
 1318 998 1318 998 1318.5 976.5 c 128,-1,70
 1319 955 1319 955 1317 946 c 0,71,72
 1312 930 1312 930 1298 930 c 0,73,74
 1291 930 1291 930 1287.5 934 c 128,-1,75
 1284 938 1284 938 1281 949 c 128,-1,76
 1278 960 1278 960 1273.5 979 c 128,-1,77
 1269 998 1269 998 1260 1028 c 0,78,79
 1242 1090 1242 1090 1207.5 1145 c 128,-1,80
 1173 1200 1173 1200 1126 1243.5 c 128,-1,81
 1079 1287 1079 1287 1021.5 1315.5 c 128,-1,82
 964 1344 964 1344 899 1352 c 1,83,-1
 649 176 l 2,0,1
EndSplineSet
Substitution2: "<17001,16003> Urdu lookup 100 subtable" T
EndChar

StartChar: U
Encoding: 85 85 56
Width: 1403
GlyphClass: 2
Flags: W
LayerCount: 2
Fore
SplineSet
333 416 m 2,0,1
 314 328 314 328 322.5 256.5 c 128,-1,2
 331 185 331 185 364.5 135 c 128,-1,3
 398 85 398 85 456 57.5 c 128,-1,4
 514 30 514 30 595 29 c 0,5,6
 671 28 671 28 745 50.5 c 128,-1,7
 819 73 819 73 882 118.5 c 128,-1,8
 945 164 945 164 991.5 233.5 c 128,-1,9
 1038 303 1038 303 1058 397 c 2,10,-1
 1189 1012 l 2,11,12
 1204 1084 1204 1084 1204.5 1135 c 128,-1,13
 1205 1186 1205 1186 1196 1220.5 c 128,-1,14
 1187 1255 1187 1255 1170 1275.5 c 128,-1,15
 1153 1296 1153 1296 1133.5 1308 c 128,-1,16
 1114 1320 1114 1320 1094.5 1326 c 128,-1,17
 1075 1332 1075 1332 1059.5 1337 c 128,-1,18
 1044 1342 1044 1342 1035 1348.5 c 128,-1,19
 1026 1355 1026 1355 1029 1368 c 0,20,21
 1035 1393 1035 1393 1072 1393 c 0,22,23
 1087 1393 1087 1393 1106 1392.5 c 128,-1,24
 1125 1392 1125 1392 1152.5 1391 c 128,-1,25
 1180 1390 1180 1390 1216.5 1389.5 c 128,-1,26
 1253 1389 1253 1389 1302 1389 c 0,27,28
 1400 1389 1400 1389 1453 1391 c 128,-1,29
 1506 1393 1506 1393 1535 1393 c 0,30,31
 1552 1393 1552 1393 1560 1387.5 c 128,-1,32
 1568 1382 1568 1382 1565 1368 c 0,33,34
 1561 1351 1561 1351 1542.5 1344.5 c 128,-1,35
 1524 1338 1524 1338 1496 1330.5 c 128,-1,36
 1468 1323 1468 1323 1434.5 1308.5 c 128,-1,37
 1401 1294 1401 1294 1368 1260 c 128,-1,38
 1335 1226 1335 1226 1305 1167 c 128,-1,39
 1275 1108 1275 1108 1255 1012 c 2,40,-1
 1128 418 l 2,41,42
 1109 327 1109 327 1065 245.5 c 128,-1,43
 1021 164 1021 164 951 102 c 128,-1,44
 881 40 881 40 785 3.5 c 128,-1,45
 689 -33 689 -33 565 -33 c 0,46,47
 440 -33 440 -33 351 -1 c 128,-1,48
 262 31 262 31 209.5 86.5 c 128,-1,49
 157 142 157 142 140 217.5 c 128,-1,50
 123 293 123 293 141 381 c 2,51,-1
 318 1212 l 2,52,53
 328 1257 328 1257 319.5 1281.5 c 128,-1,54
 311 1306 311 1306 293.5 1318 c 128,-1,55
 276 1330 276 1330 253.5 1333.5 c 128,-1,56
 231 1337 231 1337 211.5 1339.5 c 128,-1,57
 192 1342 192 1342 180 1347 c 128,-1,58
 168 1352 168 1352 171 1368 c 0,59,60
 173 1377 173 1377 181 1385 c 128,-1,61
 189 1393 189 1393 203 1393 c 0,62,63
 221 1393 221 1393 241 1392.5 c 128,-1,64
 261 1392 261 1392 288 1391 c 128,-1,65
 315 1390 315 1390 352 1389.5 c 128,-1,66
 389 1389 389 1389 442 1389 c 0,67,68
 500 1389 500 1389 539.5 1389.5 c 128,-1,69
 579 1390 579 1390 607.5 1391 c 128,-1,70
 636 1392 636 1392 656.5 1392.5 c 128,-1,71
 677 1393 677 1393 695 1393 c 0,72,73
 709 1393 709 1393 713 1385 c 128,-1,74
 717 1377 717 1377 715 1368 c 0,75,76
 712 1352 712 1352 697.5 1347 c 128,-1,77
 683 1342 683 1342 662.5 1339.5 c 128,-1,78
 642 1337 642 1337 618 1333.5 c 128,-1,79
 594 1330 594 1330 571.5 1318 c 128,-1,80
 549 1306 549 1306 530 1281.5 c 128,-1,81
 511 1257 511 1257 502 1212 c 2,82,-1
 333 416 l 2,0,1
EndSplineSet
Substitution2: "<17001,16003> Urdu lookup 100 subtable" U
EndChar

StartChar: V
Encoding: 86 86 57
Width: 1366
GlyphClass: 2
Flags: W
LayerCount: 2
Fore
SplineSet
659 231 m 1,0,-1
 1054 926 l 2,1,2
 1091 991 1091 991 1118.5 1049 c 128,-1,3
 1146 1107 1146 1107 1157 1159 c 256,4,5
 1168 1211 1168 1211 1161.5 1243.5 c 128,-1,6
 1155 1276 1155 1276 1139 1295.5 c 128,-1,7
 1123 1315 1123 1315 1101.5 1323.5 c 128,-1,8
 1080 1332 1080 1332 1061 1337.5 c 128,-1,9
 1042 1343 1042 1343 1030 1347.5 c 128,-1,10
 1018 1352 1018 1352 1020 1362 c 0,11,12
 1023 1376 1023 1376 1035 1384.5 c 128,-1,13
 1047 1393 1047 1393 1078 1393 c 0,14,15
 1092 1393 1092 1393 1110.5 1392.5 c 128,-1,16
 1129 1392 1129 1392 1155 1391 c 128,-1,17
 1181 1390 1181 1390 1216 1389.5 c 128,-1,18
 1251 1389 1251 1389 1298 1389 c 0,19,20
 1370 1389 1370 1389 1417.5 1391 c 128,-1,21
 1465 1393 1465 1393 1494 1393 c 0,22,23
 1515 1393 1515 1393 1530 1389 c 128,-1,24
 1545 1385 1545 1385 1541 1368 c 0,25,26
 1538 1353 1538 1353 1524 1348 c 128,-1,27
 1510 1343 1510 1343 1487 1337 c 128,-1,28
 1464 1331 1464 1331 1431.5 1317 c 128,-1,29
 1399 1303 1399 1303 1358 1269.5 c 128,-1,30
 1317 1236 1317 1236 1268 1176.5 c 128,-1,31
 1219 1117 1219 1117 1162 1020 c 2,32,-1
 594 45 l 1,33,34
 577 13 577 13 562 -10 c 128,-1,35
 547 -33 547 -33 530 -33 c 256,36,37
 513 -33 513 -33 508.5 -10 c 128,-1,38
 504 13 504 13 500 45 c 1,39,-1
 285 1200 l 2,40,41
 277 1244 277 1244 261.5 1269.5 c 128,-1,42
 246 1295 246 1295 227.5 1309.5 c 128,-1,43
 209 1324 209 1324 190 1330 c 128,-1,44
 171 1336 171 1336 156.5 1340 c 128,-1,45
 142 1344 142 1344 133.5 1349 c 128,-1,46
 125 1354 125 1354 128 1366 c 0,47,48
 130 1378 130 1378 143 1385.5 c 128,-1,49
 156 1393 156 1393 187 1393 c 0,50,51
 205 1393 205 1393 225.5 1392.5 c 128,-1,52
 246 1392 246 1392 271 1391 c 128,-1,53
 296 1390 296 1390 328.5 1389.5 c 128,-1,54
 361 1389 361 1389 403 1389 c 0,55,56
 436 1389 436 1389 468.5 1389.5 c 128,-1,57
 501 1390 501 1390 529 1391 c 128,-1,58
 557 1392 557 1392 579.5 1392.5 c 128,-1,59
 602 1393 602 1393 615 1393 c 0,60,61
 646 1393 646 1393 655 1385.5 c 128,-1,62
 664 1378 664 1378 661 1364 c 0,63,64
 659 1351 659 1351 647 1346 c 128,-1,65
 635 1341 635 1341 618.5 1338 c 128,-1,66
 602 1335 602 1335 582.5 1332.5 c 128,-1,67
 563 1330 563 1330 545 1321.5 c 128,-1,68
 527 1313 527 1313 513 1297.5 c 128,-1,69
 499 1282 499 1282 493 1253 c 0,70,71
 490 1237 490 1237 489 1221.5 c 128,-1,72
 488 1206 488 1206 490 1185.5 c 128,-1,73
 492 1165 492 1165 497 1136 c 128,-1,74
 502 1107 502 1107 509 1063 c 2,75,-1
 659 231 l 1,0,-1
EndSplineSet
Substitution2: "<17001,16003> Urdu lookup 100 subtable" V
EndChar

StartChar: W
Encoding: 87 87 58
Width: 1858
GlyphClass: 2
Flags: W
LayerCount: 2
Fore
SplineSet
1226 262 m 1,0,-1
 1230 262 l 1,1,-1
 1598 963 l 2,2,3
 1609 982 1609 982 1620 1009 c 128,-1,4
 1631 1036 1631 1036 1641.5 1065.5 c 128,-1,5
 1652 1095 1652 1095 1660.5 1124 c 128,-1,6
 1669 1153 1669 1153 1674 1176 c 0,7,8
 1685 1227 1685 1227 1680 1258 c 128,-1,9
 1675 1289 1675 1289 1661 1307 c 128,-1,10
 1647 1325 1647 1325 1628 1332.5 c 128,-1,11
 1609 1340 1609 1340 1592 1344.5 c 128,-1,12
 1575 1349 1575 1349 1564 1353 c 128,-1,13
 1553 1357 1553 1357 1555 1368 c 0,14,15
 1559 1384 1559 1384 1572.5 1388.5 c 128,-1,16
 1586 1393 1586 1393 1616 1393 c 0,17,18
 1641 1393 1641 1393 1680.5 1391 c 128,-1,19
 1720 1389 1720 1389 1779 1389 c 0,20,21
 1854 1389 1854 1389 1907.5 1391 c 128,-1,22
 1961 1393 1961 1393 1989 1393 c 0,23,24
 2023 1393 2023 1393 2035 1389 c 128,-1,25
 2047 1385 2047 1385 2043 1368 c 0,26,27
 2041 1357 2041 1357 2027.5 1353 c 128,-1,28
 2014 1349 2014 1349 1992 1342.5 c 128,-1,29
 1970 1336 1970 1336 1940 1323.5 c 128,-1,30
 1910 1311 1910 1311 1874.5 1283 c 128,-1,31
 1839 1255 1839 1255 1799 1207 c 128,-1,32
 1759 1159 1759 1159 1717 1081 c 2,33,-1
 1157 45 l 2,34,35
 1140 13 1140 13 1125 -10 c 128,-1,36
 1110 -33 1110 -33 1093 -33 c 0,37,38
 1085 -33 1085 -33 1080 -27 c 128,-1,39
 1075 -21 1075 -21 1072 -10.5 c 128,-1,40
 1069 0 1069 0 1067 14.5 c 128,-1,41
 1065 29 1065 29 1063 45 c 2,42,-1
 960 889 l 1,43,-1
 956 889 l 1,44,-1
 523 45 l 2,45,46
 506 13 506 13 491.5 -10 c 128,-1,47
 477 -33 477 -33 460 -33 c 0,48,49
 452 -33 452 -33 447 -27 c 128,-1,50
 442 -21 442 -21 439 -10.5 c 128,-1,51
 436 0 436 0 434 14.5 c 128,-1,52
 432 29 432 29 430 45 c 2,53,-1
 275 1194 l 2,54,55
 268 1243 268 1243 253 1272 c 128,-1,56
 238 1301 238 1301 220.5 1317 c 128,-1,57
 203 1333 203 1333 184 1339 c 128,-1,58
 165 1345 165 1345 150.5 1348.5 c 128,-1,59
 136 1352 136 1352 127.5 1355.5 c 128,-1,60
 119 1359 119 1359 121 1370 c 0,61,62
 123 1379 123 1379 131.5 1386 c 128,-1,63
 140 1393 140 1393 160 1393 c 0,64,65
 170 1393 170 1393 184.5 1392.5 c 128,-1,66
 199 1392 199 1392 223.5 1391 c 128,-1,67
 248 1390 248 1390 285 1389.5 c 128,-1,68
 322 1389 322 1389 376 1389 c 0,69,70
 412 1389 412 1389 448.5 1389.5 c 128,-1,71
 485 1390 485 1390 516.5 1391 c 128,-1,72
 548 1392 548 1392 572.5 1392.5 c 128,-1,73
 597 1393 597 1393 609 1393 c 0,74,75
 631 1393 631 1393 636 1387 c 128,-1,76
 641 1381 641 1381 639 1370 c 0,77,78
 636 1357 636 1357 612.5 1351.5 c 128,-1,79
 589 1346 589 1346 560.5 1338 c 128,-1,80
 532 1330 532 1330 506.5 1313 c 128,-1,81
 481 1296 481 1296 473 1260 c 0,82,83
 468 1234 468 1234 472.5 1200.5 c 128,-1,84
 477 1167 477 1167 482 1135 c 2,85,-1
 603 281 l 1,86,-1
 607 281 l 1,87,-1
 946 958 l 1,88,-1
 909 1237 l 2,89,90
 905 1269 905 1269 892.5 1288.5 c 128,-1,91
 880 1308 880 1308 864.5 1319.5 c 128,-1,92
 849 1331 849 1331 832 1336.5 c 128,-1,93
 815 1342 815 1342 801 1345.5 c 128,-1,94
 787 1349 787 1349 779 1353.5 c 128,-1,95
 771 1358 771 1358 773 1368 c 0,96,97
 777 1384 777 1384 788.5 1388.5 c 128,-1,98
 800 1393 800 1393 822 1393 c 0,99,100
 871 1393 871 1393 922.5 1391 c 128,-1,101
 974 1389 974 1389 1019 1389 c 0,102,103
 1051 1389 1051 1389 1086.5 1389.5 c 128,-1,104
 1122 1390 1122 1390 1155 1391 c 128,-1,105
 1188 1392 1188 1392 1215 1392.5 c 128,-1,106
 1242 1393 1242 1393 1256 1393 c 0,107,108
 1275 1393 1275 1393 1279.5 1388 c 128,-1,109
 1284 1383 1284 1383 1282 1372 c 0,110,111
 1280 1360 1280 1360 1269 1355.5 c 128,-1,112
 1258 1351 1258 1351 1243 1348.5 c 128,-1,113
 1228 1346 1228 1346 1210.5 1343.5 c 128,-1,114
 1193 1341 1193 1341 1177 1334 c 128,-1,115
 1161 1327 1161 1327 1148 1312.5 c 128,-1,116
 1135 1298 1135 1298 1130 1272 c 0,117,118
 1117 1213 1117 1213 1121 1168 c 128,-1,119
 1125 1123 1125 1123 1130 1087 c 2,120,-1
 1226 262 l 1,0,-1
EndSplineSet
Substitution2: "<17001,16003> Urdu lookup 100 subtable" W
EndChar

StartChar: X
Encoding: 88 88 59
Width: 1366
GlyphClass: 2
Flags: W
LayerCount: 2
Fore
SplineSet
790 819 m 1,0,-1
 932 989 l 2,1,2
 980 1046 980 1046 1020 1105 c 128,-1,3
 1060 1164 1060 1164 1074 1229 c 0,4,5
 1082 1266 1082 1266 1076 1287.5 c 128,-1,6
 1070 1309 1070 1309 1056.5 1321 c 128,-1,7
 1043 1333 1043 1333 1025.5 1338.5 c 128,-1,8
 1008 1344 1008 1344 992.5 1347 c 128,-1,9
 977 1350 977 1350 967.5 1354.5 c 128,-1,10
 958 1359 958 1359 960 1370 c 0,11,12
 962 1379 962 1379 970.5 1386 c 128,-1,13
 979 1393 979 1393 996 1393 c 0,14,15
 1034 1393 1034 1393 1081 1391 c 128,-1,16
 1128 1389 1128 1389 1196 1389 c 0,17,18
 1284 1389 1284 1389 1340 1391 c 128,-1,19
 1396 1393 1396 1393 1430 1393 c 0,20,21
 1450 1393 1450 1393 1454.5 1387.5 c 128,-1,22
 1459 1382 1459 1382 1457 1374 c 0,23,24
 1455 1364 1455 1364 1445 1360 c 128,-1,25
 1435 1356 1435 1356 1416 1350 c 128,-1,26
 1397 1344 1397 1344 1368 1331.5 c 128,-1,27
 1339 1319 1339 1319 1300 1292 c 0,28,29
 1277 1277 1277 1277 1249 1253 c 128,-1,30
 1221 1229 1221 1229 1189.5 1199 c 128,-1,31
 1158 1169 1158 1169 1124.5 1134 c 128,-1,32
 1091 1099 1091 1099 1058 1061 c 2,33,-1
 807 774 l 1,34,-1
 1059 147 l 2,35,36
 1074 110 1074 110 1094.5 89.5 c 128,-1,37
 1115 69 1115 69 1136 59 c 128,-1,38
 1157 49 1157 49 1177.5 46 c 128,-1,39
 1198 43 1198 43 1213 40.5 c 128,-1,40
 1228 38 1228 38 1236.5 33.5 c 128,-1,41
 1245 29 1245 29 1242 16 c 0,42,43
 1240 7 1240 7 1232 1.5 c 128,-1,44
 1224 -4 1224 -4 1203 -4 c 0,45,46
 1187 -4 1187 -4 1168.5 -3.5 c 128,-1,47
 1150 -3 1150 -3 1119 -2 c 128,-1,48
 1088 -1 1088 -1 1040.5 -0.5 c 128,-1,49
 993 0 993 0 919 0 c 0,50,51
 868 0 868 0 813 -2 c 128,-1,52
 758 -4 758 -4 701 -4 c 0,53,54
 684 -4 684 -4 673.5 -0.5 c 128,-1,55
 663 3 663 3 666 18 c 0,56,57
 669 31 669 31 680 35.5 c 128,-1,58
 691 40 691 40 706.5 42.5 c 128,-1,59
 722 45 722 45 740 47.5 c 128,-1,60
 758 50 758 50 774.5 57.5 c 128,-1,61
 791 65 791 65 804.5 80 c 128,-1,62
 818 95 818 95 824 123 c 0,63,64
 826 135 826 135 824.5 151.5 c 128,-1,65
 823 168 823 168 819 186.5 c 128,-1,66
 815 205 815 205 809 224 c 128,-1,67
 803 243 803 243 797 258 c 2,68,-1
 648 641 l 1,69,-1
 450 406 l 2,70,71
 393 339 393 339 365.5 283.5 c 128,-1,72
 338 228 338 228 328 180 c 0,73,74
 318 135 318 135 324 109 c 128,-1,75
 330 83 330 83 344.5 70 c 128,-1,76
 359 57 359 57 378 53 c 128,-1,77
 397 49 397 49 413.5 46 c 128,-1,78
 430 43 430 43 440 38 c 128,-1,79
 450 33 450 33 447 18 c 0,80,81
 445 7 445 7 435.5 1.5 c 128,-1,82
 426 -4 426 -4 400 -4 c 0,83,84
 384 -4 384 -4 362.5 -3.5 c 128,-1,85
 341 -3 341 -3 309.5 -2 c 128,-1,86
 278 -1 278 -1 233 -0.5 c 128,-1,87
 188 0 188 0 124 0 c 0,88,89
 32 0 32 0 -24.5 -2 c 128,-1,90
 -81 -4 -81 -4 -106 -4 c 256,91,92
 -131 -4 -131 -4 -139.5 0 c 128,-1,93
 -148 4 -148 4 -144 23 c 0,94,95
 -141 36 -141 36 -130 40.5 c 128,-1,96
 -119 45 -119 45 -99 49 c 128,-1,97
 -79 53 -79 53 -50.5 60 c 128,-1,98
 -22 67 -22 67 15.5 84.5 c 128,-1,99
 53 102 53 102 100 133 c 128,-1,100
 147 164 147 164 203 217 c 0,101,102
 317 325 317 325 422 445.5 c 128,-1,103
 527 566 527 566 627 682 c 1,104,-1
 406 1241 l 2,105,106
 392 1276 392 1276 373 1296 c 128,-1,107
 354 1316 354 1316 334 1326.5 c 128,-1,108
 314 1337 314 1337 295 1340.5 c 128,-1,109
 276 1344 276 1344 261 1347 c 128,-1,110
 246 1350 246 1350 238 1354 c 128,-1,111
 230 1358 230 1358 233 1370 c 0,112,113
 235 1381 235 1381 245.5 1387 c 128,-1,114
 256 1393 256 1393 279 1393 c 0,115,116
 298 1393 298 1393 357.5 1391 c 128,-1,117
 417 1389 417 1389 510 1389 c 0,118,119
 565 1389 565 1389 620.5 1391 c 128,-1,120
 676 1393 676 1393 726 1393 c 0,121,122
 749 1393 749 1393 761 1389.5 c 128,-1,123
 773 1386 773 1386 770 1372 c 0,124,125
 768 1360 768 1360 757 1355.5 c 128,-1,126
 746 1351 746 1351 731.5 1349 c 128,-1,127
 717 1347 717 1347 700 1345.5 c 128,-1,128
 683 1344 683 1344 667 1338 c 128,-1,129
 651 1332 651 1332 639 1319.5 c 128,-1,130
 627 1307 627 1307 622 1284 c 0,131,132
 620 1272 620 1272 621.5 1257.5 c 128,-1,133
 623 1243 623 1243 627 1228 c 128,-1,134
 631 1213 631 1213 636.5 1198 c 128,-1,135
 642 1183 642 1183 647 1171 c 2,136,-1
 790 819 l 1,0,-1
EndSplineSet
Substitution2: "<17001,16003> Urdu lookup 100 subtable" X
EndChar

StartChar: Y
Encoding: 89 89 60
Width: 1251
GlyphClass: 2
Flags: W
LayerCount: 2
Fore
SplineSet
610 176 m 2,0,1
 601 132 601 132 609 107.5 c 128,-1,2
 617 83 617 83 634.5 71 c 128,-1,3
 652 59 652 59 674.5 55.5 c 128,-1,4
 697 52 697 52 716.5 49.5 c 128,-1,5
 736 47 736 47 748 41.5 c 128,-1,6
 760 36 760 36 757 20 c 0,7,8
 755 11 755 11 747.5 3.5 c 128,-1,9
 740 -4 740 -4 726 -4 c 0,10,11
 707 -4 707 -4 687 -3.5 c 128,-1,12
 667 -3 667 -3 639 -2 c 128,-1,13
 611 -1 611 -1 571.5 -0.5 c 128,-1,14
 532 0 532 0 475 0 c 0,15,16
 417 0 417 0 377.5 -0.5 c 128,-1,17
 338 -1 338 -1 309.5 -2 c 128,-1,18
 281 -3 281 -3 260.5 -3.5 c 128,-1,19
 240 -4 240 -4 222 -4 c 0,20,21
 208 -4 208 -4 203 3.5 c 128,-1,22
 198 11 198 11 200 20 c 0,23,24
 203 36 203 36 217.5 41.5 c 128,-1,25
 232 47 232 47 252.5 49.5 c 128,-1,26
 273 52 273 52 297 55.5 c 128,-1,27
 321 59 321 59 343.5 71 c 128,-1,28
 366 83 366 83 384.5 107.5 c 128,-1,29
 403 132 403 132 413 176 c 2,30,-1
 510 631 l 1,31,-1
 312 1221 l 2,32,33
 299 1261 299 1261 281 1284.5 c 128,-1,34
 263 1308 263 1308 244 1320 c 128,-1,35
 225 1332 225 1332 207 1336.5 c 128,-1,36
 189 1341 189 1341 175.5 1344.5 c 128,-1,37
 162 1348 162 1348 155 1352.5 c 128,-1,38
 148 1357 148 1357 151 1370 c 0,39,40
 153 1382 153 1382 168.5 1387.5 c 128,-1,41
 184 1393 184 1393 218 1393 c 0,42,43
 231 1393 231 1393 247 1392.5 c 128,-1,44
 263 1392 263 1392 285 1391 c 128,-1,45
 307 1390 307 1390 337.5 1389.5 c 128,-1,46
 368 1389 368 1389 409 1389 c 0,47,48
 457 1389 457 1389 489 1389.5 c 128,-1,49
 521 1390 521 1390 544 1391 c 128,-1,50
 567 1392 567 1392 585 1392.5 c 128,-1,51
 603 1393 603 1393 623 1393 c 0,52,53
 661 1393 661 1393 672 1389 c 128,-1,54
 683 1385 683 1385 679 1368 c 0,55,56
 677 1356 677 1356 666.5 1351.5 c 128,-1,57
 656 1347 656 1347 641.5 1344.5 c 128,-1,58
 627 1342 627 1342 610 1339.5 c 128,-1,59
 593 1337 593 1337 577.5 1330.5 c 128,-1,60
 562 1324 562 1324 549.5 1311 c 128,-1,61
 537 1298 537 1298 532 1274 c 0,62,63
 524 1232 524 1232 530.5 1189 c 128,-1,64
 537 1146 537 1146 557 1092 c 2,65,-1
 693 711 l 1,66,-1
 930 991 l 1,67,68
 980 1048 980 1048 1015.5 1105.5 c 128,-1,69
 1051 1163 1051 1163 1060 1208 c 0,70,71
 1069 1251 1069 1251 1065 1276 c 128,-1,72
 1061 1301 1061 1301 1049 1314 c 128,-1,73
 1037 1327 1037 1327 1021 1332 c 128,-1,74
 1005 1337 1005 1337 990.5 1340 c 128,-1,75
 976 1343 976 1343 965.5 1347.5 c 128,-1,76
 955 1352 955 1352 956 1364 c 0,77,78
 958 1379 958 1379 972 1386 c 128,-1,79
 986 1393 986 1393 1018 1393 c 0,80,81
 1034 1393 1034 1393 1050.5 1392.5 c 128,-1,82
 1067 1392 1067 1392 1088.5 1391 c 128,-1,83
 1110 1390 1110 1390 1140.5 1389.5 c 128,-1,84
 1171 1389 1171 1389 1216 1389 c 0,85,86
 1249 1389 1249 1389 1273 1389.5 c 128,-1,87
 1297 1390 1297 1390 1316.5 1391 c 128,-1,88
 1336 1392 1336 1392 1352.5 1392.5 c 128,-1,89
 1369 1393 1369 1393 1387 1393 c 0,90,91
 1413 1393 1413 1393 1422 1386.5 c 128,-1,92
 1431 1380 1431 1380 1428 1366 c 0,93,94
 1426 1356 1426 1356 1415.5 1351 c 128,-1,95
 1405 1346 1405 1346 1385.5 1339 c 128,-1,96
 1366 1332 1366 1332 1337.5 1318.5 c 128,-1,97
 1309 1305 1309 1305 1269.5 1277.5 c 128,-1,98
 1230 1250 1230 1250 1180 1204.5 c 128,-1,99
 1130 1159 1130 1159 1068 1087 c 2,100,-1
 717 682 l 1,101,-1
 610 176 l 2,0,1
EndSplineSet
Substitution2: "<17001,16003> Urdu lookup 100 subtable" Y
EndChar

StartChar: Z
Encoding: 90 90 61
Width: 1214
GlyphClass: 2
Flags: W
LayerCount: 2
Fore
SplineSet
991 1343 m 2,0,1
 862 1343 862 1343 756.5 1333.5 c 128,-1,2
 651 1324 651 1324 561.5 1288 c 128,-1,3
 472 1252 472 1252 393.5 1180 c 128,-1,4
 315 1108 315 1108 240 983 c 0,5,6
 224 955 224 955 215 943.5 c 128,-1,7
 206 932 206 932 195 932 c 256,8,9
 184 932 184 932 180 937 c 128,-1,10
 176 942 176 942 178 950 c 256,11,12
 180 958 180 958 185.5 969 c 128,-1,13
 191 980 191 980 204 1006 c 2,14,-1
 414 1393 l 1,15,16
 511 1391 511 1391 607 1390 c 128,-1,17
 703 1389 703 1389 800 1389 c 0,18,19
 881 1389 881 1389 941 1389.5 c 128,-1,20
 1001 1390 1001 1390 1050 1391 c 128,-1,21
 1099 1392 1099 1392 1140 1392.5 c 128,-1,22
 1181 1393 1181 1393 1223 1393 c 0,23,24
 1249 1393 1249 1393 1254 1386 c 128,-1,25
 1259 1379 1259 1379 1257 1370 c 0,26,27
 1255 1362 1255 1362 1248 1353.5 c 128,-1,28
 1241 1345 1241 1345 1233 1335 c 2,29,-1
 146 45 l 1,30,-1
 346 45 l 2,31,32
 446 45 446 45 537.5 73.5 c 128,-1,33
 629 102 629 102 709 151.5 c 128,-1,34
 789 201 789 201 856 268.5 c 128,-1,35
 923 336 923 336 973 414 c 0,36,37
 997 452 997 452 1010.5 476.5 c 128,-1,38
 1024 501 1024 501 1032 515 c 128,-1,39
 1040 529 1040 529 1045.5 535 c 128,-1,40
 1051 541 1051 541 1060 541 c 0,41,42
 1076 541 1076 541 1072 522 c 0,43,44
 1071 518 1071 518 1068 509 c 128,-1,45
 1065 500 1065 500 1060 488 c 128,-1,46
 1055 476 1055 476 1048.5 461.5 c 128,-1,47
 1042 447 1042 447 1035 432 c 2,48,-1
 836 -4 l 1,49,50
 721 -2 721 -2 610.5 -1 c 128,-1,51
 500 0 500 0 391 0 c 0,52,53
 275 0 275 0 198.5 -0.5 c 128,-1,54
 122 -1 122 -1 72.5 -2 c 128,-1,55
 23 -3 23 -3 -7.5 -3.5 c 128,-1,56
 -38 -4 -38 -4 -63 -4 c 256,57,58
 -88 -4 -88 -4 -85 10 c 0,59,60
 -84 14 -84 14 -81 19 c 128,-1,61
 -78 24 -78 24 -70 34 c 128,-1,62
 -62 44 -62 44 -47.5 61 c 128,-1,63
 -33 78 -33 78 -9 106 c 2,64,-1
 1026 1343 l 1,65,-1
 991 1343 l 2,0,1
EndSplineSet
Substitution2: "<17001,16003> Urdu lookup 100 subtable" Z
EndChar

StartChar: bracketleft
Encoding: 91 91 62
Width: 737
GlyphClass: 2
Flags: W
LayerCount: 2
Fore
SplineSet
149 1421 m 2,0,1
 149 1447 149 1447 159 1456.5 c 128,-1,2
 169 1466 169 1466 182 1466 c 2,3,-1
 503 1466 l 2,4,5
 519 1466 519 1466 527.5 1462 c 128,-1,6
 536 1458 536 1458 536 1446 c 0,7,8
 536 1435 536 1435 527 1430.5 c 128,-1,9
 518 1426 518 1426 503.5 1424.5 c 128,-1,10
 489 1423 489 1423 470.5 1422 c 128,-1,11
 452 1421 452 1421 432 1417 c 256,12,13
 412 1413 412 1413 392.5 1404.5 c 128,-1,14
 373 1396 373 1396 358 1379 c 128,-1,15
 343 1362 343 1362 334 1335.5 c 128,-1,16
 325 1309 325 1309 325 1268 c 2,17,-1
 325 -207 l 2,18,19
 325 -248 325 -248 334 -274.5 c 128,-1,20
 343 -301 343 -301 358 -318 c 128,-1,21
 373 -335 373 -335 392.5 -343.5 c 128,-1,22
 412 -352 412 -352 432 -356 c 256,23,24
 452 -360 452 -360 470.5 -361 c 128,-1,25
 489 -362 489 -362 503.5 -363.5 c 128,-1,26
 518 -365 518 -365 527 -369.5 c 128,-1,27
 536 -374 536 -374 536 -385 c 0,28,29
 536 -397 536 -397 527.5 -401.5 c 128,-1,30
 519 -406 519 -406 503 -406 c 2,31,-1
 182 -406 l 2,32,33
 169 -406 169 -406 159 -396 c 128,-1,34
 149 -386 149 -386 149 -360 c 2,35,-1
 149 1421 l 2,0,1
EndSplineSet
Substitution2: "<17001,16003> Urdu lookup 100 subtable" bracketleft
EndChar

StartChar: backslash
Encoding: 92 92 63
Width: 569
GlyphClass: 2
Flags: W
LayerCount: 2
Fore
SplineSet
640 -33 m 1,0,-1
 501 -33 l 1,1,-1
 -72 1421 l 1,2,-1
 67 1421 l 1,3,-1
 640 -33 l 1,0,-1
EndSplineSet
Substitution2: "<17001,16003> Urdu lookup 100 subtable" backslash
EndChar

StartChar: bracketright
Encoding: 93 93 64
Width: 737
GlyphClass: 2
Flags: W
LayerCount: 2
Fore
SplineSet
486 -360 m 2,0,1
 486 -386 486 -386 475.5 -396 c 128,-1,2
 465 -406 465 -406 453 -406 c 2,3,-1
 131 -406 l 2,4,5
 116 -406 116 -406 107.5 -401.5 c 128,-1,6
 99 -397 99 -397 99 -385 c 0,7,8
 99 -374 99 -374 108 -369.5 c 128,-1,9
 117 -365 117 -365 131.5 -363.5 c 128,-1,10
 146 -362 146 -362 164.5 -361 c 128,-1,11
 183 -360 183 -360 203 -356 c 256,12,13
 223 -352 223 -352 242 -343.5 c 128,-1,14
 261 -335 261 -335 276 -318 c 128,-1,15
 291 -301 291 -301 300 -274.5 c 128,-1,16
 309 -248 309 -248 309 -207 c 2,17,-1
 309 1268 l 2,18,19
 309 1309 309 1309 300 1335.5 c 128,-1,20
 291 1362 291 1362 276 1379 c 128,-1,21
 261 1396 261 1396 242 1404.5 c 128,-1,22
 223 1413 223 1413 203 1417 c 256,23,24
 183 1421 183 1421 164.5 1422 c 128,-1,25
 146 1423 146 1423 131.5 1424.5 c 128,-1,26
 117 1426 117 1426 108 1430.5 c 128,-1,27
 99 1435 99 1435 99 1446 c 0,28,29
 99 1458 99 1458 107.5 1462 c 128,-1,30
 116 1466 116 1466 131 1466 c 2,31,-1
 453 1466 l 2,32,33
 465 1466 465 1466 475.5 1456.5 c 128,-1,34
 486 1447 486 1447 486 1421 c 2,35,-1
 486 -360 l 2,0,1
EndSplineSet
Substitution2: "<17001,16003> Urdu lookup 100 subtable" bracketright
EndChar

StartChar: asciicircum
Encoding: 94 94 65
Width: 1229
GlyphClass: 2
Flags: W
LayerCount: 2
Fore
SplineSet
211 719 m 1,0,-1
 690 1389 l 1,1,-1
 829 1389 l 1,2,-1
 1022 719 l 1,3,-1
 866 719 l 1,4,-1
 726 1233 l 1,5,-1
 358 719 l 1,6,-1
 211 719 l 1,0,-1
EndSplineSet
Substitution2: "<17001,16003> Urdu lookup 100 subtable" asciicircum
EndChar

StartChar: underscore
Encoding: 95 95 66
Width: 1024
GlyphClass: 2
Flags: W
LayerCount: 2
Fore
SplineSet
0 -776 m 1,0,-1
 0 -674 l 1,1,-1
 1023 -674 l 1,2,-1
 1023 -776 l 1,3,-1
 0 -776 l 1,0,-1
EndSplineSet
Substitution2: "<17001,16003> Urdu lookup 100 subtable" underscore
EndChar

StartChar: grave
Encoding: 96 96 67
Width: 606
GlyphClass: 2
Flags: W
LayerCount: 2
Fore
SplineSet
448 1040 m 1,0,-1
 155 1255 l 1,1,2
 138 1266 138 1266 131.5 1285 c 128,-1,3
 125 1304 125 1304 130 1329 c 0,4,5
 133 1342 133 1342 140.5 1353.5 c 128,-1,6
 148 1365 148 1365 158.5 1374 c 128,-1,7
 169 1383 169 1383 182.5 1388 c 128,-1,8
 196 1393 196 1393 209 1393 c 0,9,10
 229 1393 229 1393 250.5 1383 c 128,-1,11
 272 1373 272 1373 289 1352 c 2,12,-1
 530 1040 l 1,13,-1
 448 1040 l 1,0,-1
EndSplineSet
Substitution2: "<17001,16003> Urdu lookup 100 subtable" grave
EndChar

StartChar: a
Encoding: 97 97 68
Width: 1024
GlyphClass: 2
Flags: W
LayerCount: 2
Fore
SplineSet
603 520 m 1,0,1
 483 481 483 481 405.5 448 c 128,-1,2
 328 415 328 415 280 381 c 128,-1,3
 232 347 232 347 209 308.5 c 128,-1,4
 186 270 186 270 175 221 c 0,5,6
 156 132 156 132 179.5 94.5 c 128,-1,7
 203 57 203 57 255 57 c 0,8,9
 270 57 270 57 296.5 63 c 128,-1,10
 323 69 323 69 358 83.5 c 128,-1,11
 393 98 393 98 437 122.5 c 128,-1,12
 481 147 481 147 532 184 c 1,13,-1
 603 520 l 1,0,1
703 127 m 2,14,15
 698 99 698 99 709 84.5 c 128,-1,16
 720 70 720 70 745 70 c 0,17,18
 766 70 766 70 786.5 81 c 128,-1,19
 807 92 807 92 824 104.5 c 128,-1,20
 841 117 841 117 854 128 c 128,-1,21
 867 139 867 139 874 139 c 256,22,23
 881 139 881 139 885 134.5 c 128,-1,24
 889 130 889 130 887 121 c 0,25,26
 886 114 886 114 862 91.5 c 128,-1,27
 838 69 838 69 802 45 c 128,-1,28
 766 21 766 21 723 2.5 c 128,-1,29
 680 -16 680 -16 639 -16 c 0,30,31
 601 -16 601 -16 577 -2 c 128,-1,32
 553 12 553 12 540.5 33.5 c 128,-1,33
 528 55 528 55 524.5 81.5 c 128,-1,34
 521 108 521 108 525 133 c 1,35,36
 418 58 418 58 321 21 c 128,-1,37
 224 -16 224 -16 147 -16 c 0,38,39
 97 -16 97 -16 60 -1 c 128,-1,40
 23 14 23 14 0 41 c 128,-1,41
 -23 68 -23 68 -30.5 104.5 c 128,-1,42
 -38 141 -38 141 -29 184 c 0,43,44
 -22 217 -22 217 -9 245 c 128,-1,45
 4 273 4 273 31 300 c 128,-1,46
 58 327 58 327 102.5 354.5 c 128,-1,47
 147 382 147 382 216 414 c 128,-1,48
 285 446 285 446 382.5 484 c 128,-1,49
 480 522 480 522 613 569 c 1,50,-1
 664 809 l 2,51,52
 675 856 675 856 652.5 876.5 c 128,-1,53
 630 897 630 897 583 897 c 0,54,55
 522 897 522 897 481.5 872.5 c 128,-1,56
 441 848 441 848 411.5 812 c 128,-1,57
 382 776 382 776 358 733 c 128,-1,58
 334 690 334 690 306.5 654 c 128,-1,59
 279 618 279 618 243 593.5 c 128,-1,60
 207 569 207 569 152 569 c 0,61,62
 123 569 123 569 109.5 593.5 c 128,-1,63
 96 618 96 618 104 655 c 0,64,65
 111 686 111 686 140 720 c 128,-1,66
 169 754 169 754 212.5 786 c 128,-1,67
 256 818 256 818 310.5 847 c 128,-1,68
 365 876 365 876 422.5 898 c 128,-1,69
 480 920 480 920 536.5 933 c 128,-1,70
 593 946 593 946 641 946 c 0,71,72
 695 946 695 946 736.5 933.5 c 128,-1,73
 778 921 778 921 803 895 c 128,-1,74
 828 869 828 869 836.5 829.5 c 128,-1,75
 845 790 845 790 833 735 c 2,76,-1
 703 127 l 2,14,15
EndSplineSet
Substitution2: "<17001,16003> Urdu lookup 100 subtable" a
EndChar

StartChar: b
Encoding: 98 98 69
Width: 1139
GlyphClass: 2
Flags: W
LayerCount: 2
Fore
SplineSet
390 825 m 1,0,1
 429 851 429 851 467.5 873.5 c 128,-1,2
 506 896 506 896 547 912 c 128,-1,3
 588 928 588 928 633 937 c 128,-1,4
 678 946 678 946 729 946 c 0,5,6
 817 946 817 946 881.5 912.5 c 128,-1,7
 946 879 946 879 984 822.5 c 128,-1,8
 1022 766 1022 766 1034 692 c 128,-1,9
 1046 618 1046 618 1029 537 c 0,10,11
 1002 412 1002 412 939.5 310 c 128,-1,12
 877 208 877 208 792.5 135.5 c 128,-1,13
 708 63 708 63 609 23.5 c 128,-1,14
 510 -16 510 -16 409 -16 c 0,15,16
 369 -16 369 -16 335 -8 c 128,-1,17
 301 0 301 0 271.5 13 c 128,-1,18
 242 26 242 26 215.5 43.5 c 128,-1,19
 189 61 189 61 164 80 c 1,20,21
 131 51 131 51 110 32 c 128,-1,22
 89 13 89 13 76 2.5 c 128,-1,23
 63 -8 63 -8 55.5 -12 c 128,-1,24
 48 -16 48 -16 43 -16 c 0,25,26
 26 -16 26 -16 32 10 c 2,27,-1
 297 1257 l 2,28,29
 304 1292 304 1292 297 1311.5 c 128,-1,30
 290 1331 290 1331 274.5 1341 c 128,-1,31
 259 1351 259 1351 240 1354.5 c 128,-1,32
 221 1358 221 1358 204.5 1360.5 c 128,-1,33
 188 1363 188 1363 177 1367.5 c 128,-1,34
 166 1372 166 1372 169 1384 c 0,35,36
 172 1398 172 1398 186 1401.5 c 128,-1,37
 200 1405 200 1405 238 1412.5 c 128,-1,38
 276 1420 276 1420 346.5 1437 c 128,-1,39
 417 1454 417 1454 532 1495 c 1,40,-1
 390 825 l 1,0,1
268 250 m 2,41,42
 257 198 257 198 260 155.5 c 128,-1,43
 263 113 263 113 281.5 83 c 128,-1,44
 300 53 300 53 334 36.5 c 128,-1,45
 368 20 368 20 419 20 c 0,46,47
 481 20 481 20 533 40 c 128,-1,48
 585 60 585 60 627 94.5 c 128,-1,49
 669 129 669 129 702.5 175 c 128,-1,50
 736 221 736 221 761.5 272.5 c 128,-1,51
 787 324 787 324 804.5 378 c 128,-1,52
 822 432 822 432 833 483 c 0,53,54
 851 569 851 569 844.5 639.5 c 128,-1,55
 838 710 838 710 810 761 c 128,-1,56
 782 812 782 812 734.5 840 c 128,-1,57
 687 868 687 868 624 868 c 0,58,59
 582 868 582 868 545.5 858 c 128,-1,60
 509 848 509 848 478 833.5 c 128,-1,61
 447 819 447 819 422 802.5 c 128,-1,62
 397 786 397 786 379 774 c 1,63,-1
 268 250 l 2,41,42
EndSplineSet
Substitution2: "<17001,16003> Urdu lookup 100 subtable" b
EndChar

StartChar: c
Encoding: 99 99 70
AltUni2: 00217d.ffffffff.0
Width: 1024
GlyphClass: 2
Flags: W
LayerCount: 2
Fore
SplineSet
17 438 m 0,0,1
 41 552 41 552 99.5 646 c 128,-1,2
 158 740 158 740 237.5 806.5 c 128,-1,3
 317 873 317 873 411 909.5 c 128,-1,4
 505 946 505 946 600 946 c 0,5,6
 678 946 678 946 745 922.5 c 128,-1,7
 812 899 812 899 859 858 c 128,-1,8
 906 817 906 817 927.5 760 c 128,-1,9
 949 703 949 703 934 635 c 1,10,11
 927 598 927 598 912.5 572 c 128,-1,12
 898 546 898 546 879.5 529.5 c 128,-1,13
 861 513 861 513 839 505.5 c 128,-1,14
 817 498 817 498 793 498 c 0,15,16
 774 498 774 498 757 504.5 c 128,-1,17
 740 511 740 511 729.5 526.5 c 128,-1,18
 719 542 719 542 716 567.5 c 128,-1,19
 713 593 713 593 721 631 c 0,20,21
 724 648 724 648 729 660 c 128,-1,22
 734 672 734 672 738.5 683 c 128,-1,23
 743 694 743 694 747.5 705 c 128,-1,24
 752 716 752 716 755 731 c 0,25,26
 762 766 762 766 755 796 c 128,-1,27
 748 826 748 826 726 848.5 c 128,-1,28
 704 871 704 871 668 884 c 128,-1,29
 632 897 632 897 581 897 c 0,30,31
 523 897 523 897 463.5 870 c 128,-1,32
 404 843 404 843 353.5 795 c 128,-1,33
 303 747 303 747 265 681.5 c 128,-1,34
 227 616 227 616 210 539 c 0,35,36
 191 451 191 451 200 375.5 c 128,-1,37
 209 300 209 300 244 244.5 c 128,-1,38
 279 189 279 189 338.5 158 c 128,-1,39
 398 127 398 127 480 127 c 0,40,41
 514 127 514 127 550 134 c 128,-1,42
 586 141 586 141 621 154 c 128,-1,43
 656 167 656 167 688.5 184 c 128,-1,44
 721 201 721 201 748 221 c 0,45,46
 774 240 774 240 790.5 258 c 128,-1,47
 807 276 807 276 818 289.5 c 128,-1,48
 829 303 829 303 836.5 311 c 128,-1,49
 844 319 844 319 853 319 c 0,50,51
 869 319 869 319 865 297 c 0,52,53
 862 284 862 284 846 255.5 c 128,-1,54
 830 227 830 227 801.5 192.5 c 128,-1,55
 773 158 773 158 732 121 c 128,-1,56
 691 84 691 84 637.5 53.5 c 128,-1,57
 584 23 584 23 518 3.5 c 128,-1,58
 452 -16 452 -16 374 -16 c 0,59,60
 280 -16 280 -16 204.5 18.5 c 128,-1,61
 129 53 129 53 80 113.5 c 128,-1,62
 31 174 31 174 13.5 257.5 c 128,-1,63
 -4 341 -4 341 17 438 c 0,0,1
EndSplineSet
Substitution2: "<17001,16003> Urdu lookup 100 subtable" c
EndChar

StartChar: d
Encoding: 100 100 71
AltUni2: 00217e.ffffffff.0
Width: 1139
GlyphClass: 2
Flags: W
LayerCount: 2
Fore
SplineSet
771 694 m 1,0,1
 784 750 784 750 776 790.5 c 128,-1,2
 768 831 768 831 745 857 c 128,-1,3
 722 883 722 883 686 896 c 128,-1,4
 650 909 650 909 608 909 c 0,5,6
 539 909 539 909 475.5 876.5 c 128,-1,7
 412 844 412 844 359 785.5 c 128,-1,8
 306 727 306 727 267 646 c 128,-1,9
 228 565 228 565 207 467 c 0,10,11
 194 406 194 406 195.5 339 c 128,-1,12
 197 272 197 272 219.5 217 c 128,-1,13
 242 162 242 162 289 126 c 128,-1,14
 336 90 336 90 414 90 c 0,15,16
 458 90 458 90 501.5 104 c 128,-1,17
 545 118 545 118 580.5 137.5 c 128,-1,18
 616 157 616 157 640 177.5 c 128,-1,19
 664 198 664 198 668 211 c 1,20,-1
 771 694 l 1,0,1
891 1257 m 2,21,22
 898 1292 898 1292 890 1311.5 c 128,-1,23
 882 1331 882 1331 866 1341 c 128,-1,24
 850 1351 850 1351 829.5 1354.5 c 128,-1,25
 809 1358 809 1358 791.5 1360.5 c 128,-1,26
 774 1363 774 1363 762.5 1367.5 c 128,-1,27
 751 1372 751 1372 754 1384 c 0,28,29
 756 1393 756 1393 763 1397.5 c 128,-1,30
 770 1402 770 1402 785.5 1405 c 128,-1,31
 801 1408 801 1408 827.5 1412.5 c 128,-1,32
 854 1417 854 1417 894.5 1426 c 128,-1,33
 935 1435 935 1435 991.5 1451.5 c 128,-1,34
 1048 1468 1048 1468 1125 1495 c 1,35,-1
 860 246 l 2,36,37
 852 209 852 209 859 187 c 128,-1,38
 866 165 866 165 880.5 153 c 128,-1,39
 895 141 895 141 914.5 136.5 c 128,-1,40
 934 132 934 132 950.5 128.5 c 128,-1,41
 967 125 967 125 977.5 121 c 128,-1,42
 988 117 988 117 986 106 c 0,43,44
 984 97 984 97 978 93 c 128,-1,45
 972 89 972 89 957.5 85 c 128,-1,46
 943 81 943 81 918.5 76.5 c 128,-1,47
 894 72 894 72 855 61 c 128,-1,48
 816 50 816 50 761.5 32 c 128,-1,49
 707 14 707 14 632 -16 c 1,50,-1
 670 164 l 1,51,52
 634 132 634 132 593 99.5 c 128,-1,53
 552 67 552 67 505.5 41.5 c 128,-1,54
 459 16 459 16 408 0 c 128,-1,55
 357 -16 357 -16 303 -16 c 0,56,57
 218 -16 218 -16 155 18.5 c 128,-1,58
 92 53 92 53 54 111 c 128,-1,59
 16 169 16 169 4 245.5 c 128,-1,60
 -8 322 -8 322 10 406 c 0,61,62
 36 528 36 528 97 627.5 c 128,-1,63
 158 727 158 727 241.5 798 c 128,-1,64
 325 869 325 869 424 907.5 c 128,-1,65
 523 946 523 946 624 946 c 0,66,67
 704 946 704 946 750 937 c 128,-1,68
 796 928 796 928 819 922 c 1,69,-1
 891 1257 l 2,21,22
EndSplineSet
Substitution2: "<17001,16003> Urdu lookup 100 subtable" d
EndChar

StartChar: e
Encoding: 101 101 72
Width: 1024
GlyphClass: 2
Flags: W
LayerCount: 2
Fore
SplineSet
216 512 m 1,0,1
 201 435 201 435 205 365.5 c 128,-1,2
 209 296 209 296 239 243 c 128,-1,3
 269 190 269 190 328.5 158.5 c 128,-1,4
 388 127 388 127 484 127 c 0,5,6
 550 127 550 127 603.5 142 c 128,-1,7
 657 157 657 157 708 188 c 0,8,9
 740 208 740 208 760.5 227 c 128,-1,10
 781 246 781 246 794 261 c 128,-1,11
 807 276 807 276 816 285.5 c 128,-1,12
 825 295 825 295 834 295 c 0,13,14
 853 295 853 295 847 272 c 0,15,16
 845 262 845 262 831 237 c 128,-1,17
 817 212 817 212 790.5 180 c 128,-1,18
 764 148 764 148 725 113.5 c 128,-1,19
 686 79 686 79 634.5 50 c 128,-1,20
 583 21 583 21 518 2.5 c 128,-1,21
 453 -16 453 -16 374 -16 c 0,22,23
 283 -16 283 -16 208 18.5 c 128,-1,24
 133 53 133 53 83.5 115 c 128,-1,25
 34 177 34 177 15.5 263 c 128,-1,26
 -3 349 -3 349 19 451 c 0,27,28
 39 544 39 544 91.5 633 c 128,-1,29
 144 722 144 722 220 791.5 c 128,-1,30
 296 861 296 861 391.5 903.5 c 128,-1,31
 487 946 487 946 592 946 c 0,32,33
 692 946 692 946 758.5 908.5 c 128,-1,34
 825 871 825 871 861 809.5 c 128,-1,35
 897 748 897 748 905 670.5 c 128,-1,36
 913 593 913 593 896 512 c 1,37,-1
 216 512 l 1,0,1
723 561 m 1,38,39
 743 656 743 656 742.5 722 c 128,-1,40
 742 788 742 788 723.5 829.5 c 128,-1,41
 705 871 705 871 669 890 c 128,-1,42
 633 909 633 909 582 909 c 0,43,44
 527 909 527 909 470 882 c 128,-1,45
 413 855 413 855 364 808 c 128,-1,46
 315 761 315 761 277.5 697.5 c 128,-1,47
 240 634 240 634 223 561 c 1,48,-1
 723 561 l 1,38,39
EndSplineSet
Substitution2: "<17001,16003> Urdu lookup 100 subtable" e
EndChar

StartChar: f
Encoding: 102 102 73
Width: 606
GlyphClass: 2
Flags: W
LayerCount: 2
Fore
SplineSet
585 840 m 1,0,-1
 397 840 l 1,1,-1
 249 143 l 2,2,3
 242 111 242 111 249.5 93 c 128,-1,4
 257 75 257 75 272 66 c 128,-1,5
 287 57 287 57 305.5 54 c 128,-1,6
 324 51 324 51 340.5 48 c 128,-1,7
 357 45 357 45 367 39.5 c 128,-1,8
 377 34 377 34 374 20 c 256,9,10
 371 6 371 6 362 1 c 128,-1,11
 353 -4 353 -4 336 -4 c 0,12,13
 317 -4 317 -4 297.5 -3.5 c 128,-1,14
 278 -3 278 -3 254 -2 c 128,-1,15
 230 -1 230 -1 199 -0.5 c 128,-1,16
 168 0 168 0 126 0 c 256,17,18
 84 0 84 0 53 -0.5 c 128,-1,19
 22 -1 22 -1 -2.5 -2 c 128,-1,20
 -27 -3 -27 -3 -46.5 -3.5 c 128,-1,21
 -66 -4 -66 -4 -85 -4 c 0,22,23
 -102 -4 -102 -4 -109 1 c 128,-1,24
 -116 6 -116 6 -113 20 c 256,25,26
 -110 34 -110 34 -97.5 39.5 c 128,-1,27
 -85 45 -85 45 -68 48 c 128,-1,28
 -51 51 -51 51 -30.5 54 c 128,-1,29
 -10 57 -10 57 8.5 66 c 128,-1,30
 27 75 27 75 42 93 c 128,-1,31
 57 111 57 111 64 143 c 2,32,-1
 212 840 l 1,33,-1
 61 840 l 1,34,35
 114 855 114 855 151.5 893 c 128,-1,36
 189 931 189 931 219 983 c 128,-1,37
 249 1035 249 1035 273.5 1096.5 c 128,-1,38
 298 1158 298 1158 324 1220 c 128,-1,39
 350 1282 350 1282 380.5 1339.5 c 128,-1,40
 411 1397 411 1397 452 1441.5 c 128,-1,41
 493 1486 493 1486 548.5 1513 c 128,-1,42
 604 1540 604 1540 679 1540 c 0,43,44
 721 1540 721 1540 749 1526 c 128,-1,45
 777 1512 777 1512 792.5 1488.5 c 128,-1,46
 808 1465 808 1465 812 1434.5 c 128,-1,47
 816 1404 816 1404 809 1372 c 0,48,49
 803 1341 803 1341 789 1316 c 128,-1,50
 775 1291 775 1291 757 1273 c 128,-1,51
 739 1255 739 1255 718 1245 c 128,-1,52
 697 1235 697 1235 675 1235 c 0,53,54
 643 1235 643 1235 624 1259 c 128,-1,55
 605 1283 605 1283 617 1339 c 0,56,57
 624 1370 624 1370 637 1394 c 128,-1,58
 650 1418 650 1418 655 1438 c 0,59,60
 660 1459 660 1459 651 1476.5 c 128,-1,61
 642 1494 642 1494 617 1491 c 256,62,63
 592 1488 592 1488 569 1468 c 128,-1,64
 546 1448 546 1448 527 1419 c 128,-1,65
 508 1390 508 1390 492 1355.5 c 128,-1,66
 476 1321 476 1321 464 1287 c 128,-1,67
 452 1253 452 1253 444 1224 c 128,-1,68
 436 1195 436 1195 432 1178 c 0,69,70
 425 1142 425 1142 422.5 1112.5 c 128,-1,71
 420 1083 420 1083 419.5 1054.5 c 128,-1,72
 419 1026 419 1026 419 996 c 128,-1,73
 419 966 419 966 416 930 c 1,74,-1
 633 930 l 1,75,-1
 585 840 l 1,0,-1
EndSplineSet
Substitution2: "<17001,16003> Urdu lookup 100 subtable" f
EndChar

StartChar: g
Encoding: 103 103 74
Width: 948
GlyphClass: 2
Flags: W
LayerCount: 2
Fore
SplineSet
294 637 m 1,0,1
 263 494 263 494 289 429.5 c 128,-1,2
 315 365 315 365 410 365 c 0,3,4
 458 365 458 365 495 380.5 c 128,-1,5
 532 396 532 396 560 429 c 128,-1,6
 588 462 588 462 607.5 513.5 c 128,-1,7
 627 565 627 565 642 637 c 0,8,9
 657 708 657 708 659 759.5 c 128,-1,10
 661 811 661 811 647.5 844 c 128,-1,11
 634 877 634 877 604 893 c 128,-1,12
 574 909 574 909 526 909 c 256,13,14
 478 909 478 909 441.5 893 c 128,-1,15
 405 877 405 877 377 844 c 128,-1,16
 349 811 349 811 328.5 759.5 c 128,-1,17
 308 708 308 708 294 637 c 1,0,1
603 -197 m 0,18,19
 613 -149 613 -149 601 -124.5 c 128,-1,20
 589 -100 589 -100 558 -89 c 128,-1,21
 527 -78 527 -78 478 -76 c 128,-1,22
 429 -74 429 -74 364.5 -72.5 c 128,-1,23
 300 -71 300 -71 222 -65.5 c 128,-1,24
 144 -60 144 -60 54 -41 c 1,25,26
 32 -41 32 -41 9.5 -51 c 128,-1,27
 -13 -61 -13 -61 -32 -79.5 c 128,-1,28
 -51 -98 -51 -98 -65.5 -123.5 c 128,-1,29
 -80 -149 -80 -149 -87 -180 c 0,30,31
 -108 -279 -108 -279 -36.5 -332 c 128,-1,32
 35 -385 35 -385 190 -385 c 0,33,34
 380 -385 380 -385 482 -335.5 c 128,-1,35
 584 -286 584 -286 603 -197 c 0,18,19
191 -434 m 0,36,37
 100 -434 100 -434 24.5 -418.5 c 128,-1,38
 -51 -403 -51 -403 -102 -372.5 c 128,-1,39
 -153 -342 -153 -342 -176 -297 c 128,-1,40
 -199 -252 -199 -252 -187 -193 c 0,41,42
 -180 -158 -180 -158 -160.5 -130 c 128,-1,43
 -141 -102 -141 -102 -114.5 -80.5 c 128,-1,44
 -88 -59 -88 -59 -56 -44 c 128,-1,45
 -24 -29 -24 -29 9 -20 c 1,46,47
 -23 9 -23 9 -38.5 49 c 128,-1,48
 -54 89 -54 89 -43 141 c 256,49,50
 -32 193 -32 193 0.5 230.5 c 128,-1,51
 33 268 33 268 78.5 292 c 128,-1,52
 124 316 124 316 178.5 327.5 c 128,-1,53
 233 339 233 339 288 338 c 1,54,-1
 290 344 l 1,55,56
 243 353 243 353 200 373.5 c 128,-1,57
 157 394 157 394 127.5 428.5 c 128,-1,58
 98 463 98 463 85.5 512.5 c 128,-1,59
 73 562 73 562 87 627 c 0,60,61
 105 711 105 711 153.5 771 c 128,-1,62
 202 831 202 831 265 870 c 128,-1,63
 328 909 328 909 397.5 927.5 c 128,-1,64
 467 946 467 946 526 946 c 1,65,66
 533 978 533 978 557 1024.5 c 128,-1,67
 581 1071 581 1071 617 1114 c 128,-1,68
 653 1157 653 1157 699 1187 c 128,-1,69
 745 1217 745 1217 796 1217 c 0,70,71
 846 1217 846 1217 866 1193 c 128,-1,72
 886 1169 886 1169 879 1135 c 0,73,74
 868 1085 868 1085 832 1062.5 c 128,-1,75
 796 1040 796 1040 741 1040 c 0,76,77
 721 1040 721 1040 704.5 1042 c 128,-1,78
 688 1044 688 1044 669 1044 c 0,79,80
 628 1044 628 1044 604.5 1015.5 c 128,-1,81
 581 987 581 987 567 946 c 1,82,83
 630 943 630 943 687.5 921.5 c 128,-1,84
 745 900 745 900 785.5 862 c 128,-1,85
 826 824 826 824 845 769.5 c 128,-1,86
 864 715 864 715 849 647 c 1,87,88
 833 569 833 569 790 513 c 128,-1,89
 747 457 747 457 690 419 c 128,-1,90
 633 381 633 381 568 359 c 128,-1,91
 503 337 503 337 441 328 c 0,92,93
 356 316 356 316 299.5 306.5 c 128,-1,94
 243 297 243 297 208 285.5 c 128,-1,95
 173 274 173 274 156 257.5 c 128,-1,96
 139 241 139 241 133 213 c 0,97,98
 129 192 129 192 135 174.5 c 128,-1,99
 141 157 141 157 160.5 143.5 c 128,-1,100
 180 130 180 130 213 122.5 c 128,-1,101
 246 115 246 115 294 115 c 2,102,-1
 484 115 l 2,103,104
 579 115 579 115 640.5 97 c 128,-1,105
 702 79 702 79 735.5 46 c 128,-1,106
 769 13 769 13 778 -33 c 128,-1,107
 787 -79 787 -79 775 -135 c 0,108,109
 762 -198 762 -198 711.5 -252.5 c 128,-1,110
 661 -307 661 -307 583.5 -347.5 c 128,-1,111
 506 -388 506 -388 405.5 -411 c 128,-1,112
 305 -434 305 -434 191 -434 c 0,36,37
EndSplineSet
Substitution2: "<17001,16003> Urdu lookup 100 subtable" g
EndChar

StartChar: h
Encoding: 104 104 75
Width: 1214
GlyphClass: 2
Flags: W
LayerCount: 2
Fore
SplineSet
400 758 m 1,0,1
 442 785 442 785 492.5 818 c 128,-1,2
 543 851 543 851 598.5 879.5 c 128,-1,3
 654 908 654 908 712 927 c 128,-1,4
 770 946 770 946 827 946 c 0,5,6
 889 946 889 946 929.5 930 c 128,-1,7
 970 914 970 914 992 886 c 128,-1,8
 1014 858 1014 858 1018.5 819 c 128,-1,9
 1023 780 1023 780 1014 735 c 2,10,-1
 888 143 l 2,11,12
 881 111 881 111 888.5 93 c 128,-1,13
 896 75 896 75 911 66 c 128,-1,14
 926 57 926 57 944.5 54 c 128,-1,15
 963 51 963 51 979.5 48 c 128,-1,16
 996 45 996 45 1006 39.5 c 128,-1,17
 1016 34 1016 34 1013 20 c 256,18,19
 1010 6 1010 6 1001 1 c 128,-1,20
 992 -4 992 -4 975 -4 c 0,21,22
 956 -4 956 -4 936.5 -3.5 c 128,-1,23
 917 -3 917 -3 893 -2 c 128,-1,24
 869 -1 869 -1 838 -0.5 c 128,-1,25
 807 0 807 0 765 0 c 256,26,27
 723 0 723 0 692 -0.5 c 128,-1,28
 661 -1 661 -1 636.5 -2 c 128,-1,29
 612 -3 612 -3 592.5 -3.5 c 128,-1,30
 573 -4 573 -4 554 -4 c 0,31,32
 537 -4 537 -4 530 1 c 128,-1,33
 523 6 523 6 526 20 c 256,34,35
 529 34 529 34 541.5 39.5 c 128,-1,36
 554 45 554 45 571 48 c 128,-1,37
 588 51 588 51 608.5 54 c 128,-1,38
 629 57 629 57 647.5 66 c 128,-1,39
 666 75 666 75 681 93 c 128,-1,40
 696 111 696 111 703 143 c 2,41,-1
 822 705 l 2,42,43
 836 770 836 770 813 805 c 128,-1,44
 790 840 790 840 712 840 c 0,45,46
 668 840 668 840 628.5 831 c 128,-1,47
 589 822 589 822 550 804 c 128,-1,48
 511 786 511 786 471 760 c 128,-1,49
 431 734 431 734 387 700 c 1,50,-1
 269 143 l 2,51,52
 262 111 262 111 269.5 93 c 128,-1,53
 277 75 277 75 292 66 c 128,-1,54
 307 57 307 57 326 54 c 128,-1,55
 345 51 345 51 361.5 48 c 128,-1,56
 378 45 378 45 388 39.5 c 128,-1,57
 398 34 398 34 395 20 c 256,58,59
 392 6 392 6 383 1 c 128,-1,60
 374 -4 374 -4 357 -4 c 0,61,62
 338 -4 338 -4 318.5 -3.5 c 128,-1,63
 299 -3 299 -3 275 -2 c 128,-1,64
 251 -1 251 -1 220 -0.5 c 128,-1,65
 189 0 189 0 147 0 c 256,66,67
 105 0 105 0 73.5 -0.5 c 128,-1,68
 42 -1 42 -1 17.5 -2 c 128,-1,69
 -7 -3 -7 -3 -26.5 -3.5 c 128,-1,70
 -46 -4 -46 -4 -65 -4 c 0,71,72
 -82 -4 -82 -4 -89 1 c 128,-1,73
 -96 6 -96 6 -93 20 c 256,74,75
 -90 34 -90 34 -77.5 39.5 c 128,-1,76
 -65 45 -65 45 -47.5 48 c 128,-1,77
 -30 51 -30 51 -10 54 c 128,-1,78
 10 57 10 57 29 66 c 128,-1,79
 48 75 48 75 63 93 c 128,-1,80
 78 111 78 111 85 143 c 2,81,-1
 322 1257 l 2,82,83
 329 1292 329 1292 321 1311.5 c 128,-1,84
 313 1331 313 1331 297 1341 c 128,-1,85
 281 1351 281 1351 260.5 1354.5 c 128,-1,86
 240 1358 240 1358 222.5 1360.5 c 128,-1,87
 205 1363 205 1363 194 1367.5 c 128,-1,88
 183 1372 183 1372 185 1384 c 0,89,90
 187 1393 187 1393 194 1397.5 c 128,-1,91
 201 1402 201 1402 217 1405 c 128,-1,92
 233 1408 233 1408 259.5 1412.5 c 128,-1,93
 286 1417 286 1417 326.5 1426 c 128,-1,94
 367 1435 367 1435 423.5 1451.5 c 128,-1,95
 480 1468 480 1468 556 1495 c 1,96,-1
 400 758 l 1,0,1
EndSplineSet
Substitution2: "<17001,16003> Urdu lookup 100 subtable" h
EndChar

StartChar: i
Encoding: 105 105 76
Width: 606
GlyphClass: 2
Flags: W
LayerCount: 2
Fore
SplineSet
367 1085 m 256,0,1
 310 1085 310 1085 288.5 1116 c 128,-1,2
 267 1147 267 1147 278 1198 c 256,3,4
 289 1249 289 1249 323.5 1280 c 128,-1,5
 358 1311 358 1311 415 1311 c 256,6,7
 472 1311 472 1311 493 1280 c 128,-1,8
 514 1249 514 1249 503 1198 c 256,9,10
 492 1147 492 1147 458 1116 c 128,-1,11
 424 1085 424 1085 367 1085 c 256,0,1
275 143 m 2,12,13
 268 111 268 111 275.5 93 c 128,-1,14
 283 75 283 75 298 66 c 128,-1,15
 313 57 313 57 332 54 c 128,-1,16
 351 51 351 51 367.5 48 c 128,-1,17
 384 45 384 45 394 39.5 c 128,-1,18
 404 34 404 34 401 20 c 256,19,20
 398 6 398 6 389 1 c 128,-1,21
 380 -4 380 -4 363 -4 c 0,22,23
 344 -4 344 -4 324.5 -3.5 c 128,-1,24
 305 -3 305 -3 281 -2 c 128,-1,25
 257 -1 257 -1 226 -0.5 c 128,-1,26
 195 0 195 0 153 0 c 256,27,28
 111 0 111 0 79.5 -0.5 c 128,-1,29
 48 -1 48 -1 23.5 -2 c 128,-1,30
 -1 -3 -1 -3 -20.5 -3.5 c 128,-1,31
 -40 -4 -40 -4 -59 -4 c 0,32,33
 -76 -4 -76 -4 -83 1 c 128,-1,34
 -90 6 -90 6 -87 20 c 256,35,36
 -84 34 -84 34 -71.5 39.5 c 128,-1,37
 -59 45 -59 45 -41.5 48 c 128,-1,38
 -24 51 -24 51 -4 54 c 128,-1,39
 16 57 16 57 35 66 c 128,-1,40
 54 75 54 75 69 93 c 128,-1,41
 84 111 84 111 91 143 c 2,42,-1
 211 709 l 2,43,44
 218 743 218 743 211 762.5 c 128,-1,45
 204 782 204 782 189.5 792 c 128,-1,46
 175 802 175 802 156 805.5 c 128,-1,47
 137 809 137 809 120.5 812 c 128,-1,48
 104 815 104 815 93.5 819.5 c 128,-1,49
 83 824 83 824 86 836 c 0,50,51
 88 845 88 845 94 849 c 128,-1,52
 100 853 100 853 114.5 856.5 c 128,-1,53
 129 860 129 860 154 864 c 128,-1,54
 179 868 179 868 218 877.5 c 128,-1,55
 257 887 257 887 313 903 c 128,-1,56
 369 919 369 919 446 946 c 1,57,-1
 275 143 l 2,12,13
EndSplineSet
Substitution2: "<17001,16003> Urdu lookup 100 subtable" i
EndChar

StartChar: j
Encoding: 106 106 77
Width: 606
GlyphClass: 2
Flags: W
LayerCount: 2
Fore
SplineSet
406 1085 m 256,0,1
 349 1085 349 1085 327.5 1116 c 128,-1,2
 306 1147 306 1147 317 1198 c 256,3,4
 328 1249 328 1249 362.5 1280 c 128,-1,5
 397 1311 397 1311 454 1311 c 256,6,7
 511 1311 511 1311 532 1280 c 128,-1,8
 553 1249 553 1249 542 1198 c 256,9,10
 531 1147 531 1147 497 1116 c 128,-1,11
 463 1085 463 1085 406 1085 c 256,0,1
272 -53 m 2,12,13
 256 -131 256 -131 226.5 -189.5 c 128,-1,14
 197 -248 197 -248 160 -290.5 c 128,-1,15
 123 -333 123 -333 81.5 -360.5 c 128,-1,16
 40 -388 40 -388 -1 -404.5 c 128,-1,17
 -42 -421 -42 -421 -80 -427.5 c 128,-1,18
 -118 -434 -118 -434 -147 -434 c 0,19,20
 -194 -434 -194 -434 -229 -422 c 128,-1,21
 -264 -410 -264 -410 -285.5 -390 c 128,-1,22
 -307 -370 -307 -370 -315 -344.5 c 128,-1,23
 -323 -319 -323 -319 -317 -291 c 0,24,25
 -309 -254 -309 -254 -279 -227.5 c 128,-1,26
 -249 -201 -249 -201 -208 -201 c 0,27,28
 -170 -201 -170 -201 -151 -214 c 128,-1,29
 -132 -227 -132 -227 -124 -246.5 c 128,-1,30
 -116 -266 -116 -266 -115 -289 c 128,-1,31
 -114 -312 -114 -312 -110 -331.5 c 128,-1,32
 -106 -351 -106 -351 -95.5 -364 c 128,-1,33
 -85 -377 -85 -377 -59 -377 c 0,34,35
 -36 -377 -36 -377 -11.5 -368.5 c 128,-1,36
 13 -360 13 -360 34.5 -344.5 c 128,-1,37
 56 -329 56 -329 72 -308 c 128,-1,38
 88 -287 88 -287 93 -262 c 0,39,40
 96 -245 96 -245 93 -223 c 128,-1,41
 90 -201 90 -201 86.5 -174.5 c 128,-1,42
 83 -148 83 -148 82 -117.5 c 128,-1,43
 81 -87 81 -87 88 -53 c 2,44,-1
 250 709 l 2,45,46
 257 743 257 743 250 762.5 c 128,-1,47
 243 782 243 782 228.5 792 c 128,-1,48
 214 802 214 802 195 805.5 c 128,-1,49
 176 809 176 809 159.5 812 c 128,-1,50
 143 815 143 815 132.5 819.5 c 128,-1,51
 122 824 122 824 125 836 c 0,52,53
 127 845 127 845 133 849 c 128,-1,54
 139 853 139 853 153.5 856.5 c 128,-1,55
 168 860 168 860 193 864 c 128,-1,56
 218 868 218 868 257 877.5 c 128,-1,57
 296 887 296 887 352 903 c 128,-1,58
 408 919 408 919 485 946 c 1,59,-1
 272 -53 l 2,12,13
EndSplineSet
Substitution2: "<17001,16003> Urdu lookup 100 subtable" j
EndChar

StartChar: k
Encoding: 107 107 78
Width: 1139
GlyphClass: 2
Flags: W
LayerCount: 2
Fore
SplineSet
322 1257 m 2,0,1
 329 1292 329 1292 321.5 1311.5 c 128,-1,2
 314 1331 314 1331 299 1341 c 128,-1,3
 284 1351 284 1351 264.5 1354.5 c 128,-1,4
 245 1358 245 1358 228.5 1360.5 c 128,-1,5
 212 1363 212 1363 201 1367.5 c 128,-1,6
 190 1372 190 1372 193 1384 c 0,7,8
 196 1398 196 1398 210 1401.5 c 128,-1,9
 224 1405 224 1405 262 1412.5 c 128,-1,10
 300 1420 300 1420 370.5 1437 c 128,-1,11
 441 1454 441 1454 556 1495 c 1,12,-1
 335 455 l 1,13,-1
 552 600 l 2,14,15
 651 666 651 666 699 720.5 c 128,-1,16
 747 775 747 775 753 803 c 0,17,18
 760 835 760 835 753 852 c 128,-1,19
 746 869 746 869 732 877.5 c 128,-1,20
 718 886 718 886 700 888 c 128,-1,21
 682 890 682 890 666.5 891.5 c 128,-1,22
 651 893 651 893 641 896.5 c 128,-1,23
 631 900 631 900 633 911 c 0,24,25
 636 925 636 925 650 929.5 c 128,-1,26
 664 934 664 934 689 934 c 0,27,28
 729 934 729 934 775.5 932 c 128,-1,29
 822 930 822 930 870 930 c 0,30,31
 920 930 920 930 969 932 c 128,-1,32
 1018 934 1018 934 1066 934 c 0,33,34
 1081 934 1081 934 1090 929 c 128,-1,35
 1099 924 1099 924 1097 913 c 256,36,37
 1095 902 1095 902 1087.5 898.5 c 128,-1,38
 1080 895 1080 895 1067.5 894 c 128,-1,39
 1055 893 1055 893 1037.5 891 c 128,-1,40
 1020 889 1020 889 996.5 881.5 c 128,-1,41
 973 874 973 874 943.5 858 c 128,-1,42
 914 842 914 842 878 813 c 2,43,-1
 670 643 l 1,44,-1
 865 113 l 2,45,46
 875 86 875 86 890 72.5 c 128,-1,47
 905 59 905 59 921 53 c 128,-1,48
 937 47 937 47 952.5 46 c 128,-1,49
 968 45 968 45 979.5 43.5 c 128,-1,50
 991 42 991 42 997 36.5 c 128,-1,51
 1003 31 1003 31 1000 16 c 0,52,53
 995 -4 995 -4 963 -4 c 0,54,55
 951 -4 951 -4 927 -3.5 c 128,-1,56
 903 -3 903 -3 870.5 -2 c 128,-1,57
 838 -1 838 -1 799.5 -0.5 c 128,-1,58
 761 0 761 0 720 0 c 0,59,60
 644 0 644 0 602 -2 c 128,-1,61
 560 -4 560 -4 531 -4 c 0,62,63
 519 -4 519 -4 511.5 0.5 c 128,-1,64
 504 5 504 5 506 16 c 0,65,66
 510 32 510 32 520.5 39 c 128,-1,67
 531 46 531 46 545.5 48.5 c 128,-1,68
 560 51 560 51 576.5 52 c 128,-1,69
 593 53 593 53 607.5 57.5 c 128,-1,70
 622 62 622 62 633.5 73 c 128,-1,71
 645 84 645 84 650 106 c 0,72,73
 652 116 652 116 647.5 135.5 c 128,-1,74
 643 155 643 155 638 172 c 2,75,-1
 515 528 l 1,76,-1
 324 401 l 1,77,-1
 269 143 l 2,78,79
 262 111 262 111 269.5 93 c 128,-1,80
 277 75 277 75 292 66 c 128,-1,81
 307 57 307 57 326 54 c 128,-1,82
 345 51 345 51 361.5 48 c 128,-1,83
 378 45 378 45 388 39.5 c 128,-1,84
 398 34 398 34 395 20 c 256,85,86
 392 6 392 6 383 1 c 128,-1,87
 374 -4 374 -4 357 -4 c 0,88,89
 338 -4 338 -4 318.5 -3.5 c 128,-1,90
 299 -3 299 -3 275 -2 c 128,-1,91
 251 -1 251 -1 220 -0.5 c 128,-1,92
 189 0 189 0 147 0 c 256,93,94
 105 0 105 0 73.5 -0.5 c 128,-1,95
 42 -1 42 -1 17.5 -2 c 128,-1,96
 -7 -3 -7 -3 -26.5 -3.5 c 128,-1,97
 -46 -4 -46 -4 -65 -4 c 0,98,99
 -82 -4 -82 -4 -89 1 c 128,-1,100
 -96 6 -96 6 -93 20 c 256,101,102
 -90 34 -90 34 -77.5 39.5 c 128,-1,103
 -65 45 -65 45 -47.5 48 c 128,-1,104
 -30 51 -30 51 -10 54 c 128,-1,105
 10 57 10 57 29 66 c 128,-1,106
 48 75 48 75 63 93 c 128,-1,107
 78 111 78 111 85 143 c 2,108,-1
 322 1257 l 2,0,1
EndSplineSet
Substitution2: "<17001,16003> Urdu lookup 100 subtable" k
EndChar

StartChar: l
Encoding: 108 108 79
AltUni2: 00217c.ffffffff.0
Width: 569
GlyphClass: 2
Flags: W
LayerCount: 2
Fore
SplineSet
257 143 m 2,0,1
 250 111 250 111 257.5 93 c 128,-1,2
 265 75 265 75 280 66 c 128,-1,3
 295 57 295 57 313.5 54 c 128,-1,4
 332 51 332 51 348.5 48 c 128,-1,5
 365 45 365 45 375 39.5 c 128,-1,6
 385 34 385 34 382 20 c 256,7,8
 379 6 379 6 370.5 1 c 128,-1,9
 362 -4 362 -4 345 -4 c 0,10,11
 326 -4 326 -4 306.5 -3.5 c 128,-1,12
 287 -3 287 -3 263 -2 c 128,-1,13
 239 -1 239 -1 208 -0.5 c 128,-1,14
 177 0 177 0 135 0 c 256,15,16
 93 0 93 0 61.5 -0.5 c 128,-1,17
 30 -1 30 -1 5.5 -2 c 128,-1,18
 -19 -3 -19 -3 -38.5 -3.5 c 128,-1,19
 -58 -4 -58 -4 -77 -4 c 0,20,21
 -94 -4 -94 -4 -101 1 c 128,-1,22
 -108 6 -108 6 -105 20 c 256,23,24
 -102 34 -102 34 -89.5 39.5 c 128,-1,25
 -77 45 -77 45 -59.5 48 c 128,-1,26
 -42 51 -42 51 -22 54 c 128,-1,27
 -2 57 -2 57 17 66 c 128,-1,28
 36 75 36 75 51 93 c 128,-1,29
 66 111 66 111 73 143 c 2,30,-1
 310 1257 l 2,31,32
 317 1292 317 1292 309 1311.5 c 128,-1,33
 301 1331 301 1331 285 1341 c 128,-1,34
 269 1351 269 1351 248.5 1354.5 c 128,-1,35
 228 1358 228 1358 210.5 1360.5 c 128,-1,36
 193 1363 193 1363 182 1367.5 c 128,-1,37
 171 1372 171 1372 173 1384 c 0,38,39
 175 1393 175 1393 182 1397.5 c 128,-1,40
 189 1402 189 1402 204.5 1405 c 128,-1,41
 220 1408 220 1408 246 1412.5 c 128,-1,42
 272 1417 272 1417 312.5 1426 c 128,-1,43
 353 1435 353 1435 410 1451.5 c 128,-1,44
 467 1468 467 1468 544 1495 c 1,45,-1
 257 143 l 2,0,1
EndSplineSet
Substitution2: "<17001,16003> Urdu lookup 100 subtable" l
EndChar

StartChar: m
Encoding: 109 109 80
AltUni2: 00217f.ffffffff.0
Width: 1782
GlyphClass: 2
Flags: W
LayerCount: 2
Fore
SplineSet
863 143 m 2,0,1
 856 111 856 111 863.5 93 c 128,-1,2
 871 75 871 75 886 66 c 128,-1,3
 901 57 901 57 920 54 c 128,-1,4
 939 51 939 51 955.5 48 c 128,-1,5
 972 45 972 45 982 39.5 c 128,-1,6
 992 34 992 34 989 20 c 256,7,8
 986 6 986 6 977 1 c 128,-1,9
 968 -4 968 -4 951 -4 c 0,10,11
 932 -4 932 -4 912.5 -3.5 c 128,-1,12
 893 -3 893 -3 869 -2 c 128,-1,13
 845 -1 845 -1 814 -0.5 c 128,-1,14
 783 0 783 0 741 0 c 256,15,16
 699 0 699 0 667.5 -0.5 c 128,-1,17
 636 -1 636 -1 611.5 -2 c 128,-1,18
 587 -3 587 -3 567.5 -3.5 c 128,-1,19
 548 -4 548 -4 529 -4 c 0,20,21
 512 -4 512 -4 505 1 c 128,-1,22
 498 6 498 6 501 20 c 256,23,24
 504 34 504 34 516.5 39.5 c 128,-1,25
 529 45 529 45 546.5 48 c 128,-1,26
 564 51 564 51 584 54 c 128,-1,27
 604 57 604 57 623 66 c 128,-1,28
 642 75 642 75 657 93 c 128,-1,29
 672 111 672 111 679 143 c 2,30,-1
 799 709 l 2,31,32
 826 840 826 840 692 840 c 0,33,34
 624 840 624 840 550.5 805.5 c 128,-1,35
 477 771 477 771 387 700 c 1,36,-1
 269 143 l 2,37,38
 262 111 262 111 269.5 93 c 128,-1,39
 277 75 277 75 292 66 c 128,-1,40
 307 57 307 57 326 54 c 128,-1,41
 345 51 345 51 361.5 48 c 128,-1,42
 378 45 378 45 388 39.5 c 128,-1,43
 398 34 398 34 395 20 c 256,44,45
 392 6 392 6 383 1 c 128,-1,46
 374 -4 374 -4 357 -4 c 0,47,48
 338 -4 338 -4 318.5 -3.5 c 128,-1,49
 299 -3 299 -3 275 -2 c 128,-1,50
 251 -1 251 -1 220 -0.5 c 128,-1,51
 189 0 189 0 147 0 c 256,52,53
 105 0 105 0 73.5 -0.5 c 128,-1,54
 42 -1 42 -1 17.5 -2 c 128,-1,55
 -7 -3 -7 -3 -26.5 -3.5 c 128,-1,56
 -46 -4 -46 -4 -65 -4 c 0,57,58
 -82 -4 -82 -4 -89 1 c 128,-1,59
 -96 6 -96 6 -93 20 c 256,60,61
 -90 34 -90 34 -77.5 39.5 c 128,-1,62
 -65 45 -65 45 -47.5 48 c 128,-1,63
 -30 51 -30 51 -10 54 c 128,-1,64
 10 57 10 57 29 66 c 128,-1,65
 48 75 48 75 63 93 c 128,-1,66
 78 111 78 111 85 143 c 2,67,-1
 205 709 l 2,68,69
 212 743 212 743 205 762.5 c 128,-1,70
 198 782 198 782 183.5 792 c 128,-1,71
 169 802 169 802 150 805.5 c 128,-1,72
 131 809 131 809 114.5 812 c 128,-1,73
 98 815 98 815 88 819.5 c 128,-1,74
 78 824 78 824 80 836 c 0,75,76
 82 845 82 845 88.5 849 c 128,-1,77
 95 853 95 853 109.5 856.5 c 128,-1,78
 124 860 124 860 149 864 c 128,-1,79
 174 868 174 868 213.5 877.5 c 128,-1,80
 253 887 253 887 308.5 903 c 128,-1,81
 364 919 364 919 440 946 c 1,82,-1
 400 758 l 1,83,84
 433 785 433 785 480 818 c 128,-1,85
 527 851 527 851 582 879.5 c 128,-1,86
 637 908 637 908 696 927 c 128,-1,87
 755 946 755 946 813 946 c 0,88,89
 912 946 912 946 955.5 894.5 c 128,-1,90
 999 843 999 843 991 754 c 1,91,92
 1055 795 1055 795 1107.5 829.5 c 128,-1,93
 1160 864 1160 864 1209 889.5 c 128,-1,94
 1258 915 1258 915 1305.5 930 c 128,-1,95
 1353 945 1353 945 1407 946 c 0,96,97
 1463 947 1463 947 1501.5 934 c 128,-1,98
 1540 921 1540 921 1562.5 896.5 c 128,-1,99
 1585 872 1585 872 1591 837 c 128,-1,100
 1597 802 1597 802 1588 758 c 2,101,-1
 1457 143 l 2,102,103
 1450 111 1450 111 1457.5 93 c 128,-1,104
 1465 75 1465 75 1480 66 c 128,-1,105
 1495 57 1495 57 1514 54 c 128,-1,106
 1533 51 1533 51 1549.5 48 c 128,-1,107
 1566 45 1566 45 1576 39.5 c 128,-1,108
 1586 34 1586 34 1583 20 c 256,109,110
 1580 6 1580 6 1571 1 c 128,-1,111
 1562 -4 1562 -4 1545 -4 c 0,112,113
 1526 -4 1526 -4 1506.5 -3.5 c 128,-1,114
 1487 -3 1487 -3 1463 -2 c 128,-1,115
 1439 -1 1439 -1 1408 -0.5 c 128,-1,116
 1377 0 1377 0 1335 0 c 256,117,118
 1293 0 1293 0 1261.5 -0.5 c 128,-1,119
 1230 -1 1230 -1 1205.5 -2 c 128,-1,120
 1181 -3 1181 -3 1161.5 -3.5 c 128,-1,121
 1142 -4 1142 -4 1123 -4 c 0,122,123
 1106 -4 1106 -4 1099 1 c 128,-1,124
 1092 6 1092 6 1095 20 c 256,125,126
 1098 34 1098 34 1110.5 39.5 c 128,-1,127
 1123 45 1123 45 1140.5 48 c 128,-1,128
 1158 51 1158 51 1178 54 c 128,-1,129
 1198 57 1198 57 1217 66 c 128,-1,130
 1236 75 1236 75 1251 93 c 128,-1,131
 1266 111 1266 111 1273 143 c 2,132,-1
 1393 709 l 2,133,134
 1421 840 1421 840 1294 840 c 0,135,136
 1272 840 1272 840 1243.5 834.5 c 128,-1,137
 1215 829 1215 829 1177.5 815 c 128,-1,138
 1140 801 1140 801 1092.5 776 c 128,-1,139
 1045 751 1045 751 984 713 c 1,140,-1
 863 143 l 2,0,1
EndSplineSet
Substitution2: "<17001,16003> Urdu lookup 100 subtable" m
EndChar

StartChar: n
Encoding: 110 110 81
Width: 1214
GlyphClass: 2
Flags: W
LayerCount: 2
Fore
SplineSet
400 758 m 1,0,1
 442 785 442 785 492.5 818 c 128,-1,2
 543 851 543 851 598.5 879.5 c 128,-1,3
 654 908 654 908 712 927 c 128,-1,4
 770 946 770 946 827 946 c 0,5,6
 889 946 889 946 929.5 930 c 128,-1,7
 970 914 970 914 992 886 c 128,-1,8
 1014 858 1014 858 1018.5 819 c 128,-1,9
 1023 780 1023 780 1014 735 c 2,10,-1
 888 143 l 2,11,12
 881 111 881 111 888.5 93 c 128,-1,13
 896 75 896 75 911 66 c 128,-1,14
 926 57 926 57 944.5 54 c 128,-1,15
 963 51 963 51 979.5 48 c 128,-1,16
 996 45 996 45 1006 39.5 c 128,-1,17
 1016 34 1016 34 1013 20 c 256,18,19
 1010 6 1010 6 1001 1 c 128,-1,20
 992 -4 992 -4 975 -4 c 0,21,22
 956 -4 956 -4 936.5 -3.5 c 128,-1,23
 917 -3 917 -3 893 -2 c 128,-1,24
 869 -1 869 -1 838 -0.5 c 128,-1,25
 807 0 807 0 765 0 c 256,26,27
 723 0 723 0 692 -0.5 c 128,-1,28
 661 -1 661 -1 636.5 -2 c 128,-1,29
 612 -3 612 -3 592.5 -3.5 c 128,-1,30
 573 -4 573 -4 554 -4 c 0,31,32
 537 -4 537 -4 530 1 c 128,-1,33
 523 6 523 6 526 20 c 256,34,35
 529 34 529 34 541.5 39.5 c 128,-1,36
 554 45 554 45 571 48 c 128,-1,37
 588 51 588 51 608.5 54 c 128,-1,38
 629 57 629 57 647.5 66 c 128,-1,39
 666 75 666 75 681 93 c 128,-1,40
 696 111 696 111 703 143 c 2,41,-1
 822 705 l 2,42,43
 836 770 836 770 813 805 c 128,-1,44
 790 840 790 840 712 840 c 0,45,46
 668 840 668 840 628.5 831 c 128,-1,47
 589 822 589 822 550 804 c 128,-1,48
 511 786 511 786 471 760 c 128,-1,49
 431 734 431 734 387 700 c 1,50,-1
 269 143 l 2,51,52
 262 111 262 111 269.5 93 c 128,-1,53
 277 75 277 75 292 66 c 128,-1,54
 307 57 307 57 326 54 c 128,-1,55
 345 51 345 51 361.5 48 c 128,-1,56
 378 45 378 45 388 39.5 c 128,-1,57
 398 34 398 34 395 20 c 256,58,59
 392 6 392 6 383 1 c 128,-1,60
 374 -4 374 -4 357 -4 c 0,61,62
 338 -4 338 -4 318.5 -3.5 c 128,-1,63
 299 -3 299 -3 275 -2 c 128,-1,64
 251 -1 251 -1 220 -0.5 c 128,-1,65
 189 0 189 0 147 0 c 256,66,67
 105 0 105 0 73.5 -0.5 c 128,-1,68
 42 -1 42 -1 17.5 -2 c 128,-1,69
 -7 -3 -7 -3 -26.5 -3.5 c 128,-1,70
 -46 -4 -46 -4 -65 -4 c 0,71,72
 -82 -4 -82 -4 -89 1 c 128,-1,73
 -96 6 -96 6 -93 20 c 256,74,75
 -90 34 -90 34 -77.5 39.5 c 128,-1,76
 -65 45 -65 45 -47.5 48 c 128,-1,77
 -30 51 -30 51 -10 54 c 128,-1,78
 10 57 10 57 29 66 c 128,-1,79
 48 75 48 75 63 93 c 128,-1,80
 78 111 78 111 85 143 c 2,81,-1
 205 709 l 2,82,83
 212 743 212 743 205 762.5 c 128,-1,84
 198 782 198 782 183.5 792 c 128,-1,85
 169 802 169 802 150 805.5 c 128,-1,86
 131 809 131 809 114.5 812 c 128,-1,87
 98 815 98 815 88 819.5 c 128,-1,88
 78 824 78 824 80 836 c 0,89,90
 82 845 82 845 88.5 849 c 128,-1,91
 95 853 95 853 109.5 856.5 c 128,-1,92
 124 860 124 860 149 864 c 128,-1,93
 174 868 174 868 213.5 877.5 c 128,-1,94
 253 887 253 887 308.5 903 c 128,-1,95
 364 919 364 919 440 946 c 1,96,-1
 400 758 l 1,0,1
EndSplineSet
Substitution2: "<17001,16003> Urdu lookup 100 subtable" n
EndChar

StartChar: o
Encoding: 111 111 82
Width: 1100
GlyphClass: 2
Flags: W
LayerCount: 2
Fore
SplineSet
395 -16 m 256,0,1
 293 -16 293 -16 214 23.5 c 128,-1,2
 135 63 135 63 85.5 129.5 c 128,-1,3
 36 196 36 196 19 283 c 128,-1,4
 2 370 2 370 22 465 c 256,5,6
 42 560 42 560 96.5 647 c 128,-1,7
 151 734 151 734 229 800.5 c 128,-1,8
 307 867 307 867 402.5 906.5 c 128,-1,9
 498 946 498 946 600 946 c 256,10,11
 702 946 702 946 780.5 906.5 c 128,-1,12
 859 867 859 867 908.5 800.5 c 128,-1,13
 958 734 958 734 975 647 c 128,-1,14
 992 560 992 560 972 465 c 256,15,16
 952 370 952 370 897.5 283 c 128,-1,17
 843 196 843 196 765.5 129.5 c 128,-1,18
 688 63 688 63 592.5 23.5 c 128,-1,19
 497 -16 497 -16 395 -16 c 256,0,1
406 33 m 256,20,21
 483 33 483 33 543.5 69.5 c 128,-1,22
 604 106 604 106 650 166.5 c 128,-1,23
 696 227 696 227 727 305 c 128,-1,24
 758 383 758 383 775 465 c 0,25,26
 793 547 793 547 795 625 c 128,-1,27
 797 703 797 703 776.5 763.5 c 128,-1,28
 756 824 756 824 711 860.5 c 128,-1,29
 666 897 666 897 589 897 c 256,30,31
 512 897 512 897 451 860.5 c 128,-1,32
 390 824 390 824 344 763.5 c 128,-1,33
 298 703 298 703 267 625 c 128,-1,34
 236 547 236 547 218 465 c 0,35,36
 201 383 201 383 199.5 305 c 128,-1,37
 198 227 198 227 218 166.5 c 128,-1,38
 238 106 238 106 283.5 69.5 c 128,-1,39
 329 33 329 33 406 33 c 256,20,21
EndSplineSet
Substitution2: "<17001,16003> Urdu lookup 100 subtable" o
EndChar

StartChar: p
Encoding: 112 112 83
Width: 1139
GlyphClass: 2
Flags: W
LayerCount: 2
Fore
SplineSet
265 236 m 2,0,1
 253 181 253 181 261.5 140 c 128,-1,2
 270 99 270 99 293 72.5 c 128,-1,3
 316 46 316 46 351 33 c 128,-1,4
 386 20 386 20 427 20 c 0,5,6
 494 20 494 20 557.5 51.5 c 128,-1,7
 621 83 621 83 674.5 142.5 c 128,-1,8
 728 202 728 202 769 287 c 128,-1,9
 810 372 810 372 832 479 c 1,10,11
 846 541 846 541 844 605.5 c 128,-1,12
 842 670 842 670 819 722 c 128,-1,13
 796 774 796 774 749.5 807 c 128,-1,14
 703 840 703 840 628 840 c 0,15,16
 560 840 560 840 500 811 c 128,-1,17
 440 782 440 782 369 729 c 1,18,-1
 265 236 l 2,0,1
380 778 m 1,19,20
 422 811 422 811 464 841.5 c 128,-1,21
 506 872 506 872 550.5 895 c 128,-1,22
 595 918 595 918 642.5 932 c 128,-1,23
 690 946 690 946 741 946 c 0,24,25
 819 946 819 946 880.5 913 c 128,-1,26
 942 880 942 880 980.5 821.5 c 128,-1,27
 1019 763 1019 763 1031.5 684.5 c 128,-1,28
 1044 606 1044 606 1024 514 c 0,29,30
 999 397 999 397 938.5 300 c 128,-1,31
 878 203 878 203 795.5 132.5 c 128,-1,32
 713 62 713 62 615.5 23 c 128,-1,33
 518 -16 518 -16 419 -16 c 0,34,35
 388 -16 388 -16 356.5 -14 c 128,-1,36
 325 -12 325 -12 298 -9 c 128,-1,37
 271 -6 271 -6 249.5 -1.5 c 128,-1,38
 228 3 228 3 216 8 c 1,39,-1
 159 -262 l 2,40,41
 152 -294 152 -294 159 -312 c 128,-1,42
 166 -330 166 -330 180.5 -339 c 128,-1,43
 195 -348 195 -348 213.5 -351 c 128,-1,44
 232 -354 232 -354 247.5 -356.5 c 128,-1,45
 263 -359 263 -359 273 -363.5 c 128,-1,46
 283 -368 283 -368 281 -381 c 0,47,48
 279 -390 279 -390 271 -393.5 c 128,-1,49
 263 -397 263 -397 246 -397 c 0,50,51
 187 -397 187 -397 137.5 -395 c 128,-1,52
 88 -393 88 -393 38 -393 c 0,53,54
 -11 -393 -11 -393 -62 -395 c 128,-1,55
 -113 -397 -113 -397 -171 -397 c 0,56,57
 -188 -397 -188 -397 -193.5 -393.5 c 128,-1,58
 -199 -390 -199 -390 -197 -381 c 0,59,60
 -195 -368 -195 -368 -183 -363.5 c 128,-1,61
 -171 -359 -171 -359 -154.5 -356.5 c 128,-1,62
 -138 -354 -138 -354 -118.5 -351 c 128,-1,63
 -99 -348 -99 -348 -80.5 -339 c 128,-1,64
 -62 -330 -62 -330 -47.5 -312 c 128,-1,65
 -33 -294 -33 -294 -26 -262 c 2,66,-1
 180 709 l 2,67,68
 187 743 187 743 180 762.5 c 128,-1,69
 173 782 173 782 157.5 792 c 128,-1,70
 142 802 142 802 123 805.5 c 128,-1,71
 104 809 104 809 87.5 812 c 128,-1,72
 71 815 71 815 60 819.5 c 128,-1,73
 49 824 49 824 52 836 c 0,74,75
 54 845 54 845 60.5 849 c 128,-1,76
 67 853 67 853 81.5 856.5 c 128,-1,77
 96 860 96 860 121.5 864 c 128,-1,78
 147 868 147 868 186.5 877.5 c 128,-1,79
 226 887 226 887 282.5 903 c 128,-1,80
 339 919 339 919 416 946 c 1,81,-1
 380 778 l 1,19,20
EndSplineSet
Substitution2: "<17001,16003> Urdu lookup 100 subtable" p
EndChar

StartChar: q
Encoding: 113 113 84
Width: 1139
GlyphClass: 2
Flags: W
LayerCount: 2
Fore
SplineSet
653 139 m 1,0,-1
 649 139 l 1,1,2
 623 114 623 114 587.5 86.5 c 128,-1,3
 552 59 552 59 507.5 36.5 c 128,-1,4
 463 14 463 14 409 -1 c 128,-1,5
 355 -16 355 -16 292 -16 c 0,6,7
 203 -16 203 -16 140 13.5 c 128,-1,8
 77 43 77 43 41.5 99 c 128,-1,9
 6 155 6 155 -1.5 235.5 c 128,-1,10
 -9 316 -9 316 12 418 c 0,11,12
 27 490 27 490 59.5 557 c 128,-1,13
 92 624 92 624 137.5 682.5 c 128,-1,14
 183 741 183 741 239 789.5 c 128,-1,15
 295 838 295 838 357 873 c 128,-1,16
 419 908 419 908 484.5 927 c 128,-1,17
 550 946 550 946 614 946 c 0,18,19
 666 946 666 946 708 935 c 128,-1,20
 750 924 750 924 782.5 908 c 128,-1,21
 815 892 815 892 837 873.5 c 128,-1,22
 859 855 859 855 872 840 c 1,23,-1
 1009 946 l 1,24,-1
 752 -262 l 2,25,26
 745 -294 745 -294 752 -312 c 128,-1,27
 759 -330 759 -330 773.5 -339 c 128,-1,28
 788 -348 788 -348 806.5 -351 c 128,-1,29
 825 -354 825 -354 841 -356.5 c 128,-1,30
 857 -359 857 -359 867.5 -363.5 c 128,-1,31
 878 -368 878 -368 875 -381 c 0,32,33
 873 -390 873 -390 865 -393.5 c 128,-1,34
 857 -397 857 -397 840 -397 c 0,35,36
 781 -397 781 -397 731.5 -395 c 128,-1,37
 682 -393 682 -393 632 -393 c 0,38,39
 583 -393 583 -393 532 -395 c 128,-1,40
 481 -397 481 -397 422 -397 c 0,41,42
 405 -397 405 -397 399.5 -393.5 c 128,-1,43
 394 -390 394 -390 396 -381 c 0,44,45
 399 -368 399 -368 410.5 -363.5 c 128,-1,46
 422 -359 422 -359 439 -356.5 c 128,-1,47
 456 -354 456 -354 475.5 -351 c 128,-1,48
 495 -348 495 -348 513 -339 c 128,-1,49
 531 -330 531 -330 546 -312 c 128,-1,50
 561 -294 561 -294 568 -262 c 2,51,-1
 653 139 l 1,0,-1
771 692 m 2,52,53
 782 743 782 743 775 783 c 128,-1,54
 768 823 768 823 746 851 c 128,-1,55
 724 879 724 879 689 894 c 128,-1,56
 654 909 654 909 608 909 c 0,57,58
 548 909 548 909 486 877.5 c 128,-1,59
 424 846 424 846 369 787.5 c 128,-1,60
 314 729 314 729 270.5 644.5 c 128,-1,61
 227 560 227 560 204 453 c 0,62,63
 184 359 184 359 189.5 287.5 c 128,-1,64
 195 216 195 216 221.5 169 c 128,-1,65
 248 122 248 122 292 98 c 128,-1,66
 336 74 336 74 393 74 c 0,67,68
 471 74 471 74 539.5 108.5 c 128,-1,69
 608 143 608 143 667 205 c 1,70,-1
 771 692 l 2,52,53
EndSplineSet
Substitution2: "<17001,16003> Urdu lookup 100 subtable" q
EndChar

StartChar: r
Encoding: 114 114 85
Width: 834
GlyphClass: 2
Flags: W
LayerCount: 2
Fore
SplineSet
223 700 m 2,0,1
 231 737 231 737 223.5 757.5 c 128,-1,2
 216 778 216 778 201 789.5 c 128,-1,3
 186 801 186 801 166 805.5 c 128,-1,4
 146 810 146 810 129.5 813 c 128,-1,5
 113 816 113 816 102 821.5 c 128,-1,6
 91 827 91 827 94 840 c 0,7,8
 97 854 97 854 120 858.5 c 128,-1,9
 143 863 143 863 188 870.5 c 128,-1,10
 233 878 233 878 300.5 894 c 128,-1,11
 368 910 368 910 461 946 c 1,12,-1
 404 680 l 1,13,-1
 408 680 l 1,14,15
 461 761 461 761 506.5 813 c 128,-1,16
 552 865 552 865 593 894.5 c 128,-1,17
 634 924 634 924 670.5 935 c 128,-1,18
 707 946 707 946 741 946 c 0,19,20
 803 946 803 946 829 917 c 128,-1,21
 855 888 855 888 844 836 c 0,22,23
 833 786 833 786 797.5 761.5 c 128,-1,24
 762 737 762 737 719 737 c 0,25,26
 693 737 693 737 680.5 744.5 c 128,-1,27
 668 752 668 752 658 761.5 c 128,-1,28
 648 771 648 771 634.5 778.5 c 128,-1,29
 621 786 621 786 592 786 c 0,30,31
 560 786 560 786 525 761.5 c 128,-1,32
 490 737 490 737 457 690.5 c 128,-1,33
 424 644 424 644 396 578 c 128,-1,34
 368 512 368 512 350 428 c 2,35,-1
 290 143 l 2,36,37
 283 111 283 111 290.5 93 c 128,-1,38
 298 75 298 75 313 66 c 128,-1,39
 328 57 328 57 346.5 54 c 128,-1,40
 365 51 365 51 381.5 48 c 128,-1,41
 398 45 398 45 408 39.5 c 128,-1,42
 418 34 418 34 415 20 c 256,43,44
 412 6 412 6 403 1 c 128,-1,45
 394 -4 394 -4 377 -4 c 0,46,47
 358 -4 358 -4 338.5 -3.5 c 128,-1,48
 319 -3 319 -3 295 -2 c 128,-1,49
 271 -1 271 -1 240 -0.5 c 128,-1,50
 209 0 209 0 167 0 c 256,51,52
 125 0 125 0 94 -0.5 c 128,-1,53
 63 -1 63 -1 38.5 -2 c 128,-1,54
 14 -3 14 -3 -6 -3.5 c 128,-1,55
 -26 -4 -26 -4 -45 -4 c 0,56,57
 -62 -4 -62 -4 -68.5 1 c 128,-1,58
 -75 6 -75 6 -72 20 c 256,59,60
 -69 34 -69 34 -56.5 39.5 c 128,-1,61
 -44 45 -44 45 -27 48 c 128,-1,62
 -10 51 -10 51 10.5 54 c 128,-1,63
 31 57 31 57 49.5 66 c 128,-1,64
 68 75 68 75 83 93 c 128,-1,65
 98 111 98 111 105 143 c 2,66,-1
 223 700 l 2,0,1
EndSplineSet
Substitution2: "<17001,16003> Urdu lookup 100 subtable" r
EndChar

StartChar: s
Encoding: 115 115 86
Width: 872
GlyphClass: 2
Flags: W
LayerCount: 2
Fore
SplineSet
92 682 m 0,0,1
 103 733 103 733 135.5 781 c 128,-1,2
 168 829 168 829 218 865.5 c 128,-1,3
 268 902 268 902 334.5 924 c 128,-1,4
 401 946 401 946 481 946 c 0,5,6
 516 946 516 946 555.5 941 c 128,-1,7
 595 936 595 936 633.5 928 c 128,-1,8
 672 920 672 920 705.5 908.5 c 128,-1,9
 739 897 739 897 763 885 c 1,10,-1
 707 623 l 2,11,12
 702 600 702 600 686 600 c 0,13,14
 673 600 673 600 672.5 613.5 c 128,-1,15
 672 627 672 627 668 653 c 0,16,17
 661 702 661 702 648 748 c 128,-1,18
 635 794 635 794 610 830 c 128,-1,19
 585 866 585 866 545.5 887.5 c 128,-1,20
 506 909 506 909 446 909 c 0,21,22
 415 909 415 909 385.5 900 c 128,-1,23
 356 891 356 891 332 872.5 c 128,-1,24
 308 854 308 854 290.5 826 c 128,-1,25
 273 798 273 798 265 760 c 256,26,27
 257 722 257 722 273.5 691.5 c 128,-1,28
 290 661 290 661 322 636 c 128,-1,29
 354 611 354 611 397 588.5 c 128,-1,30
 440 566 440 566 484.5 542 c 128,-1,31
 529 518 529 518 571.5 492 c 128,-1,32
 614 466 614 466 644.5 433 c 128,-1,33
 675 400 675 400 689 358.5 c 128,-1,34
 703 317 703 317 692 264 c 0,35,36
 680 207 680 207 646 156 c 128,-1,37
 612 105 612 105 557.5 66.5 c 128,-1,38
 503 28 503 28 427.5 6 c 128,-1,39
 352 -16 352 -16 256 -16 c 0,40,41
 171 -16 171 -16 96.5 -5 c 128,-1,42
 22 6 22 6 -57 35 c 1,43,-1
 7 336 l 2,44,45
 15 373 15 373 33 373 c 0,46,47
 41 373 41 373 45.5 361 c 128,-1,48
 50 349 50 349 54 309 c 0,49,50
 61 242 61 242 81 188.5 c 128,-1,51
 101 135 101 135 133.5 97.5 c 128,-1,52
 166 60 166 60 210 40 c 128,-1,53
 254 20 254 20 309 20 c 0,54,55
 356 20 356 20 392.5 35.5 c 128,-1,56
 429 51 429 51 455.5 76 c 128,-1,57
 482 101 482 101 498.5 132.5 c 128,-1,58
 515 164 515 164 522 195 c 0,59,60
 530 234 530 234 513.5 263 c 128,-1,61
 497 292 497 292 464.5 316 c 128,-1,62
 432 340 432 340 388.5 360.5 c 128,-1,63
 345 381 345 381 299.5 402.5 c 128,-1,64
 254 424 254 424 211.5 449 c 128,-1,65
 169 474 169 474 138.5 506.5 c 128,-1,66
 108 539 108 539 94 582 c 128,-1,67
 80 625 80 625 92 682 c 0,0,1
EndSplineSet
Substitution2: "<17001,16003> Urdu lookup 100 subtable" s
EndChar

StartChar: t
Encoding: 116 116 87
Width: 721
GlyphClass: 2
Flags: W
LayerCount: 2
Fore
SplineSet
632 831 m 1,0,-1
 395 831 l 1,1,-1
 273 258 l 2,2,3
 263 207 263 207 266.5 173.5 c 128,-1,4
 270 140 270 140 286.5 119.5 c 128,-1,5
 303 99 303 99 330.5 90.5 c 128,-1,6
 358 82 358 82 395 82 c 0,7,8
 438 82 438 82 469.5 98 c 128,-1,9
 501 114 501 114 523.5 133 c 128,-1,10
 546 152 546 152 561.5 168 c 128,-1,11
 577 184 577 184 587 184 c 0,12,13
 601 184 601 184 598 168 c 0,14,15
 596 159 596 159 573 129.5 c 128,-1,16
 550 100 550 100 508.5 67.5 c 128,-1,17
 467 35 467 35 407 9.5 c 128,-1,18
 347 -16 347 -16 272 -16 c 0,19,20
 151 -16 151 -16 105.5 54.5 c 128,-1,21
 60 125 60 125 88 258 c 2,22,-1
 210 831 l 1,23,-1
 71 831 l 1,24,-1
 72 836 l 1,25,26
 206 904 206 904 308.5 1006 c 128,-1,27
 411 1108 411 1108 477 1233 c 1,28,-1
 481 1233 l 1,29,-1
 416 930 l 1,30,-1
 690 930 l 1,31,-1
 632 831 l 1,0,-1
EndSplineSet
Substitution2: "<17001,16003> Urdu lookup 100 subtable" t
EndChar

StartChar: u
Encoding: 117 117 88
Width: 1176
GlyphClass: 2
Flags: W
LayerCount: 2
Fore
SplineSet
689 164 m 1,0,1
 647 136 647 136 596.5 104.5 c 128,-1,2
 546 73 546 73 491.5 46 c 128,-1,3
 437 19 437 19 379 1.5 c 128,-1,4
 321 -16 321 -16 264 -16 c 0,5,6
 202 -16 202 -16 161 0 c 128,-1,7
 120 16 120 16 98.5 44 c 128,-1,8
 77 72 77 72 72 111 c 128,-1,9
 67 150 67 150 77 195 c 2,10,-1
 184 700 l 2,11,12
 192 737 192 737 184.5 757.5 c 128,-1,13
 177 778 177 778 162 789.5 c 128,-1,14
 147 801 147 801 127 805.5 c 128,-1,15
 107 810 107 810 90.5 813 c 128,-1,16
 74 816 74 816 63 821.5 c 128,-1,17
 52 827 52 827 55 840 c 0,18,19
 58 854 58 854 81 858.5 c 128,-1,20
 104 863 104 863 149 870.5 c 128,-1,21
 194 878 194 878 261.5 894 c 128,-1,22
 329 910 329 910 422 946 c 1,23,-1
 268 225 l 2,24,25
 254 160 254 160 277.5 125 c 128,-1,26
 301 90 301 90 379 90 c 0,27,28
 423 90 423 90 462.5 97.5 c 128,-1,29
 502 105 502 105 540 120.5 c 128,-1,30
 578 136 578 136 617.5 159 c 128,-1,31
 657 182 657 182 700 213 c 1,32,-1
 803 700 l 2,33,34
 811 737 811 737 803.5 757.5 c 128,-1,35
 796 778 796 778 780.5 789.5 c 128,-1,36
 765 801 765 801 745.5 805.5 c 128,-1,37
 726 810 726 810 709 813 c 128,-1,38
 692 816 692 816 681 821.5 c 128,-1,39
 670 827 670 827 673 840 c 0,40,41
 676 854 676 854 699 858.5 c 128,-1,42
 722 863 722 863 767 870.5 c 128,-1,43
 812 878 812 878 880 894 c 128,-1,44
 948 910 948 910 1040 946 c 1,45,-1
 887 229 l 2,46,47
 879 193 879 193 886.5 172 c 128,-1,48
 894 151 894 151 909.5 140 c 128,-1,49
 925 129 925 129 944.5 124.5 c 128,-1,50
 964 120 964 120 981.5 116.5 c 128,-1,51
 999 113 999 113 1010 108 c 128,-1,52
 1021 103 1021 103 1018 90 c 0,53,54
 1015 76 1015 76 992 71.5 c 128,-1,55
 969 67 969 67 924 59.5 c 128,-1,56
 879 52 879 52 811 36 c 128,-1,57
 743 20 743 20 651 -16 c 1,58,-1
 689 164 l 1,0,1
EndSplineSet
Substitution2: "<17001,16003> Urdu lookup 100 subtable" u
EndChar

StartChar: v
Encoding: 118 118 89
Width: 1024
GlyphClass: 2
Flags: W
LayerCount: 2
Fore
SplineSet
448 205 m 1,0,-1
 621 457 l 2,1,2
 666 523 666 523 695.5 570.5 c 128,-1,3
 725 618 725 618 743 653 c 128,-1,4
 761 688 761 688 770 714.5 c 128,-1,5
 779 741 779 741 784 766 c 0,6,7
 793 806 793 806 789 829.5 c 128,-1,8
 785 853 785 853 775 865.5 c 128,-1,9
 765 878 765 878 751.5 882.5 c 128,-1,10
 738 887 738 887 725.5 890 c 128,-1,11
 713 893 713 893 705.5 896.5 c 128,-1,12
 698 900 698 900 700 911 c 0,13,14
 703 925 703 925 715 929.5 c 128,-1,15
 727 934 727 934 750 934 c 0,16,17
 770 934 770 934 809 932 c 128,-1,18
 848 930 848 930 893 930 c 0,19,20
 931 930 931 930 965 932 c 128,-1,21
 999 934 999 934 1027 934 c 0,22,23
 1049 934 1049 934 1058.5 930 c 128,-1,24
 1068 926 1068 926 1066 915 c 0,25,26
 1064 905 1064 905 1047.5 898 c 128,-1,27
 1031 891 1031 891 1005 877 c 128,-1,28
 979 863 979 863 945.5 835.5 c 128,-1,29
 912 808 912 808 876 756 c 2,30,-1
 355 -4 l 2,31,32
 346 -16 346 -16 338.5 -24.5 c 128,-1,33
 331 -33 331 -33 321 -33 c 0,34,35
 312 -33 312 -33 308 -24.5 c 128,-1,36
 304 -16 304 -16 302 -4 c 2,37,-1
 144 807 l 2,38,39
 138 836 138 836 128 852 c 128,-1,40
 118 868 118 868 106.5 877 c 128,-1,41
 95 886 95 886 83 889 c 128,-1,42
 71 892 71 892 62.5 895 c 128,-1,43
 54 898 54 898 49.5 902.5 c 128,-1,44
 45 907 45 907 47 918 c 0,45,46
 49 927 49 927 57 930.5 c 128,-1,47
 65 934 65 934 75 934 c 0,48,49
 88 934 88 934 108.5 933.5 c 128,-1,50
 129 933 129 933 154 932 c 128,-1,51
 179 931 179 931 205 930.5 c 128,-1,52
 231 930 231 930 254 930 c 0,53,54
 275 930 275 930 301.5 930.5 c 128,-1,55
 328 931 328 931 354.5 932 c 128,-1,56
 381 933 381 933 404 933.5 c 128,-1,57
 427 934 427 934 441 934 c 0,58,59
 458 934 458 934 468 929.5 c 128,-1,60
 478 925 478 925 475 911 c 0,61,62
 472 899 472 899 453.5 895.5 c 128,-1,63
 435 892 435 892 412.5 887 c 128,-1,64
 390 882 390 882 369.5 870 c 128,-1,65
 349 858 349 858 343 829 c 0,66,67
 340 815 340 815 341.5 802 c 128,-1,68
 343 789 343 789 345 778 c 2,69,-1
 448 205 l 1,0,-1
EndSplineSet
Substitution2: "<17001,16003> Urdu lookup 100 subtable" v
EndChar

StartChar: w
Encoding: 119 119 90
Width: 1479
GlyphClass: 2
Flags: W
LayerCount: 2
Fore
SplineSet
965 227 m 1,0,-1
 1126 494 l 2,1,2
 1149 532 1149 532 1173 574.5 c 128,-1,3
 1197 617 1197 617 1216.5 656 c 128,-1,4
 1236 695 1236 695 1250 726.5 c 128,-1,5
 1264 758 1264 758 1267 774 c 0,6,7
 1275 809 1275 809 1270 829.5 c 128,-1,8
 1265 850 1265 850 1254 862 c 128,-1,9
 1243 874 1243 874 1228 879.5 c 128,-1,10
 1213 885 1213 885 1200 888.5 c 128,-1,11
 1187 892 1187 892 1179 896.5 c 128,-1,12
 1171 901 1171 901 1173 911 c 0,13,14
 1178 934 1178 934 1209 934 c 0,15,16
 1231 934 1231 934 1266.5 932 c 128,-1,17
 1302 930 1302 930 1352 930 c 0,18,19
 1404 930 1404 930 1447 932 c 128,-1,20
 1490 934 1490 934 1508 934 c 0,21,22
 1543 934 1543 934 1538 911 c 0,23,24
 1536 903 1536 903 1528 900.5 c 128,-1,25
 1520 898 1520 898 1506 893.5 c 128,-1,26
 1492 889 1492 889 1472 880.5 c 128,-1,27
 1452 872 1452 872 1427 851.5 c 128,-1,28
 1402 831 1402 831 1372.5 796 c 128,-1,29
 1343 761 1343 761 1308 705 c 2,30,-1
 878 2 l 2,31,32
 867 -17 867 -17 857.5 -25 c 128,-1,33
 848 -33 848 -33 835 -33 c 0,34,35
 823 -33 823 -33 819 -25 c 128,-1,36
 815 -17 815 -17 811 2 c 2,37,-1
 704 608 l 1,38,-1
 354 2 l 2,39,40
 344 -17 344 -17 334.5 -25 c 128,-1,41
 325 -33 325 -33 313 -33 c 256,42,43
 301 -33 301 -33 295.5 -25 c 128,-1,44
 290 -17 290 -17 286 2 c 2,45,-1
 145 819 l 2,46,47
 140 847 140 847 131 862.5 c 128,-1,48
 122 878 122 878 111.5 886 c 128,-1,49
 101 894 101 894 90.5 896.5 c 128,-1,50
 80 899 80 899 72 900.5 c 128,-1,51
 64 902 64 902 59.5 905.5 c 128,-1,52
 55 909 55 909 57 918 c 256,53,54
 59 927 59 927 68.5 930.5 c 128,-1,55
 78 934 78 934 101 934 c 256,56,57
 124 934 124 934 161 932 c 128,-1,58
 198 930 198 930 248 930 c 0,59,60
 313 930 313 930 353 932 c 128,-1,61
 393 934 393 934 410 934 c 0,62,63
 436 934 436 934 446.5 930.5 c 128,-1,64
 457 927 457 927 455 918 c 0,65,66
 452 905 452 905 437 901.5 c 128,-1,67
 422 898 422 898 404 894 c 128,-1,68
 386 890 386 890 369.5 879.5 c 128,-1,69
 353 869 353 869 347 842 c 0,70,71
 341 813 341 813 344 785.5 c 128,-1,72
 347 758 347 758 352 735 c 2,73,-1
 444 242 l 1,74,-1
 691 657 l 1,75,-1
 660 807 l 2,76,77
 651 847 651 847 633.5 864 c 128,-1,78
 616 881 616 881 598.5 888.5 c 128,-1,79
 581 896 581 896 569 899 c 128,-1,80
 557 902 557 902 560 913 c 1,81,82
 562 926 562 926 567 930 c 128,-1,83
 572 934 572 934 585 934 c 0,84,85
 600 934 600 934 617 933.5 c 128,-1,86
 634 933 634 933 654.5 932 c 128,-1,87
 675 931 675 931 700.5 930.5 c 128,-1,88
 726 930 726 930 758 930 c 0,89,90
 824 930 824 930 877 932 c 128,-1,91
 930 934 930 934 961 934 c 0,92,93
 977 934 977 934 985.5 930 c 128,-1,94
 994 926 994 926 992 915 c 0,95,96
 989 900 989 900 970 897 c 128,-1,97
 951 894 951 894 928 889.5 c 128,-1,98
 905 885 905 885 884.5 872.5 c 128,-1,99
 864 860 864 860 856 825 c 0,100,101
 855 821 855 821 856 812.5 c 128,-1,102
 857 804 857 804 858.5 795 c 128,-1,103
 860 786 860 786 862 777 c 128,-1,104
 864 768 864 768 865 762 c 2,105,-1
 965 227 l 1,0,-1
EndSplineSet
Substitution2: "<17001,16003> Urdu lookup 100 subtable" w
EndChar

StartChar: x
Encoding: 120 120 91
Width: 1100
GlyphClass: 2
Flags: W
LayerCount: 2
Fore
SplineSet
250 817 m 2,0,1
 234 851 234 851 210.5 865 c 128,-1,2
 187 879 187 879 166.5 885 c 128,-1,3
 146 891 146 891 132 894 c 128,-1,4
 118 897 118 897 121 909 c 1,5,6
 125 934 125 934 157 934 c 0,7,8
 168 934 168 934 189 933.5 c 128,-1,9
 210 933 210 933 235 932 c 128,-1,10
 260 931 260 931 286 930.5 c 128,-1,11
 312 930 312 930 332 930 c 0,12,13
 367 930 367 930 401.5 930.5 c 128,-1,14
 436 931 436 931 467 932 c 128,-1,15
 498 933 498 933 523 933.5 c 128,-1,16
 548 934 548 934 564 934 c 0,17,18
 586 934 586 934 594.5 928.5 c 128,-1,19
 603 923 603 923 599 907 c 0,20,21
 597 896 597 896 580 893.5 c 128,-1,22
 563 891 563 891 542.5 886.5 c 128,-1,23
 522 882 522 882 503.5 870 c 128,-1,24
 485 858 485 858 479 829 c 0,25,26
 476 814 476 814 477.5 798.5 c 128,-1,27
 479 783 479 783 488.5 757.5 c 128,-1,28
 498 732 498 732 517.5 691 c 128,-1,29
 537 650 537 650 568 584 c 1,30,31
 660 671 660 671 708 724 c 128,-1,32
 756 777 756 777 763 811 c 0,33,34
 768 835 768 835 763.5 848.5 c 128,-1,35
 759 862 759 862 749.5 869 c 128,-1,36
 740 876 740 876 728 879 c 128,-1,37
 716 882 716 882 706 885.5 c 128,-1,38
 696 889 696 889 690 894 c 128,-1,39
 684 899 684 899 686 911 c 0,40,41
 688 921 688 921 698 927.5 c 128,-1,42
 708 934 708 934 728 934 c 0,43,44
 751 934 751 934 786.5 932 c 128,-1,45
 822 930 822 930 864 930 c 0,46,47
 918 930 918 930 965.5 932 c 128,-1,48
 1013 934 1013 934 1039 934 c 0,49,50
 1058 934 1058 934 1063.5 927.5 c 128,-1,51
 1069 921 1069 921 1067 911 c 256,52,53
 1065 901 1065 901 1058.5 897 c 128,-1,54
 1052 893 1052 893 1040 890 c 128,-1,55
 1028 887 1028 887 1010 882.5 c 128,-1,56
 992 878 992 878 966.5 866 c 128,-1,57
 941 854 941 854 908 831.5 c 128,-1,58
 875 809 875 809 833 772 c 2,59,-1
 583 551 l 1,60,-1
 792 106 l 2,61,62
 802 85 802 85 817 73.5 c 128,-1,63
 832 62 832 62 848.5 57 c 128,-1,64
 865 52 865 52 881 50 c 128,-1,65
 897 48 897 48 909 45 c 128,-1,66
 921 42 921 42 927 36 c 128,-1,67
 933 30 933 30 930 16 c 0,68,69
 928 4 928 4 911 0 c 128,-1,70
 894 -4 894 -4 871 -4 c 0,71,72
 820 -4 820 -4 769 -2 c 128,-1,73
 718 0 718 0 667 0 c 0,74,75
 615 0 615 0 561.5 -2 c 128,-1,76
 508 -4 508 -4 445 -4 c 0,77,78
 411 -4 411 -4 417 23 c 0,79,80
 420 36 420 36 430 41.5 c 128,-1,81
 440 47 440 47 454 49.5 c 128,-1,82
 468 52 468 52 484 53 c 128,-1,83
 500 54 500 54 514.5 58.5 c 128,-1,84
 529 63 529 63 540 72.5 c 128,-1,85
 551 82 551 82 555 102 c 0,86,87
 560 125 560 125 548 158.5 c 128,-1,88
 536 192 536 192 516.5 233.5 c 128,-1,89
 497 275 497 275 474.5 322 c 128,-1,90
 452 369 452 369 436 418 c 1,91,92
 370 356 370 356 330.5 313 c 128,-1,93
 291 270 291 270 268.5 239.5 c 128,-1,94
 246 209 246 209 237.5 188.5 c 128,-1,95
 229 168 229 168 225 150 c 0,96,97
 218 118 218 118 222 99.5 c 128,-1,98
 226 81 226 81 236 70.5 c 128,-1,99
 246 60 246 60 258.5 55.5 c 128,-1,100
 271 51 271 51 282 46.5 c 128,-1,101
 293 42 293 42 300 35.5 c 128,-1,102
 307 29 307 29 304 16 c 0,103,104
 302 4 302 4 290.5 0 c 128,-1,105
 279 -4 279 -4 259 -4 c 0,106,107
 243 -4 243 -4 227.5 -3.5 c 128,-1,108
 212 -3 212 -3 190.5 -2 c 128,-1,109
 169 -1 169 -1 138.5 -0.5 c 128,-1,110
 108 0 108 0 63 0 c 0,111,112
 7 0 7 0 -34.5 -2 c 128,-1,113
 -76 -4 -76 -4 -104 -4 c 0,114,115
 -122 -4 -122 -4 -131.5 2.5 c 128,-1,116
 -141 9 -141 9 -137 25 c 0,117,118
 -135 37 -135 37 -125.5 41.5 c 128,-1,119
 -116 46 -116 46 -99.5 50 c 128,-1,120
 -83 54 -83 54 -59 60 c 128,-1,121
 -35 66 -35 66 -3.5 81 c 128,-1,122
 28 96 28 96 67 123 c 128,-1,123
 106 150 106 150 153 195 c 2,124,-1
 421 453 l 1,125,-1
 250 817 l 2,0,1
EndSplineSet
Substitution2: "<17001,16003> Urdu lookup 100 subtable" x
EndChar

